<?xml version="1.0" encoding="UTF-8"?>
<!DOCTYPE svg PUBLIC "-//W3C//DTD SVG 1.1//EN" "http://www.w3.org/Graphics/SVG/1.1/DTD/svg11.dtd">
<!-- Creator: CorelDRAW 2020 (64-Bit) -->
<svg xmlns="http://www.w3.org/2000/svg" xml:space="preserve" width="13.2292mm" height="13.2292mm" version="1.1" style="shape-rendering:geometricPrecision; text-rendering:geometricPrecision; image-rendering:optimizeQuality; fill-rule:evenodd; clip-rule:evenodd"
viewBox="0 0 34.55 34.55"
 xmlns:xlink="http://www.w3.org/1999/xlink"
 xmlns:xodm="http://www.corel.com/coreldraw/odm/2003">
 <defs>
  <style type="text/css">
   <![CDATA[
    .fil5 {fill:#21181B}
    .fil17 {fill:#283540}
    .fil13 {fill:#3A3F5E}
    .fil24 {fill:#3B7D4F}
    .fil12 {fill:#4C6885}
    .fil6 {fill:#4FA4B8}
    .fil21 {fill:#555555}
    .fil7 {fill:#5C5C5C}
    .fil15 {fill:#63AB3F}
    .fil11 {fill:#707072}
    .fil20 {fill:#781D4F}
    .fil2 {fill:#797979}
    .fil14 {fill:#92E8C0}
    .fil19 {fill:#969696}
    .fil3 {fill:#A09F9F}
    .fil10 {fill:#AD2F45}
    .fil4 {fill:#B1AFAF}
    .fil1 {fill:#CB4749}
    .fil16 {fill:#CF752B}
    .fil23 {fill:#DFE0E8}
    .fil8 {fill:#E04E51}
    .fil0 {fill:#E05C5F}
    .fil22 {fill:#E54538}
    .fil9 {fill:#F0B541}
    .fil18 {fill:#F5FFE8}
   ]]>
  </style>
 </defs>
 <g id="Layer_x0020_1">
  <metadata id="CorelCorpID_0Corel-Layer"/>
  <g id="_2002197638160">
   <polygon class="fil0" points="-0,22.97 10.79,22.97 10.79,20.51 9.71,20.51 9.71,19.97 3.24,19.97 3.24,18.89 3.77,18.89 3.78,18.35 4.31,18.35 4.32,17.81 4.85,17.81 4.86,17.27 5.93,17.27 5.94,16.73 7.01,16.73 7.01,16.19 11.33,16.19 11.33,14.57 10.79,14.58 10.79,14.04 10.25,14.04 10.25,11.87 10.79,11.87 10.8,11.34 13.49,11.34 13.49,10.79 14.03,10.79 14.03,9.18 14.57,9.18 14.57,8.64 15.11,8.64 15.11,8.1 15.65,8.1 15.65,7.56 16.73,7.56 16.73,7.02 21.59,7.02 21.59,7.56 22.67,7.56 22.67,8.1 23.21,8.1 23.21,8.64 23.75,8.64 23.75,9.71 24.29,9.71 24.29,10.79 24.83,10.79 24.83,11.34 25.91,11.34 25.91,11.87 26.99,11.87 26.99,12.41 27.53,12.41 27.53,12.96 26.99,12.96 26.99,13.5 26.45,13.5 26.45,14.57 26.99,14.57 26.99,15.65 28.07,15.65 28.07,16.19 29.15,16.19 29.15,16.73 29.69,16.73 29.69,17.27 30.23,17.27 30.23,18.35 28.07,18.35 28.07,18.89 27.53,18.89 27.53,19.43 26.45,19.43 26.45,19.97 25.91,19.97 25.91,20.51 26.45,20.51 29.15,20.51 29.15,21.05 29.69,21.05 29.69,22.67 29.15,22.67 29.15,22.13 27.53,22.13 27.53,22.67 26.99,22.67 26.99,22.97 34.55,22.97 34.55,0 -0,0 "/>
   <polygon class="fil1" points="22.13,25.91 22.67,25.91 22.67,26.45 23.21,26.45 23.21,27.53 23.75,27.53 23.75,28.61 24.29,28.61 24.29,29.69 23.75,29.69 23.75,30.23 22.67,30.23 22.67,29.69 22.13,29.69 22.13,29.15 21.59,29.15 21.59,28.61 21.59,28.07 20.51,28.07 20.51,29.69 19.97,29.69 19.97,31.85 19.43,31.85 19.43,34.55 34.55,34.55 34.55,25.48 22.13,25.48 "/>
   <polygon class="fil1" points="-0,34.55 12.41,34.55 12.41,31.85 11.87,31.85 11.87,29.69 5.4,29.69 5.4,28.61 5.93,28.6 5.94,28.07 6.47,28.07 6.48,27.53 7.01,27.53 7.02,26.99 8.09,26.99 8.1,26.45 9.17,26.45 9.18,25.91 10.25,25.91 10.26,25.48 -0,25.48 "/>
   <polygon class="fil2" points="7.01,16.73 7.01,17.27 5.93,17.27 5.93,17.81 4.85,17.81 4.85,18.35 4.31,18.35 4.31,18.89 3.77,18.89 3.77,19.43 9.72,19.43 9.71,19.97 10.8,19.97 10.79,20.51 11.34,20.51 11.34,24.29 11.87,24.29 11.87,24.83 11.87,25.37 11.34,25.37 11.34,25.9 10.25,25.91 10.25,26.44 9.17,26.45 9.17,26.98 8.09,26.99 8.09,27.52 7.01,27.53 7.01,28.06 6.47,28.07 6.47,28.6 5.93,28.6 5.93,29.15 11.87,29.15 11.87,28.61 12.41,28.61 12.41,31.85 12.95,31.85 12.95,34.55 15.11,34.55 15.11,27.53 14.57,27.53 14.57,23.21 14.03,23.21 14.03,22.13 12.95,22.13 12.95,21.05 12.41,21.05 12.41,20.51 11.87,20.51 11.87,19.43 11.34,19.43 11.34,18.89 11.34,17.81 11.34,17.27 11.87,17.27 11.87,17.81 11.87,18.35 12.41,18.35 12.41,18.89 12.95,18.89 12.95,19.43 13.49,19.43 13.49,19.97 14.03,19.97 14.03,20.51 15.11,20.51 15.11,21.05 15.65,21.05 15.65,20.51 15.65,19.97 14.57,19.97 14.57,19.43 14.03,19.43 14.03,18.89 13.49,18.89 13.49,18.35 12.95,18.35 12.95,17.81 12.41,17.81 12.41,17.27 12.41,16.73 11.87,16.73 11.87,16.19 11.33,16.19 11.34,16.73 "/>
   <polygon class="fil3" points="16.19,28.07 16.19,34.55 18.89,34.55 18.89,31.85 19.43,31.85 19.43,29.69 19.97,29.69 19.97,28.07 20.51,28.07 20.51,26.99 21.05,26.99 21.05,25.37 21.59,25.37 21.59,24.29 22.13,24.29 22.13,23.21 22.67,23.21 22.67,22.13 23.21,22.13 23.21,21.59 21.59,21.59 21.59,22.13 21.05,22.13 21.05,22.67 20.51,22.67 20.51,23.21 19.97,23.21 19.97,23.75 19.43,23.75 19.43,24.29 18.89,24.29 18.89,24.83 18.35,24.83 18.35,25.91 17.81,25.91 17.81,26.45 17.27,26.45 17.27,27.53 16.73,27.53 16.73,28.07 "/>
   <polygon class="fil4" points="17.27,18.35 17.27,18.89 16.73,18.89 16.73,20.51 16.19,20.51 16.19,28.07 16.73,28.07 16.73,27.53 17.27,27.53 17.27,26.45 17.81,26.45 17.81,25.91 18.35,25.91 18.35,24.83 18.89,24.83 18.89,24.29 19.43,24.29 19.43,23.75 19.97,23.75 19.97,23.21 20.51,23.21 20.51,22.67 21.05,22.67 21.05,22.13 21.59,22.13 21.59,21.59 19.43,21.59 19.43,21.05 18.89,21.05 18.89,20.51 18.35,20.51 18.35,18.89 18.89,18.89 18.89,18.35 24.83,18.35 24.83,18.89 25.37,18.89 25.37,19.43 25.91,19.43 26.45,19.43 26.45,18.89 27.53,18.89 27.53,18.35 26.99,18.35 26.99,17.82 17.82,17.82 17.81,18.35 "/>
   <path class="fil5" d="M11.87 14.57l4.86 0 1.08 0 0 0.54 -1.08 0 -4.86 0 0 -0.54zm13.49 -1.08l0.54 0 0 0.54 -0.54 0 0 -0.54zm0 0l-0.54 0 -2.16 0 -0.54 0 -1.62 0 -0.54 0 -1.62 0 -1.08 0 -3.24 0 -0.54 0 -0.54 0 -1.08 0 0 1.08 -0.54 0 0 1.62 0.54 0 0 -0.54 1.62 0 4.32 0 0 0.54 0.54 0 0 -1.08 0 -0.54 1.08 0 3.24 0 0 0.54 0 0.54 0.54 0 0 -0.54 0.54 0 0 -0.54 2.16 0 0.54 -0 0 -1.08 0.54 0 -0 -0.54 -1.62 -0 0 0.54z"/>
   <polygon class="fil6" points="17.27,8.1 17.27,8.64 17.81,8.64 18.35,8.64 18.35,9.18 18.89,9.18 18.89,9.72 19.43,9.72 19.43,10.8 19.97,10.8 19.97,10.26 20.51,10.26 20.51,10.8 21.05,10.8 21.05,11.34 20.51,11.34 20.51,11.87 19.97,11.87 18.89,11.87 18.89,11.34 18.35,11.34 17.81,11.34 16.73,11.34 16.73,11.87 16.19,11.87 16.19,11.34 15.11,11.34 14.57,11.34 14.57,11.87 14.03,11.87 14.03,12.41 13.49,12.41 13.49,13.49 14.03,13.49 14.03,12.95 14.57,12.95 14.57,12.41 15.11,12.41 15.11,11.87 15.65,11.87 15.65,12.41 16.19,12.41 16.19,12.95 17.27,12.95 17.81,12.95 17.81,12.41 17.81,11.87 18.35,11.87 18.35,12.41 18.89,12.41 18.89,12.95 18.35,12.95 18.35,13.49 19.97,13.49 19.97,12.95 20.51,12.95 20.51,13.49 22.13,13.49 22.13,12.95 21.05,12.95 21.05,12.41 21.59,12.41 21.59,11.87 22.13,11.87 22.13,12.41 22.67,12.41 22.67,11.87 23.21,11.87 23.21,11.34 22.13,11.34 21.59,11.34 21.59,10.8 21.59,10.26 22.13,10.26 22.13,9.72 21.59,9.72 21.59,9.18 21.59,8.64 21.05,8.64 19.97,8.64 19.97,8.1 19.97,7.56 19.43,7.56 19.43,8.1 18.89,8.1 18.35,8.1 18.35,7.56 17.27,7.56 "/>
   <polygon class="fil7" points="15.11,34.55 15.65,34.55 15.65,21.05 15.11,21.05 15.11,21.59 14.03,21.59 14.03,21.05 13.49,21.05 13.49,20.51 12.95,20.51 12.95,19.97 12.41,19.97 12.41,19.43 11.87,19.43 11.87,20.51 12.41,20.51 12.41,21.05 12.95,21.05 12.95,22.13 14.03,22.13 14.03,23.21 14.57,23.21 14.57,27.53 15.11,27.53 "/>
   <polygon class="fil2" points="16.73,18.35 17.27,18.35 17.27,17.82 17.82,17.82 17.82,17.28 18.9,17.28 18.89,16.73 18.35,16.73 18.35,16.19 17.81,16.19 17.81,15.65 13.49,15.65 13.49,16.73 14.03,16.73 14.03,17.27 14.57,17.27 14.57,17.81 15.11,17.81 15.11,18.35 "/>
   <polygon class="fil5" points="15.65,21.05 15.65,34.55 16.19,34.55 16.19,28.07 16.19,20.51 15.65,20.51 "/>
   <polygon class="fil5" points="17.82,17.82 26.99,17.82 26.98,17.28 26.44,17.28 26.45,16.73 25.91,16.73 24.83,16.73 24.84,17.28 22.12,17.28 22.13,16.73 19.43,16.73 18.89,16.73 18.9,17.28 17.82,17.28 "/>
   <polygon class="fil8" points="22.13,25.48 34.55,25.48 34.55,24.88 22.13,24.88 "/>
   <polygon class="fil1" points="-0,23.64 10.8,23.64 10.79,22.97 -0,22.97 "/>
   <path class="fil1" d="M22.13 24.29l0 0.59 12.41 0 0 -0.65 -7.02 0 0 0.59 -1.62 0 0 -0.54c-0.09,0 -0.24,0.01 -0.33,0 -0.08,-0.01 -0.07,-0.01 -0.14,-0.02l-0.08 -0.03 -2.7 0c-0.07,0.04 -0,0.02 -0.12,0.04 -0.06,0.01 -0.09,0.01 -0.15,0.01 -0.08,0 -0.19,-0 -0.27,-0z"/>
   <polygon class="fil1" points="-0,24.88 10.8,24.88 10.8,24.24 -0,24.24 "/>
   <polygon class="fil8" points="-0,24.24 10.8,24.24 10.8,23.64 -0,23.64 "/>
   <polygon class="fil8" points="-0,25.48 10.26,25.48 10.26,25.37 10.8,25.37 10.8,24.88 -0,24.88 "/>
   <polygon class="fil7" points="11.87,16.19 11.87,16.73 12.41,16.73 12.95,16.73 12.95,17.27 13.49,17.27 13.49,17.81 14.03,17.81 14.03,18.35 14.57,18.35 14.57,18.89 15.65,18.89 15.65,19.43 14.57,19.43 14.57,19.97 15.65,19.97 15.65,20.51 16.19,20.51 16.19,18.89 16.73,18.89 16.73,18.35 15.11,18.35 15.11,17.81 14.57,17.81 14.57,17.27 14.03,17.27 14.03,16.73 13.49,16.73 13.49,15.65 11.87,15.65 "/>
   <polygon class="fil5" points="12.41,31.85 12.41,28.61 11.87,28.61 11.87,29.15 5.93,29.15 5.93,28.6 5.4,28.61 5.4,29.69 11.87,29.69 11.87,31.85 "/>
   <polygon class="fil1" points="26.99,23.21 26.99,23.64 34.55,23.64 34.55,22.97 26.99,22.97 "/>
   <polygon class="fil5" points="18.89,18.89 19.43,18.89 19.43,19.43 19.97,19.43 19.97,18.89 20.51,18.89 20.51,19.43 21.05,19.43 21.05,18.89 21.59,18.89 22.13,18.89 22.67,18.89 22.67,19.43 23.21,19.43 23.21,18.89 23.75,18.89 23.75,19.43 24.29,19.43 24.29,18.89 24.83,18.89 24.83,18.35 18.89,18.35 "/>
   <polygon class="fil8" points="26.99,23.75 27.53,23.75 27.53,24.24 34.55,24.24 34.55,23.64 26.99,23.64 "/>
   <polygon class="fil5" points="9.71,19.97 9.72,19.43 3.77,19.43 3.77,18.89 3.24,18.89 3.24,19.97 "/>
   <polygon class="fil2" points="26.45,16.73 26.44,17.28 26.98,17.28 26.99,17.82 29.69,17.82 29.69,17.27 29.15,17.27 29.15,16.73 28.07,16.73 28.07,16.19 26.99,16.19 26.99,16.73 "/>
   <polygon class="fil6" points="15.65,8.64 15.65,9.18 16.19,9.18 16.73,9.18 16.73,9.72 16.19,9.72 15.65,9.72 15.65,10.26 16.73,10.26 16.73,10.8 17.81,10.8 18.35,10.8 18.35,10.26 17.81,10.26 17.81,9.72 17.27,9.72 17.27,9.18 17.27,8.64 16.73,8.64 16.73,8.1 16.19,8.1 16.19,8.64 "/>
   <polygon class="fil5" points="10.79,22.97 10.8,23.64 10.8,24.24 10.8,24.88 10.8,25.37 10.26,25.37 10.26,25.48 10.25,25.91 11.34,25.9 11.34,25.37 11.87,25.37 11.87,24.83 11.34,24.83 11.34,24.29 11.34,20.51 10.79,20.51 "/>
   <polygon class="fil2" points="22.67,15.65 22.67,16.73 22.13,16.73 22.12,17.28 24.84,17.28 24.83,16.73 24.29,16.73 24.29,16.19 23.75,16.19 23.75,15.11 23.21,15.11 23.21,15.65 "/>
   <polygon class="fil5" points="19.97,19.97 19.97,21.05 19.43,21.05 19.43,21.59 21.59,21.59 23.21,21.59 23.21,21.05 22.13,21.05 22.13,20.51 21.59,20.51 21.59,21.05 20.51,21.05 20.51,19.97 20.51,19.43 19.97,19.43 "/>
   <polygon class="fil9" points="19.43,16.19 22.13,16.19 22.13,15.65 22.67,15.65 22.67,15.11 19.43,15.11 "/>
   <polygon class="fil6" points="23.75,12.41 23.75,12.95 23.21,12.95 23.21,12.41 22.67,12.41 22.67,13.49 24.83,13.49 24.83,12.95 25.37,12.95 25.37,11.87 24.83,11.87 24.29,11.87 24.29,12.41 "/>
   <polygon class="fil5" points="20.51,28.07 21.59,28.07 21.59,25.91 22.13,25.91 22.13,25.48 22.13,24.88 22.13,24.29 21.59,24.29 21.59,25.37 21.05,25.37 21.05,26.99 20.51,26.99 "/>
   <polygon class="fil10" points="16.73,15.11 16.73,14.57 11.87,14.57 11.87,15.11 "/>
   <polygon class="fil5" points="16.73,7.56 17.27,7.56 18.35,7.56 18.89,7.56 19.43,7.56 19.97,7.56 20.51,7.56 21.59,7.56 21.59,7.02 16.73,7.02 "/>
   <polygon class="fil2" points="22.13,28.61 22.13,29.15 22.67,29.15 22.67,29.69 23.75,29.69 23.75,28.61 23.21,28.61 23.21,27.53 22.67,27.53 22.13,27.53 "/>
   <polygon class="fil11" points="25.91,21.59 25.37,21.59 25.37,22.13 25.91,22.13 25.91,23.21 25.91,24.29 26.45,24.29 26.45,23.75 26.45,23.21 26.45,22.67 26.45,22.13 26.99,22.13 26.99,21.59 27.53,21.59 27.53,21.05 26.45,21.05 26.45,21.59 "/>
   <polygon class="fil8" points="23.21,22.13 23.21,22.99 25.37,22.99 25.37,22.13 24.83,22.13 24.83,21.59 24.29,21.59 23.75,21.59 23.75,22.13 "/>
   <polygon class="fil5" points="26.99,17.82 26.99,18.35 27.53,18.35 27.53,18.89 28.07,18.89 28.07,18.35 30.23,18.35 30.23,17.27 29.69,17.27 29.69,17.82 "/>
   <polygon class="fil5" points="7.01,16.73 11.34,16.73 11.33,16.19 7.01,16.19 "/>
   <polygon class="fil7" points="21.59,28.07 21.59,28.61 22.13,28.61 22.13,27.53 22.67,27.53 22.67,26.45 22.13,26.45 22.13,25.91 21.59,25.91 "/>
   <polygon class="fil5" points="28.61,21.59 28.07,21.59 27.53,21.59 27.53,22.13 29.15,22.13 29.15,22.67 29.69,22.67 29.69,21.05 29.15,21.05 29.15,21.59 "/>
   <polygon class="fil5" points="10.79,14.04 10.8,13.49 11.87,13.49 11.87,12.95 10.8,12.95 10.8,12.41 10.79,11.87 10.25,11.87 10.25,14.04 "/>
   <polygon class="fil5" points="26.45,15.11 26.45,16.19 26.45,16.73 26.99,16.73 26.99,16.19 28.07,16.19 28.07,15.65 26.99,15.65 26.99,14.57 26.45,14.57 "/>
   <polygon class="fil10" points="19.43,15.11 22.67,15.11 22.67,14.57 19.43,14.57 "/>
   <polygon class="fil12" points="10.8,12.41 10.8,12.95 11.87,12.95 11.87,12.41 12.41,12.41 13.49,12.41 13.49,11.87 11.34,11.87 11.34,12.41 "/>
   <polygon class="fil13" points="14.03,13.49 17.27,13.49 17.27,12.95 16.19,12.95 15.65,12.95 15.11,12.95 14.57,12.95 14.03,12.95 "/>
   <polygon class="fil14" points="14.57,9.18 14.57,9.72 15.11,9.72 15.11,10.26 15.11,10.8 15.65,10.8 15.65,10.26 15.65,9.72 16.19,9.72 16.19,9.18 15.65,9.18 15.65,8.64 15.11,8.64 15.11,9.18 "/>
   <polygon class="fil14" points="18.35,10.26 18.35,10.8 18.89,10.8 18.89,11.34 18.89,11.87 19.97,11.87 19.97,11.34 19.43,11.34 19.43,10.8 19.43,9.72 18.89,9.72 18.89,10.26 "/>
   <polygon class="fil9" points="24.29,16.19 24.83,16.19 25.91,16.19 25.91,15.11 24.29,15.11 "/>
   <polygon class="fil1" points="22.67,23.21 22.67,23.64 25.37,23.64 25.37,23.21 25.37,22.99 23.21,22.99 23.21,23.21 "/>
   <polygon class="fil8" points="22.67,24.24 25.37,24.24 25.37,23.64 22.67,23.64 "/>
   <polygon class="fil5" points="26.45,21.05 27.53,21.05 28.07,21.05 28.61,21.05 29.15,21.05 29.15,20.51 26.45,20.51 "/>
   <polygon class="fil14" points="22.13,13.49 22.67,13.49 22.67,12.41 22.13,12.41 22.13,11.87 21.59,11.87 21.59,12.41 21.05,12.41 21.05,12.95 22.13,12.95 "/>
   <polygon class="fil5" points="10.79,11.87 11.34,11.87 13.49,11.87 13.49,11.34 10.8,11.34 "/>
   <polygon class="fil5" points="18.89,34.55 19.43,34.55 19.43,31.85 18.89,31.85 "/>
   <polygon class="fil5" points="12.41,34.55 12.95,34.55 12.95,31.85 12.41,31.85 "/>
   <polygon class="fil5" points="15.11,11.34 16.19,11.34 16.73,11.34 17.81,11.34 17.81,10.8 16.73,10.8 15.65,10.8 15.11,10.8 "/>
   <polygon class="fil15" points="19.43,16.73 22.13,16.73 22.13,16.19 19.43,16.19 "/>
   <polygon class="fil14" points="25.37,12.95 26.99,12.96 26.99,12.41 25.91,12.41 25.91,11.87 25.37,11.87 "/>
   <polygon class="fil12" points="13.49,11.34 13.49,11.87 14.03,11.87 14.57,11.87 14.57,11.34 15.11,11.34 15.11,10.8 14.03,10.79 14.03,11.34 "/>
   <polygon class="fil5" points="14.03,10.79 15.11,10.8 15.11,10.26 14.57,10.26 14.57,9.72 14.57,9.18 14.03,9.18 "/>
   <polygon class="fil5" points="24.83,19.43 24.83,19.97 24.83,20.51 25.91,20.51 25.91,19.97 25.37,19.97 25.37,19.43 25.37,18.89 24.83,18.89 "/>
   <polygon class="fil10" points="23.75,15.11 24.29,15.11 25.91,15.11 25.91,14.57 23.75,14.57 "/>
   <polygon class="fil5" points="26.45,24.29 25.91,24.29 25.91,24.83 27.53,24.83 27.53,24.24 27.53,23.75 26.99,23.75 26.99,24.29 "/>
   <polygon class="fil5" points="19.43,31.85 19.97,31.85 19.97,29.69 19.43,29.69 "/>
   <polygon class="fil14" points="19.97,8.1 19.97,8.64 21.05,8.64 21.05,8.1 21.59,8.1 21.59,7.56 20.51,7.56 20.51,8.1 "/>
   <polygon class="fil5" points="18.89,20.51 18.89,19.97 19.43,19.97 19.43,19.43 18.89,19.43 18.89,18.89 18.35,18.89 18.35,20.51 "/>
   <polygon class="fil16" points="18.35,16.19 18.89,16.19 19.43,16.19 19.43,15.11 18.35,15.11 "/>
   <polygon class="fil5" points="23.21,10.8 23.75,10.8 24.29,10.79 24.29,9.71 23.75,9.71 23.75,10.26 23.21,10.26 "/>
   <polygon class="fil17" points="10.79,14.04 11.34,14.03 11.33,14.57 11.87,14.57 11.87,13.49 10.8,13.49 "/>
   <polygon class="fil12" points="22.67,10.8 23.21,10.8 23.21,10.26 23.75,10.26 23.75,9.71 23.21,9.72 22.67,9.72 "/>
   <polygon class="fil5" points="16.19,20.51 16.73,20.51 16.73,18.89 16.19,18.89 "/>
   <polygon class="fil13" points="12.41,12.95 12.95,12.95 12.95,13.49 13.49,13.49 13.49,12.41 12.41,12.41 "/>
   <polygon class="fil18" points="18.89,20.51 19.43,20.51 19.43,21.05 19.97,21.05 19.97,19.97 19.43,19.97 18.89,19.97 "/>
   <polygon class="fil5" points="19.97,29.69 20.51,29.69 20.51,28.07 19.97,28.07 "/>
   <polygon class="fil18" points="22.13,20.51 22.13,21.05 23.21,21.05 23.21,19.97 22.67,19.97 22.67,20.51 "/>
   <polygon class="fil18" points="21.59,20.51 21.05,20.51 21.05,19.97 20.51,19.97 20.51,21.05 21.59,21.05 "/>
   <polygon class="fil5" points="23.21,19.97 23.21,21.05 23.75,21.05 23.75,20.51 23.75,19.97 23.75,19.43 23.21,19.43 "/>
   <polygon class="fil5" points="26.45,19.43 27.53,19.43 27.53,18.89 26.45,18.89 "/>
   <polygon class="fil5" points="10.79,20.51 10.8,19.97 9.71,19.97 9.71,20.51 "/>
   <polygon class="fil5" points="26.99,12.41 26.99,11.87 25.91,11.87 25.91,12.41 "/>
   <polygon class="fil5" points="29.15,16.73 29.15,16.19 28.07,16.19 28.07,16.73 "/>
   <polygon class="fil19" points="24.83,21.05 25.37,21.05 25.91,21.05 25.91,20.51 24.83,20.51 "/>
   <polygon class="fil14" points="22.13,10.26 22.13,10.8 22.67,10.8 22.67,9.72 22.13,9.72 "/>
   <polygon class="fil20" points="16.73,15.11 17.81,15.11 17.81,14.57 16.73,14.57 "/>
   <polygon class="fil5" points="15.11,21.05 14.03,21.05 14.03,21.59 15.11,21.59 "/>
   <polygon class="fil5" points="14.57,19.43 15.65,19.43 15.65,18.89 14.57,18.89 "/>
   <polygon class="fil14" points="17.27,13.49 18.35,13.49 18.35,12.95 17.81,12.95 17.27,12.95 "/>
   <polygon class="fil5" points="21.59,8.1 22.13,8.1 22.67,8.1 22.67,7.56 21.59,7.56 "/>
   <polygon class="fil5" points="23.75,29.69 24.29,29.69 24.29,28.61 23.75,28.61 "/>
   <polygon class="fil14" points="11.87,13.49 12.95,13.49 12.95,12.95 12.41,12.95 11.87,12.95 "/>
   <polygon class="fil21" points="24.83,21.59 24.83,22.13 25.37,22.13 25.37,21.59 25.37,21.05 24.83,21.05 "/>
   <polygon class="fil5" points="22.13,19.97 22.13,20.51 22.67,20.51 22.67,19.97 22.67,19.43 22.13,19.43 "/>
   <polygon class="fil5" points="22.67,23.21 23.21,23.21 23.21,22.99 23.21,22.13 22.67,22.13 "/>
   <polygon class="fil21" points="25.37,22.99 25.37,23.21 25.91,23.21 25.91,22.13 25.37,22.13 "/>
   <polygon class="fil5" points="21.05,19.97 21.05,20.51 21.59,20.51 21.59,19.97 21.59,19.43 21.05,19.43 "/>
   <polygon class="fil5" points="22.67,27.53 23.21,27.53 23.21,26.45 22.67,26.45 "/>
   <polygon class="fil5" points="15.65,8.1 16.19,8.1 16.73,8.1 16.73,7.56 15.65,7.56 "/>
   <polygon class="fil13" points="15.65,10.8 16.73,10.8 16.73,10.26 15.65,10.26 "/>
   <polygon class="fil5" points="23.75,29.69 22.67,29.69 22.67,30.23 23.75,30.23 "/>
   <polygon class="fil5" points="24.29,16.19 24.29,15.11 23.75,15.11 23.75,16.19 "/>
   <polygon class="fil5" points="11.34,18.89 11.87,18.89 11.87,18.35 11.87,17.81 11.34,17.81 "/>
   <polygon class="fil20" points="18.35,15.11 19.43,15.11 19.43,14.57 18.35,14.57 "/>
   <polygon class="fil7" points="14.03,21.05 15.11,21.05 15.11,20.51 14.03,20.51 "/>
   <polygon class="fil5" points="22.13,11.34 23.21,11.34 23.21,10.8 22.67,10.8 22.13,10.8 "/>
   <polygon class="fil16" points="25.91,16.19 26.45,16.19 26.45,15.11 25.91,15.11 "/>
   <polygon class="fil5" points="23.75,28.61 23.75,27.53 23.21,27.53 23.21,28.61 "/>
   <polygon class="fil5" points="23.21,9.18 23.21,9.72 23.75,9.71 23.75,8.64 23.21,8.64 "/>
   <polygon class="fil5" points="24.83,11.87 25.37,11.87 25.91,11.87 25.91,11.34 24.83,11.34 "/>
   <polygon class="fil5" points="22.13,16.19 22.13,16.73 22.67,16.73 22.67,15.65 22.13,15.65 "/>
   <polygon class="fil15" points="24.83,16.73 25.91,16.73 25.91,16.19 24.83,16.19 "/>
   <path class="fil5" d="M22.13 24.29c0.08,0 0.19,0.01 0.27,0 0.06,-0 0.09,-0 0.15,-0.01 0.12,-0.02 0.05,-0 0.12,-0.04l0 -0.59 0 -0.43 -0.54 0 0 1.08z"/>
   <polygon class="fil5" points="5.93,17.27 7.01,17.27 7.01,16.73 5.94,16.73 "/>
   <polygon class="fil5" points="4.85,17.81 5.93,17.81 5.93,17.27 4.86,17.27 "/>
   <path class="fil5" d="M25.37 23.64l0 0.59 0.08 0.03c0.07,0.02 0.05,0.02 0.14,0.02 0.09,0.01 0.23,-0 0.33,-0l0 -1.08 -0.54 0 0 0.43z"/>
   <polygon class="fil5" points="7.01,27.53 8.09,27.52 8.09,26.99 7.02,26.99 "/>
   <polygon class="fil5" points="9.17,26.45 10.25,26.44 10.25,25.91 9.18,25.91 "/>
   <polygon class="fil5" points="8.09,26.99 9.17,26.98 9.17,26.45 8.1,26.45 "/>
   <polygon class="fil5" points="26.99,12.96 27.53,12.96 27.53,12.41 26.99,12.41 "/>
   <polygon class="fil5" points="26.99,22.67 27.53,22.67 27.53,22.13 26.99,22.13 "/>
   <polygon class="fil5" points="24.29,11.34 24.83,11.34 24.83,10.79 24.29,10.79 "/>
   <polygon class="fil5" points="11.33,14.57 11.34,14.03 10.79,14.04 10.79,14.58 "/>
   <polygon class="fil5" points="25.91,19.97 26.45,19.97 26.45,19.43 25.91,19.43 "/>
   <polygon class="fil5" points="13.49,11.34 14.03,11.34 14.03,10.79 13.49,10.79 "/>
   <polygon class="fil19" points="28.61,21.59 29.15,21.59 29.15,21.05 28.61,21.05 "/>
   <polygon class="fil3" points="25.91,19.97 25.91,19.43 25.37,19.43 25.37,19.97 "/>
   <polygon class="fil21" points="26.99,22.13 27.53,22.13 27.53,21.59 26.99,21.59 "/>
   <polygon class="fil12" points="23.75,11.34 24.29,11.34 24.29,10.79 23.75,10.8 "/>
   <polygon class="fil18" points="10.8,12.41 11.34,12.41 11.34,11.87 10.79,11.87 "/>
   <polygon class="fil20" points="25.91,15.11 26.45,15.11 26.45,14.57 25.91,14.57 "/>
   <polygon class="fil19" points="26.45,22.67 26.99,22.67 26.99,22.13 26.45,22.13 "/>
   <polygon class="fil22" points="23.75,20.51 24.29,20.51 24.29,19.97 23.75,19.97 "/>
   <polygon class="fil21" points="25.91,21.05 26.45,21.05 26.45,20.51 25.91,20.51 "/>
   <polygon class="fil23" points="23.75,19.97 24.29,19.97 24.29,19.43 23.75,19.43 "/>
   <polygon class="fil18" points="21.59,19.43 22.13,19.43 22.13,18.89 21.59,18.89 "/>
   <polygon class="fil23" points="22.13,19.43 22.67,19.43 22.67,18.89 22.13,18.89 "/>
   <polygon class="fil23" points="24.29,19.43 24.83,19.43 24.83,18.89 24.29,18.89 "/>
   <polygon class="fil5" points="12.95,19.97 12.95,19.43 12.41,19.43 12.41,19.97 "/>
   <polygon class="fil7" points="12.95,19.97 13.49,19.97 13.49,19.43 12.95,19.43 "/>
   <polygon class="fil23" points="19.43,19.97 19.97,19.97 19.97,19.43 19.43,19.43 "/>
   <polygon class="fil23" points="22.67,19.97 23.21,19.97 23.21,19.43 22.67,19.43 "/>
   <polygon class="fil5" points="13.49,20.51 13.49,19.97 12.95,19.97 12.95,20.51 "/>
   <polygon class="fil18" points="21.59,20.51 22.13,20.51 22.13,19.97 21.59,19.97 "/>
   <polygon class="fil13" points="18.89,8.1 19.43,8.1 19.43,7.56 18.89,7.56 "/>
   <polygon class="fil5" points="23.75,21.59 24.29,21.59 24.29,21.05 23.75,21.05 "/>
   <polygon class="fil10" points="24.29,21.59 24.83,21.59 24.83,21.05 24.29,21.05 "/>
   <polygon class="fil5" points="25.37,21.59 25.91,21.59 25.91,21.05 25.37,21.05 "/>
   <polygon class="fil21" points="27.53,21.59 28.07,21.59 28.07,21.05 27.53,21.05 "/>
   <polygon class="fil18" points="19.97,8.1 20.51,8.1 20.51,7.56 19.97,7.56 "/>
   <polygon class="fil13" points="16.73,8.1 17.27,8.1 17.27,7.56 16.73,7.56 "/>
   <polygon class="fil5" points="15.11,8.64 15.65,8.64 15.65,8.1 15.11,8.1 "/>
   <polygon class="fil14" points="17.27,8.64 17.27,8.1 16.73,8.1 16.73,8.64 "/>
   <polygon class="fil13" points="21.05,8.64 21.59,8.64 21.59,8.1 21.05,8.1 "/>
   <polygon class="fil18" points="21.59,8.64 22.13,8.64 22.13,8.1 21.59,8.1 "/>
   <polygon class="fil9" points="22.13,8.64 22.67,8.64 22.67,8.1 22.13,8.1 "/>
   <polygon class="fil5" points="22.67,8.64 23.21,8.64 23.21,8.1 22.67,8.1 "/>
   <polygon class="fil13" points="16.19,9.72 16.73,9.72 16.73,9.18 16.19,9.18 "/>
   <polygon class="fil18" points="17.81,9.72 17.81,9.18 17.27,9.18 17.27,9.72 "/>
   <polygon class="fil9" points="17.81,9.72 18.35,9.72 18.35,9.18 17.81,9.18 "/>
   <polygon class="fil14" points="22.13,9.72 22.13,9.18 21.59,9.18 21.59,9.72 "/>
   <polygon class="fil6" points="22.13,9.72 22.67,9.72 22.67,9.18 22.13,9.18 "/>
   <polygon class="fil14" points="22.67,9.72 23.21,9.72 23.21,9.18 22.67,9.18 "/>
   <polygon class="fil18" points="18.35,10.26 18.35,9.72 17.81,9.72 17.81,10.26 "/>
   <polygon class="fil6" points="15.11,10.26 15.11,9.72 14.57,9.72 14.57,10.26 "/>
   <polygon class="fil18" points="19.97,10.8 20.51,10.8 20.51,10.26 19.97,10.26 "/>
   <polygon class="fil13" points="21.59,10.8 22.13,10.8 22.13,10.26 21.59,10.26 "/>
   <polygon class="fil18" points="19.97,11.87 20.51,11.87 20.51,11.34 19.97,11.34 "/>
   <polygon class="fil19" points="26.45,24.29 26.99,24.29 26.99,23.75 26.45,23.75 "/>
   <polygon class="fil14" points="16.73,11.34 16.19,11.34 16.19,11.87 16.73,11.87 "/>
   <polygon class="fil23" points="21.59,19.97 22.13,19.97 22.13,19.43 21.59,19.43 "/>
   <polygon class="fil7" points="11.87,24.83 11.87,24.29 11.34,24.29 11.34,24.83 "/>
   <polygon class="fil6" points="23.75,11.87 24.29,11.87 24.29,11.34 23.75,11.34 "/>
   <polygon class="fil12" points="24.29,11.87 24.83,11.87 24.83,11.34 24.29,11.34 "/>
   <polygon class="fil14" points="17.81,12.41 18.35,12.41 18.35,11.87 17.81,11.87 "/>
   <polygon class="fil18" points="22.67,12.41 23.21,12.41 23.21,11.87 22.67,11.87 "/>
   <polygon class="fil18" points="23.75,12.41 24.29,12.41 24.29,11.87 23.75,11.87 "/>
   <polygon class="fil18" points="14.57,12.95 15.11,12.95 15.11,12.41 14.57,12.41 "/>
   <polygon class="fil13" points="17.81,12.95 18.35,12.95 18.35,12.41 17.81,12.41 "/>
   <polygon class="fil6" points="11.87,12.95 12.41,12.95 12.41,12.41 11.87,12.41 "/>
   <polygon class="fil9" points="15.11,12.95 15.65,12.95 15.65,12.41 15.11,12.41 "/>
   <polygon class="fil18" points="19.97,13.49 20.51,13.49 20.51,12.95 19.97,12.95 "/>
   <polygon class="fil14" points="24.83,13.49 25.37,13.49 25.37,12.95 24.83,12.95 "/>
   <polygon class="fil5" points="22.13,29.15 22.13,28.61 21.59,28.61 21.59,29.15 "/>
   <polygon class="fil5" points="12.41,17.27 12.95,17.27 12.95,16.73 12.41,16.73 "/>
   <polygon class="fil5" points="22.67,29.69 22.67,29.15 22.13,29.15 22.13,29.69 "/>
   <polygon class="fil7" points="11.34,17.81 11.87,17.81 11.87,17.27 11.34,17.27 "/>
   <polygon class="fil7" points="12.95,17.81 12.95,17.27 12.41,17.27 12.41,17.81 "/>
   <polygon class="fil5" points="12.95,17.81 13.49,17.81 13.49,17.27 12.95,17.27 "/>
   <polygon class="fil7" points="13.49,18.35 13.49,17.81 12.95,17.81 12.95,18.35 "/>
   <polygon class="fil18" points="15.11,12.41 15.65,12.41 15.65,11.87 15.11,11.87 "/>
   <polygon class="fil7" points="11.87,19.43 11.87,18.89 11.34,18.89 11.34,19.43 "/>
   <polygon class="fil7" points="14.57,19.43 14.57,18.89 14.03,18.89 14.03,19.43 "/>
   <polygon class="fil5" points="11.87,19.43 12.41,19.43 12.41,18.89 11.87,18.89 "/>
   <polygon class="fil7" points="12.41,19.43 12.95,19.43 12.95,18.89 12.41,18.89 "/>
   <polygon class="fil23" points="19.43,19.43 19.43,18.89 18.89,18.89 18.89,19.43 "/>
   <polygon class="fil23" points="19.97,19.43 20.51,19.43 20.51,18.89 19.97,18.89 "/>
   <polygon class="fil23" points="21.05,19.43 21.59,19.43 21.59,18.89 21.05,18.89 "/>
   <polygon class="fil5" points="23.21,22.13 23.75,22.13 23.75,21.59 23.21,21.59 "/>
   <polygon class="fil5" points="14.57,9.18 15.11,9.18 15.11,8.64 14.57,8.64 "/>
   <polygon class="fil17" points="25.37,13.49 25.37,14.03 25.91,14.03 25.91,13.49 "/>
   <polygon class="fil14" points="18.35,12.95 18.89,12.95 18.89,12.41 18.35,12.41 "/>
   <polygon class="fil18" points="15.65,12.95 16.19,12.95 16.19,12.41 15.65,12.41 "/>
   <polygon class="fil5" points="13.49,18.35 14.03,18.35 14.03,17.81 13.49,17.81 "/>
   <polygon class="fil18" points="23.75,12.41 23.21,12.41 23.21,12.95 23.75,12.95 "/>
   <polygon class="fil18" points="17.81,9.18 18.35,9.18 18.35,8.64 17.81,8.64 "/>
   <polygon class="fil23" points="20.51,19.97 21.05,19.97 21.05,19.43 20.51,19.43 "/>
   <polygon class="fil18" points="15.65,8.64 16.19,8.64 16.19,8.1 15.65,8.1 "/>
   <polygon class="fil14" points="18.89,8.1 18.89,7.56 18.35,7.56 18.35,8.1 "/>
   <polygon class="fil7" points="11.87,18.89 12.41,18.89 12.41,18.35 11.87,18.35 "/>
   <polygon class="fil5" points="14.03,18.89 14.57,18.89 14.57,18.35 14.03,18.35 "/>
   <polygon class="fil19" points="25.91,21.59 26.45,21.59 26.45,21.05 25.91,21.05 "/>
   <polygon class="fil9" points="23.21,12.41 23.75,12.41 23.75,11.87 23.21,11.87 "/>
   <polygon class="fil5" points="26.45,23.75 26.99,23.75 26.99,23.64 26.99,23.21 26.45,23.21 "/>
   <polygon class="fil14" points="13.49,12.41 14.03,12.41 14.03,11.87 13.49,11.87 "/>
   <polygon class="fil6" points="18.35,10.26 18.89,10.26 18.89,9.72 18.35,9.72 "/>
   <polygon class="fil18" points="23.21,11.87 23.75,11.87 23.75,11.34 23.21,11.34 "/>
   <polygon class="fil5" points="16.73,18.89 17.27,18.89 17.27,18.35 16.73,18.35 "/>
   <polygon class="fil11" points="28.07,21.59 28.61,21.59 28.61,21.05 28.07,21.05 "/>
   <polygon class="fil7" points="13.49,20.51 14.03,20.51 14.03,19.97 13.49,19.97 "/>
   <polygon class="fil14" points="22.13,11.34 22.13,10.8 21.59,10.8 21.59,11.34 "/>
   <polygon class="fil9" points="19.97,11.34 20.51,11.34 20.51,10.8 19.97,10.8 "/>
   <polygon class="fil23" points="23.21,19.43 23.75,19.43 23.75,18.89 23.21,18.89 "/>
   <polygon class="fil14" points="17.81,11.34 18.35,11.34 18.35,10.8 17.81,10.8 "/>
   <polygon class="fil3" points="23.21,21.59 23.75,21.59 23.75,21.05 23.21,21.05 "/>
   <polygon class="fil5" points="19.43,21.05 19.43,20.51 18.89,20.51 18.89,21.05 "/>
   <polygon class="fil5" points="22.67,26.45 22.67,25.91 22.13,25.91 22.13,26.45 "/>
   <polygon class="fil18" points="19.97,11.34 19.97,10.8 19.43,10.8 19.43,11.34 "/>
   <polygon class="fil18" points="18.35,9.72 18.89,9.72 18.89,9.18 18.35,9.18 "/>
   <polygon class="fil6" points="22.67,9.18 23.21,9.18 23.21,8.64 22.67,8.64 "/>
   <polygon class="fil18" points="22.13,9.18 22.67,9.18 22.67,8.64 22.13,8.64 "/>
   <polygon class="fil12" points="21.59,9.18 22.13,9.18 22.13,8.64 21.59,8.64 "/>
   <polygon class="fil14" points="17.27,9.18 17.81,9.18 17.81,8.64 17.27,8.64 "/>
   <polygon class="fil7" points="14.03,18.89 14.03,18.35 13.49,18.35 13.49,18.89 "/>
   <polygon class="fil6" points="23.21,11.34 23.75,11.34 23.75,10.8 23.21,10.8 "/>
   <polygon class="fil5" points="18.35,11.34 18.89,11.34 18.89,10.8 18.35,10.8 "/>
   <polygon class="fil18" points="20.51,11.34 21.05,11.34 21.05,10.8 20.51,10.8 "/>
   <polygon class="fil5" points="14.03,21.05 14.03,20.51 13.49,20.51 13.49,21.05 "/>
   <polygon class="fil10" points="24.29,19.97 24.83,19.97 24.83,19.43 24.29,19.43 "/>
   <polygon class="fil20" points="24.29,20.51 24.83,20.51 24.83,19.97 24.29,19.97 "/>
   <polygon class="fil21" points="24.29,21.05 24.83,21.05 24.83,20.51 24.29,20.51 "/>
   <polygon class="fil21" points="26.45,23.21 26.99,23.21 26.99,22.97 26.99,22.67 26.45,22.67 "/>
   <polygon class="fil10" points="23.75,21.05 24.29,21.05 24.29,20.51 23.75,20.51 "/>
   <polygon class="fil5" points="29.69,17.27 29.69,16.73 29.15,16.73 29.15,17.27 "/>
   <polygon class="fil24" points="18.89,16.73 19.43,16.73 19.43,16.19 18.89,16.19 "/>
   <polygon class="fil24" points="25.91,16.73 26.45,16.73 26.45,16.19 25.91,16.19 "/>
   <polygon class="fil5" points="17.27,18.35 17.81,18.35 17.82,17.82 17.27,17.82 "/>
   <polygon class="fil5" points="18.89,16.73 18.89,16.19 18.35,16.19 18.35,16.73 "/>
   <polygon class="fil5" points="24.83,16.73 24.83,16.19 24.29,16.19 24.29,16.73 "/>
   <polygon class="fil5" points="4.31,18.35 4.85,18.35 4.85,17.81 4.32,17.81 "/>
   <polygon class="fil5" points="3.77,18.89 4.31,18.89 4.31,18.35 3.78,18.35 "/>
   <polygon class="fil5" points="6.47,28.07 7.01,28.06 7.01,27.53 6.48,27.53 "/>
   <polygon class="fil5" points="5.93,28.6 6.47,28.6 6.47,28.07 5.94,28.07 "/>
  </g>
 </g>
</svg>
