<?xml version="1.0" encoding="UTF-8"?>
<!DOCTYPE svg PUBLIC "-//W3C//DTD SVG 1.1//EN" "http://www.w3.org/Graphics/SVG/1.1/DTD/svg11.dtd">
<!-- Creator: CorelDRAW 2020 (64-Bit) -->
<svg xmlns="http://www.w3.org/2000/svg" xml:space="preserve" width="13.2292mm" height="13.2292mm" version="1.1" style="shape-rendering:geometricPrecision; text-rendering:geometricPrecision; image-rendering:optimizeQuality; fill-rule:evenodd; clip-rule:evenodd"
viewBox="0 0 26.13 26.13"
 xmlns:xlink="http://www.w3.org/1999/xlink"
 xmlns:xodm="http://www.corel.com/coreldraw/odm/2003">
 <defs>
  <style type="text/css">
   <![CDATA[
    .fil24 {fill:#0E0000}
    .fil6 {fill:#21181B}
    .fil7 {fill:#2C354D}
    .fil17 {fill:#3A3F5E}
    .fil3 {fill:#404972}
    .fil16 {fill:#4C6885}
    .fil13 {fill:#4F1D4C}
    .fil5 {fill:#4FA4B8}
    .fil2 {fill:#73EDB0}
    .fil10 {fill:#781D4F}
    .fil1 {fill:#8AFAC2}
    .fil23 {fill:#95381C}
    .fil21 {fill:#AB5130}
    .fil0 {fill:#ACFAD9}
    .fil19 {fill:#B68316}
    .fil18 {fill:#CA3800}
    .fil12 {fill:#CE742B}
    .fil20 {fill:#CE8104}
    .fil4 {fill:#DFE0E7}
    .fil11 {fill:#ECC768}
    .fil9 {fill:#EFB541}
    .fil8 {fill:#F59B08}
    .fil14 {fill:#F5FFE8}
    .fil22 {fill:#FF6C10}
    .fil15 {fill:#FFEE83}
   ]]>
  </style>
 </defs>
 <g id="Layer_x0020_1">
  <metadata id="CorelCorpID_0Corel-Layer"/>
  <g id="_2002154833040">
   <path class="fil0" d="M-0 6.57l11.02 0 0.41 -0.04 -0 -0.41 0.41 0 0 -0.41 0.82 0 0 -0.41 3.67 0 -0 0.41 0.82 -0 0 0.41 0.41 0 0 0.41c0.06,0 0.15,-0.01 0.21,-0 0.04,0 0.07,0 0.11,0.01 0.09,0.02 0.04,0 0.09,0.03l8.17 0 0 -6.57 -26.13 0 0 6.57z"/>
   <polygon class="fil1" points="-0,17.88 8.17,17.88 8.17,15.51 7.35,15.51 7.35,15.11 2.45,15.11 2.45,14.29 2.86,14.29 2.86,13.88 3.27,13.88 3.27,13.47 3.67,13.47 3.67,13.06 4.49,13.06 4.49,12.66 5.31,12.66 5.31,12.25 8.57,12.25 8.58,11.02 8.16,11.02 8.17,10.61 7.76,10.61 7.76,8.98 8.17,8.98 8.17,8.57 10.21,8.57 10.21,8.45 -0,8.45 "/>
   <polygon class="fil2" points="19.6,20 19.6,20.21 19.39,20.21 19.39,20.41 19.19,20.41 19.19,20.62 18.78,20.62 18.78,20.82 18.57,20.82 18.58,21.03 18.37,21.03 18.37,21.23 17.96,21.23 17.96,21.64 18.37,21.64 18.37,22.45 17.96,22.45 17.96,22.86 17.15,22.86 17.15,22.45 16.74,22.45 16.74,22.05 16.33,22.05 16.33,22.45 15.92,22.45 15.92,26.13 26.13,26.13 26.13,19.76 20,19.76 20,20 "/>
   <polygon class="fil1" points="18.78,8.57 19.6,8.57 19.6,8.98 20.41,8.98 20.41,9.39 20.82,9.39 20.82,9.8 20.41,9.8 20.41,10.21 20,10.21 20,11.02 20.41,11.02 20.41,11.84 21.23,11.84 21.23,12.25 22.05,12.25 22.05,12.66 22.45,12.66 22.45,13.06 22.86,13.06 22.86,13.88 21.23,13.88 21.23,14.29 20.82,14.29 20.82,14.7 20,14.7 20,15.51 19.6,15.51 19.6,15.92 18.37,15.92 18.37,16.33 18.58,16.33 18.58,16.53 18.78,16.53 18.78,16.94 18.98,16.94 18.98,17.15 19.19,17.15 19.19,17.35 19.39,17.35 19.39,17.56 19.8,17.56 19.8,17.76 20,17.76 20,17.88 26.13,17.88 26.13,8.45 18.78,8.45 "/>
   <polygon class="fil2" points="-0,26.13 8.17,26.13 8.17,22.86 7.35,22.86 7.35,22.45 4.08,22.45 4.08,21.64 4.49,21.64 4.49,21.23 4.9,21.23 4.9,20.82 5.31,20.82 5.31,20.41 6.12,20.41 6.12,20 6.53,20 6.53,19.76 -0,19.76 "/>
   <polygon class="fil3" points="7.35,19.19 7.35,19.6 6.94,19.6 6.94,20.41 7.35,20.41 7.35,20.82 7.76,20.82 7.76,21.23 8.17,21.23 8.17,20.82 8.57,20.82 8.57,20.41 8.98,20.41 8.98,22.45 9.39,22.45 9.39,24.5 9.8,24.5 9.8,25.72 10.21,25.72 10.21,26.13 15.51,26.13 15.51,21.23 15.92,21.23 15.92,22.05 16.33,22.05 16.33,21.64 16.74,21.64 16.74,21.43 16.53,21.43 16.33,21.43 16.33,20.82 16.13,20.82 16.13,20.41 15.51,20.41 15.51,20.82 12.66,20.82 12.66,20.41 11.84,20.41 11.84,20 10.61,20 10.61,19.6 9.8,19.6 9.8,19.19 8.98,19.19 8.98,18.78 8.16,18.78 8.16,19.19 "/>
   <polygon class="fil4" points="13.06,13.88 13.06,14.29 12.66,14.29 12.66,15.51 12.25,15.51 12.25,19.19 13.06,19.19 13.06,19.6 15.51,19.6 15.51,19.19 15.92,19.19 15.92,17.15 14.7,17.15 14.7,16.74 14.29,16.74 14.29,16.33 13.88,16.33 13.88,15.11 14.29,15.11 14.29,14.7 14.7,14.7 14.7,14.29 19.19,14.29 19.19,14.7 19.6,14.7 19.6,14.29 20,14.29 20,13.88 20.41,13.88 20.41,13.47 13.47,13.47 13.47,13.88 "/>
   <polygon class="fil5" points="4.9,13.47 4.49,13.47 4.49,13.88 4.08,13.88 3.67,13.88 3.67,14.28 3.26,14.29 3.26,14.7 7.35,14.7 7.35,15.11 8.17,15.11 8.17,15.51 8.57,15.51 8.57,17.15 8.98,17.15 8.98,17.56 9.39,17.56 9.39,17.96 10.21,17.96 10.21,18.37 11.02,18.37 11.02,17.96 11.03,17.55 10.62,17.55 10.62,16.73 9.8,16.73 9.8,15.92 9.39,15.92 9.39,15.51 8.99,15.51 8.98,14.7 8.58,14.69 8.58,14.29 8.57,13.88 8.98,13.88 9.39,13.88 9.39,14.29 9.79,14.29 9.8,14.7 10.2,14.7 10.21,15.11 10.61,15.11 10.61,15.52 11.43,15.52 11.43,15.92 11.84,15.93 11.84,15.51 11.84,15.1 11.03,15.1 11.02,14.7 10.62,14.69 10.62,14.29 10.21,14.28 10.21,13.88 9.8,13.88 9.8,13.47 9.39,13.47 9.39,13.06 7.76,13.06 5.31,13.06 5.3,13.47 "/>
   <path class="fil6" d="M8.98 11.02l2.86 0 0.82 0 0.82 0 0 0.41 -0.82 0 -0.82 0 -2.86 -0 -0 -0.41zm10.21 -0.81l0.4 0 -0 0.39 -0.39 0 -0.01 -0.4zm0 0l-0.41 -0 -1.64 0 -0.4 0 -1.23 0 -0.41 0 -1.23 -0 -0.81 0 -2.45 0 -0.41 0 -0.41 -0 -0.82 0 -0 0.81 -0.4 0 -0 1.23 0.41 0 0 -0.41 0.41 0 0.81 0 3.27 -0 0 0.41 0.41 0 0 -1.23 0.82 0 2.04 0 0.41 0 0 0.82 0.41 0 0 -0.41 0.41 0 0 -0.41 2.04 0 0 -0.82 0.41 0 -0 -0.41 -1.22 0 0 0.41z"/>
   <polygon class="fil5" points="13.06,6.13 13.06,6.53 13.47,6.53 13.88,6.53 13.88,6.94 14.29,6.94 14.29,7.35 14.69,7.35 14.69,8.17 15.11,8.17 15.11,7.76 15.51,7.76 15.51,8.17 15.92,8.17 15.92,8.57 15.51,8.57 15.51,8.98 15.1,8.98 14.29,8.98 14.29,8.57 13.88,8.57 13.47,8.57 12.65,8.57 12.65,8.98 12.25,8.98 12.25,8.57 11.43,8.57 11.02,8.57 11.02,8.98 10.61,8.98 10.61,9.39 10.21,9.39 10.21,10.21 10.61,10.21 10.61,9.8 11.02,9.8 11.02,9.39 11.43,9.39 11.43,8.98 11.84,8.98 11.84,9.39 12.25,9.39 12.25,9.8 13.07,9.8 13.47,9.8 13.47,9.39 13.48,8.99 13.88,8.99 13.88,9.39 14.28,9.39 14.28,9.79 13.88,9.8 13.88,10.21 15.11,10.21 15.11,9.8 15.51,9.8 15.51,10.21 16.74,10.21 16.74,9.79 15.93,9.79 15.93,9.39 16.33,9.39 16.33,8.99 16.73,8.99 16.73,9.39 17.14,9.39 17.15,8.98 17.56,8.98 17.56,8.57 16.74,8.57 16.33,8.57 16.33,8.17 16.33,7.76 16.74,7.76 16.74,7.35 16.33,7.34 16.33,6.94 16.33,6.53 15.92,6.53 15.11,6.53 15.11,6.13 15.11,5.72 14.7,5.72 14.7,6.12 14.29,6.12 13.88,6.12 13.88,5.72 13.06,5.72 "/>
   <polygon class="fil7" points="6.94,21.23 7.35,21.23 7.35,22.45 8.17,22.45 8.17,21.64 8.57,21.64 8.57,26.13 10.21,26.13 10.21,25.72 9.8,25.72 9.8,24.5 9.39,24.5 9.39,22.45 8.98,22.45 8.98,20.41 8.57,20.41 8.57,20.82 8.17,20.82 8.17,21.23 7.76,21.23 7.76,20.82 7.35,20.82 7.35,20.41 6.94,20.41 "/>
   <polygon class="fil5" points="10.21,12.66 10.61,12.66 10.61,13.07 11.02,13.07 11.02,13.48 11.43,13.48 11.43,13.88 12.65,13.88 13.06,13.88 13.06,13.47 13.06,13.06 13.47,13.06 13.47,12.66 13.88,12.66 13.88,12.25 13.47,12.25 13.47,11.84 10.2,11.84 "/>
   <polygon class="fil1" points="-0,7.06 10.61,7.06 10.61,6.94 11.02,6.94 11.02,6.57 -0,6.57 "/>
   <polygon class="fil1" points="-0,8 10.61,8 10.61,7.51 -0,7.51 "/>
   <polygon class="fil0" points="-0,7.51 10.61,7.51 10.61,7.06 -0,7.06 "/>
   <polygon class="fil0" points="-0,8.45 10.21,8.45 10.21,8.17 10.61,8.17 10.61,8 -0,8 "/>
   <polygon class="fil6" points="13.47,13.06 13.47,13.47 20.41,13.47 20.41,13.06 20,13.06 20,12.66 19.6,12.66 18.78,12.66 18.78,13.06 16.74,13.06 16.74,12.66 15.92,12.66 15.1,12.66 14.29,12.66 14.29,13.06 "/>
   <polygon class="fil1" points="17.96,7.06 26.13,7.06 26.13,6.57 17.96,6.57 "/>
   <path class="fil1" d="M-0 18.82l7.35 0c0.11,-0.07 0.65,-0.04 0.82,-0.04l0 -0.45 -8.17 0 0 0.49z"/>
   <path class="fil8" d="M17.76 18.98l-0 0.2 -0.61 0 -0 -0.2 -0.2 -0 0 -1.02 0.2 0 0 -0.2 0.61 0 0 0.2 0.2 0 -0 0.2 0.2 -0 0 0.61 -0.2 0 0 0.2 -0.2 0zm-1.84 -2.65l0.2 0 0 0.2 0.2 0 0 0.2 0.2 0 0 0.82 0.2 0 -0 1.02 -0 0.62 0.2 0 0 0.2 0.2 0 0 0.2 -0.2 0 -0.41 0 0 0.2 0.2 0 0 0.2 0.41 0 0 -0.2 1.02 0 0 -0.2 0.41 0 0 -0.2 0.2 0 0 -0.2c-0.52,0 0.11,-0.2 -0.41,-0.2l0 -1.22 0.2 0 0 -0.2 0.2 0 0 -0.2 0 -0.21 -0.21 -0 0 0.21 -0.2 0 0 0.2 -0.61 0 -0.2 0 0 -0.2 -0.2 0 0 -0.2 -0.2 0 0 -0.41 -0.2 0 0 -0.41 0.2 0 0 -0.2 0.2 0 0.61 0 0 -0.2 -1.22 0 0 0.2 -0.82 0 0 0.2z"/>
   <polygon class="fil1" points="18.37,8 26.13,8 26.13,7.51 18.37,7.51 "/>
   <polygon class="fil2" points="-0,18.33 8.17,18.33 8.17,17.88 -0,17.88 "/>
   <polygon class="fil0" points="17.96,7.35 18.37,7.35 18.37,7.51 26.13,7.51 26.13,7.06 17.96,7.06 "/>
   <polygon class="fil0" points="18.37,8.17 18.78,8.17 18.78,8.45 26.13,8.45 26.13,8 18.37,8 "/>
   <polygon class="fil1" points="-0,19.76 6.53,19.76 6.53,19.6 6.94,19.6 6.94,19.27 -0,19.27 "/>
   <polygon class="fil2" points="-0,19.27 6.94,19.27 6.94,19.19 7.35,19.19 7.35,18.82 -0,18.82 "/>
   <polygon class="fil1" points="11.02,17.96 11.43,17.96 11.43,17.14 11.84,17.14 11.84,15.93 11.43,15.92 11.43,16.33 10.61,16.33 10.61,15.92 10.2,15.92 10.21,15.51 9.8,15.52 9.8,15.11 9.39,15.11 9.39,14.7 8.98,14.7 8.99,15.51 9.39,15.51 9.39,15.92 9.8,15.92 9.8,16.73 10.62,16.73 10.62,17.55 11.03,17.55 "/>
   <polygon class="fil1" points="20,19.59 20,19.76 26.13,19.76 26.13,19.27 20.21,19.27 20.21,19.6 "/>
   <path class="fil1" d="M20.21 18.82l5.92 0 0 -0.49 -6.12 0c0.04,0.03 0,0.02 0.09,0.04 0.04,0.01 0.08,0 0.12,0l0 0.45z"/>
   <polygon class="fil2" points="20,18.33 26.13,18.33 26.13,17.88 20,17.88 "/>
   <polygon class="fil2" points="20.21,19.27 26.13,19.27 26.13,18.82 20.21,18.82 "/>
   <polygon class="fil9" points="15.1,12.66 15.92,12.66 15.92,12.25 16.33,12.25 16.33,11.43 16.74,11.43 16.74,11.02 14.7,11.02 14.69,12.25 15.1,12.25 "/>
   <polygon class="fil9" points="17.96,11.43 18.37,11.43 18.37,12.25 18.78,12.25 18.78,12.66 19.6,12.66 19.6,12.25 20,12.25 20,11.02 17.96,11.02 "/>
   <polygon class="fil10" points="15.51,15.11 15.51,15.51 15.51,15.92 16.74,15.92 16.74,15.72 18.37,15.72 18.37,15.51 18.78,15.51 18.78,15.11 18.37,15.11 18.37,14.7 17.96,14.7 17.96,15.11 17.96,15.51 17.56,15.51 17.56,15.11 17.15,15.11 17.15,14.7 16.74,14.7 16.74,15.11 16.74,15.51 16.33,15.51 16.33,15.11 15.92,15.11 15.92,14.7 15.51,14.7 "/>
   <polygon class="fil1" points="10.21,13.06 10.21,13.47 10.62,13.47 10.61,13.88 11.02,13.88 11.02,14.29 11.84,14.29 11.84,14.7 11.02,14.7 11.03,15.1 11.84,15.1 11.84,15.51 12.25,15.51 12.25,14.29 12.66,14.29 12.65,13.88 11.43,13.88 11.43,13.48 11.02,13.48 11.02,13.07 10.61,13.07 10.61,12.66 10.21,12.66 "/>
   <polygon class="fil6" points="7.35,15.11 7.35,14.7 3.26,14.7 2.86,14.7 2.86,14.29 2.45,14.29 2.45,15.11 "/>
   <polygon class="fil6" points="7.35,22.45 7.35,22.86 8.17,22.86 8.17,26.13 8.57,26.13 8.57,21.64 8.17,21.64 8.17,22.45 "/>
   <polygon class="fil6" points="15.51,26.13 15.92,26.13 15.92,22.45 16.33,22.45 16.33,22.05 15.92,22.05 15.92,21.23 15.51,21.23 "/>
   <polygon class="fil5" points="11.84,6.53 11.84,6.94 12.25,6.94 12.66,6.94 12.66,7.35 12.25,7.35 11.84,7.34 11.84,7.76 12.66,7.76 12.66,8.17 13.47,8.17 13.88,8.17 13.88,7.76 13.47,7.76 13.47,7.35 13.06,7.35 13.07,6.94 13.06,6.53 12.66,6.53 12.66,6.13 12.25,6.12 12.25,6.53 "/>
   <polygon class="fil7" points="8.98,18.78 9.8,18.78 9.8,19.19 10.61,19.19 10.61,19.6 11.84,19.6 11.84,19.19 11.02,19.19 11.02,18.78 10.21,18.78 10.21,18.37 9.39,18.37 9.39,17.96 8.98,17.96 8.98,17.56 8.57,17.56 8.57,18.37 8.98,18.37 "/>
   <polygon class="fil3" points="11.84,19.6 11.84,20 12.66,20 12.66,20.41 15.51,20.41 15.51,20 13.06,20 13.06,19.6 12.25,19.6 12.25,19.19 11.84,19.19 "/>
   <polygon class="fil6" points="14.7,14.7 15.51,14.7 15.92,14.7 16.74,14.7 17.15,14.7 17.96,14.7 18.37,14.7 19.19,14.7 19.19,14.29 14.7,14.29 "/>
   <polygon class="fil6" points="11.84,15.93 11.84,17.14 11.84,18.78 11.02,18.78 11.02,19.19 11.84,19.19 12.25,19.19 12.25,15.51 11.84,15.51 "/>
   <polygon class="fil6" points="4.9,22.05 4.49,22.05 4.49,21.64 4.08,21.64 4.08,22.45 7.35,22.45 7.35,21.23 6.94,21.23 6.94,22.05 "/>
   <path class="fil6" d="M14.7 16.74l0 0.41 1.22 0 -0 2.04 -0.41 0 -0 0.41 0.41 -0 0 0.41 -0.41 -0 0 0.41 0.61 0 0 -3.68 -0.21 0 0 -0.21 -0.61 0 0 -0.21 -0.2 0c0,0.52 -0.2,-0.11 -0.2,0.41l-0.2 -0z"/>
   <path class="fil11" d="M19.39 18.98l0 0.2 -0.2 0 0 0.2 -0.2 0 0 0.2 -0.2 0 0 0.2 -0.2 0 0 0.2 -0.41 0 0 0.2 -0.61 0 0 0.2 -0.2 0 0 0.2 0 0.2 0.2 0 0 0.2 0.2 0 0 -0.2 0.41 -0 0 -0.2 0.41 -0 0 -0.2 0.2 -0 0 -0.2 0.41 -0 0 -0.2 0.2 -0 0 -0.2 0.2 -0 0 -0.2 0.2 -0 -0 -0.21 0.21 0 0 -0.81 -0.2 0c0,0.52 -0.2,-0.11 -0.2,0.41l-0.2 0z"/>
   <polygon class="fil5" points="17.96,9.39 17.96,9.8 17.56,9.8 17.56,9.39 17.14,9.39 17.14,10.21 18.78,10.21 18.78,9.8 19.19,9.8 19.19,8.98 18.78,8.98 18.37,8.98 18.37,9.39 "/>
   <polygon class="fil5" points="5.72,21.23 5.31,21.23 5.3,21.63 4.9,21.64 4.9,22.05 6.94,22.05 6.94,21.23 6.53,21.23 6.53,20.82 6.12,20.82 6.12,21.22 "/>
   <polygon class="fil6" points="8.17,17.88 8.17,18.33 8.16,18.78 8.98,18.78 8.98,18.37 8.57,18.37 8.57,17.56 8.98,17.56 8.98,17.15 8.57,17.15 8.57,15.51 8.17,15.51 "/>
   <polygon class="fil6" points="12.66,5.72 13.06,5.72 13.88,5.72 14.29,5.72 14.7,5.72 15.11,5.72 15.52,5.72 16.33,5.72 16.33,5.31 12.66,5.31 "/>
   <polygon class="fil6" points="5.31,12.66 7.76,12.66 8.57,12.66 8.57,12.25 5.31,12.25 "/>
   <polygon class="fil6" points="20.41,13.47 20.41,13.88 20.82,13.88 20.82,14.29 21.23,14.29 21.23,13.88 22.86,13.88 22.86,13.06 22.45,13.06 22.45,13.47 "/>
   <polygon class="fil12" points="13.88,12.25 14.29,12.25 14.29,12.66 15.1,12.66 15.1,12.25 14.69,12.25 14.7,11.02 13.88,11.02 "/>
   <path class="fil13" d="M14.29 15.51l0.41 0 0 0.41 -0.41 0 0 0.41 0.41 0 0 0.41 0.2 0c0,-0.52 0.2,0.11 0.2,-0.41l0.2 -0 0 -0.2 0.2 -0 0 -0.2 0 -0.41 -0.41 0 0 -0.41 -0.41 0 -0.41 0 0 0.41z"/>
   <polygon class="fil9" points="11.84,11.43 11.84,11.02 8.98,11.02 8.98,11.43 "/>
   <polygon class="fil6" points="15.51,20.41 12.66,20.41 12.66,20.82 15.51,20.82 "/>
   <polygon class="fil6" points="8.17,10.61 8.17,10.21 8.98,10.21 8.98,9.8 8.17,9.8 8.17,9.39 8.17,8.98 7.76,8.98 7.76,10.61 "/>
   <polygon class="fil14" points="11.02,17.96 11.02,18.37 11.02,18.78 11.84,18.78 11.84,17.14 11.43,17.14 11.43,17.96 "/>
   <polygon class="fil15" points="15.92,12.66 16.74,12.66 16.74,11.84 17.15,11.84 17.15,11.02 16.74,11.02 16.74,11.43 16.33,11.43 16.33,12.25 15.92,12.25 "/>
   <polygon class="fil16" points="20.41,13.06 20.41,13.47 22.45,13.47 22.45,13.06 22.05,13.06 22.05,12.66 21.64,12.66 21.64,13.06 "/>
   <polygon class="fil5" points="17.15,11.84 17.15,12.66 18.37,12.66 18.37,12.25 17.96,12.25 17.96,11.43 17.56,11.43 17.56,11.84 "/>
   <polygon class="fil6" points="20,12.25 20,12.66 20.41,12.66 20.41,12.25 21.23,12.25 21.23,11.84 20.41,11.84 20.41,11.02 20,11.02 "/>
   <polygon class="fil6" points="15.51,20 15.51,19.6 13.06,19.6 13.06,20 "/>
   <polygon class="fil16" points="8.17,9.39 8.17,9.8 8.98,9.8 8.98,9.39 9.39,9.39 10.21,9.39 10.21,8.98 8.57,8.98 8.57,9.39 "/>
   <polygon class="fil17" points="10.61,10.21 13.07,10.21 13.07,9.8 12.25,9.8 11.84,9.8 11.43,9.8 11.02,9.8 10.61,9.8 "/>
   <polygon class="fil14" points="5.31,13.06 7.76,13.06 7.76,12.66 5.31,12.66 "/>
   <polygon class="fil1" points="7.76,12.66 7.76,13.06 9.39,13.06 9.39,12.66 9.39,12.25 8.98,12.25 8.57,12.25 8.57,12.66 "/>
   <polygon class="fil1" points="11.02,6.94 11.02,7.34 11.44,7.34 11.43,7.76 11.43,8.16 11.84,8.16 11.84,7.76 11.84,7.34 12.25,7.35 12.25,6.94 11.84,6.94 11.84,6.53 11.43,6.53 11.43,6.94 "/>
   <polygon class="fil1" points="13.88,7.76 13.88,8.17 14.29,8.16 14.29,8.57 14.29,8.98 15.1,8.98 15.1,8.57 14.7,8.58 14.69,8.17 14.69,7.35 14.29,7.35 14.29,7.76 "/>
   <polygon class="fil9" points="16.13,20.41 16.33,20.41 16.33,18.58 16.53,18.58 16.54,17.55 16.33,17.55 16.33,16.74 16.13,16.74 "/>
   <polygon class="fil6" points="16.74,15.92 17.96,15.92 17.96,16.13 18.17,16.13 18.17,16.33 18.37,16.33 18.37,15.92 19.6,15.92 19.6,15.51 19.19,15.51 18.78,15.51 18.37,15.51 18.37,15.72 16.74,15.72 "/>
   <polygon class="fil5" points="16.74,21.64 16.74,22.05 17.15,22.05 17.15,22.45 17.96,22.45 17.96,21.64 17.56,21.64 17.56,21.43 17.15,21.43 17.15,21.64 "/>
   <polygon class="fil6" points="8.17,8.98 8.57,8.98 10.21,8.98 10.21,8.57 8.17,8.57 "/>
   <polygon class="fil6" points="11.43,8.57 12.25,8.57 12.65,8.57 13.47,8.57 13.47,8.17 12.66,8.17 11.84,8.16 11.43,8.16 "/>
   <polygon class="fil5" points="20.41,12.66 20.41,13.06 21.64,13.06 21.64,12.66 21.23,12.66 21.23,12.25 20.41,12.25 "/>
   <polygon class="fil16" points="18.78,12.66 18.37,12.66 17.15,12.66 16.74,12.66 16.74,13.06 18.78,13.06 "/>
   <polygon class="fil6" points="6.53,19.76 6.53,20 6.12,20 6.12,20.41 6.53,20.41 6.53,20.82 6.53,21.23 6.94,21.23 6.94,20.41 6.94,19.6 6.53,19.6 "/>
   <polygon class="fil1" points="16.74,10.21 17.14,10.21 17.14,9.39 16.73,9.39 16.73,8.99 16.33,8.99 16.33,9.39 15.93,9.39 15.93,9.79 16.74,9.79 "/>
   <polygon class="fil6" points="16.74,21.23 16.74,21.43 16.74,21.64 17.15,21.64 17.15,21.43 17.56,21.43 17.56,21.64 17.96,21.64 17.96,21.23 18.37,21.23 18.37,21.03 18.58,21.03 18.57,20.82 18.17,20.82 18.17,21.02 17.76,21.03 17.56,21.03 17.56,20.82 17.35,20.82 17.35,21.23 "/>
   <polygon class="fil18" points="18.78,18.78 19.19,18.78 19.19,18.58 19.6,18.57 19.6,18.37 19.6,17.96 19.39,17.96 19.39,17.76 18.78,17.76 "/>
   <polygon class="fil19" points="16.33,20.41 16.33,20.82 16.53,20.82 16.53,21.03 16.74,21.03 16.74,21.23 17.35,21.23 17.35,20.82 16.94,20.82 16.94,20.62 17.35,20.62 17.35,20.41 17.55,20.41 17.55,20.21 17.15,20.21 17.15,20.41 "/>
   <polygon class="fil16" points="10.21,8.57 10.21,8.98 10.61,8.98 11.02,8.98 11.02,8.57 11.43,8.57 11.43,8.16 10.61,8.17 10.61,8.57 "/>
   <polygon class="fil6" points="10.61,7.06 10.61,7.51 10.61,8 10.61,8.17 11.43,8.16 11.43,7.76 11.02,7.76 11.02,7.34 11.02,6.94 10.61,6.94 "/>
   <polygon class="fil1" points="19.19,9.8 20.41,9.8 20.41,9.39 19.59,9.39 19.6,8.98 19.19,8.98 "/>
   <polygon class="fil1" points="15.11,6.13 15.11,6.53 15.92,6.53 15.92,6.12 16.33,6.12 16.33,5.72 15.52,5.72 15.52,6.13 "/>
   <path class="fil6" d="M19.6 18.37l-0 0.2 -0.41 0 0 0.2 0.2 0 0 0.2 0.2 0c0,-0.52 0.2,0.11 0.2,-0.41l0.2 0 -0 0.81 0 0.21 0.21 0 0 -0.33 0 -0.45 0 -0.45c-0.04,0 -0.08,0 -0.12,-0 -0.08,-0.01 -0.04,-0.01 -0.09,-0.04l0 -0.45 0 -0.12 -0.2 0 0 0.61 -0.2 0z"/>
   <polygon class="fil6" points="16.33,20.41 17.15,20.41 17.15,20.21 16.53,20.21 16.53,19.8 16.53,19.6 16.94,19.59 16.94,19.4 16.53,19.39 16.53,18.58 16.33,18.58 "/>
   <polygon class="fil17" points="9.39,9.8 9.8,9.8 9.8,10.21 10.21,10.21 10.21,9.39 9.39,9.39 "/>
   <polygon class="fil16" points="17.14,8.16 17.56,8.17 17.56,7.76 17.96,7.76 17.96,7.35 17.55,7.35 17.15,7.35 "/>
   <polygon class="fil6" points="12.25,15.51 12.66,15.51 12.66,14.29 12.25,14.29 "/>
   <polygon class="fil6" points="17.56,8.17 17.96,8.17 18.37,8.17 18.37,8 18.37,7.51 18.37,7.35 17.96,7.35 17.96,7.76 17.56,7.76 "/>
   <polygon class="fil6" points="19.19,15.11 19.6,15.11 19.6,15.51 20,15.51 20,14.7 19.6,14.7 19.19,14.7 "/>
   <polygon class="fil6" points="14.29,16.33 14.29,15.92 14.29,15.51 14.29,15.11 13.88,15.11 13.88,16.33 "/>
   <polygon class="fil6" points="11.84,20 11.84,19.6 10.61,19.6 10.61,20 "/>
   <polygon class="fil1" points="9.39,12.25 9.8,12.25 9.8,12.65 10.21,12.66 10.2,11.84 9.39,11.84 "/>
   <polygon class="fil7" points="8.17,10.61 8.58,10.61 8.58,11.02 8.98,11.02 8.98,10.21 8.17,10.21 "/>
   <path class="fil20" d="M18.78 19.39l0.2 0 0 -0.2 0.2 0 0 -0.2 -0.41 0 0 -0.2 -0.2 0 0 -1.02 -0.2 0 0 1.22c0.52,0 -0.11,0.2 0.41,0.2l0 0.2z"/>
   <polygon class="fil18" points="17.56,16.74 17.56,17.15 17.76,17.15 17.96,17.15 18.17,17.15 18.17,16.74 18.17,16.53 17.96,16.53 17.96,16.33 17.55,16.33 "/>
   <polygon class="fil6" points="11.02,14.7 11.84,14.7 11.84,14.29 11.02,14.29 "/>
   <polygon class="fil6" points="20.41,9.39 20.41,8.98 19.6,8.98 19.59,9.39 "/>
   <polygon class="fil6" points="11.43,15.92 10.61,15.92 10.61,16.33 11.43,16.33 "/>
   <polygon class="fil17" points="11.84,8.16 12.66,8.17 12.66,7.76 11.84,7.76 "/>
   <polygon class="fil6" points="11.84,6.12 12.25,6.12 12.66,6.13 12.66,5.72 11.84,5.72 "/>
   <polygon class="fil12" points="11.84,11.43 12.66,11.43 12.66,11.02 11.84,11.02 "/>
   <polygon class="fil6" points="18.78,8.98 19.19,8.98 19.6,8.98 19.6,8.57 18.78,8.57 "/>
   <polygon class="fil4" points="17.56,15.11 17.96,15.11 17.96,14.7 17.15,14.7 17.15,15.11 "/>
   <polygon class="fil4" points="16.33,15.11 16.74,15.11 16.74,14.7 15.92,14.7 15.92,15.11 "/>
   <polygon class="fil4" points="18.78,15.11 19.19,15.11 19.19,14.7 18.37,14.7 18.37,15.11 "/>
   <polygon class="fil6" points="3.67,13.47 4.08,13.47 4.49,13.47 4.49,13.06 3.67,13.06 "/>
   <polygon class="fil6" points="5.31,20.82 5.72,20.82 6.12,20.82 6.12,20.41 5.31,20.41 "/>
   <polygon class="fil6" points="4.49,13.06 4.9,13.06 5.31,13.06 5.31,12.66 4.49,12.66 "/>
   <polygon class="fil4" points="14.7,15.11 15.11,15.11 15.51,15.11 15.51,14.7 14.7,14.7 "/>
   <polygon class="fil14" points="20,14.29 20.82,14.29 20.82,13.88 20.41,13.88 20,13.88 "/>
   <polygon class="fil6" points="20,14.7 20.82,14.7 20.82,14.29 20,14.29 "/>
   <polygon class="fil6" points="8.17,15.51 8.17,15.11 7.35,15.11 7.35,15.51 "/>
   <polygon class="fil6" points="17.96,22.45 18.37,22.45 18.37,21.64 17.96,21.64 "/>
   <polygon class="fil6" points="10.21,18.37 10.21,17.96 9.39,17.96 9.39,18.37 "/>
   <polygon class="fil6" points="16.74,12.66 17.15,12.66 17.15,11.84 16.74,11.84 "/>
   <polygon class="fil6" points="17.96,22.45 17.15,22.45 17.15,22.86 17.96,22.86 "/>
   <polygon class="fil6" points="21.64,12.66 22.05,12.66 22.05,12.25 21.23,12.25 21.23,12.66 "/>
   <polygon class="fil6" points="11.02,18.78 11.02,18.37 10.21,18.37 10.21,18.78 "/>
   <polygon class="fil16" points="13.47,13.06 14.29,13.06 14.29,12.66 13.88,12.66 13.47,12.66 "/>
   <polygon class="fil6" points="18.37,12.25 18.37,11.43 17.96,11.43 17.96,12.25 "/>
   <polygon class="fil6" points="9.8,19.19 9.8,18.78 8.98,18.78 8.98,19.19 "/>
   <polygon class="fil6" points="10.61,19.6 10.61,19.19 9.8,19.19 9.8,19.6 "/>
   <polygon class="fil6" points="16.33,6.12 16.74,6.12 17.15,6.12 17.15,5.72 16.33,5.72 "/>
   <polygon class="fil6" points="13.06,19.6 13.06,19.19 12.25,19.19 12.25,19.6 "/>
   <polygon class="fil6" points="16.74,8.57 17.56,8.57 17.56,8.17 17.14,8.16 16.74,8.17 "/>
   <polygon class="fil21" points="12.66,11.43 13.47,11.43 13.47,11.02 12.66,11.02 "/>
   <polygon class="fil6" points="12.66,20.41 12.66,20 11.84,20 11.84,20.41 "/>
   <polygon class="fil18" points="17.35,18.58 17.35,18.78 17.56,18.78 17.56,18.98 17.76,18.98 17.76,18.78 17.96,18.78 17.96,18.17 17.76,18.17 17.56,18.17 17.56,18.58 "/>
   <path class="fil6" d="M7.35 19.19l0.82 -0 0 -0.41c-0.17,0 -0.71,-0.03 -0.82,0.04l-0 0.37z"/>
   <path class="fil6" d="M17.55 6.94l-0 0.4 0.41 0 0 -0.29 0 -0.49c-0.05,-0.03 -0,-0.01 -0.09,-0.03 -0.04,-0.01 -0.07,-0.01 -0.11,-0.01 -0.06,-0 -0.14,0 -0.21,0l-0 0.41z"/>
   <polygon class="fil1" points="8.98,10.21 9.8,10.21 9.8,9.8 9.39,9.8 8.98,9.8 "/>
   <polygon class="fil1" points="10.61,15.92 11.43,15.92 11.43,15.52 10.61,15.52 "/>
   <polygon class="fil1" points="16.74,7.76 16.74,8.17 17.14,8.16 17.15,7.35 16.74,7.35 "/>
   <polygon class="fil1" points="13.07,10.21 13.88,10.21 13.88,9.8 13.47,9.8 13.07,9.8 "/>
   <polygon class="fil6" points="15.51,16.12 15.72,16.12 15.72,16.33 15.92,16.33 15.92,16.13 16.74,16.13 16.74,15.92 15.51,15.92 "/>
   <polygon class="fil6" points="17.15,18.98 17.15,18.78 17.15,18.58 17.35,18.58 17.35,18.37 17.15,18.37 17.15,17.96 16.94,17.96 16.94,18.98 "/>
   <polygon class="fil6" points="18.98,17.56 18.78,17.56 18.78,17.76 19.39,17.76 19.8,17.76 19.8,17.56 19.39,17.56 19.39,17.35 19.19,17.35 19.19,17.56 "/>
   <polygon class="fil6" points="18.78,18.78 18.78,17.76 18.58,17.76 18.58,18.78 "/>
   <polygon class="fil20" points="17.15,20 18.17,20 18.17,19.8 17.15,19.8 "/>
   <polygon class="fil6" points="17.15,20.21 17.55,20.21 18.17,20.21 18.17,20 17.15,20 "/>
   <polygon class="fil9" points="16.94,19.4 16.94,19.19 16.74,19.19 16.74,18.57 16.53,18.58 16.53,19.39 "/>
   <polygon class="fil6" points="18.37,16.74 18.37,17.15 18.37,17.35 18.58,17.35 18.57,17.14 18.57,16.94 18.78,16.94 18.78,16.53 18.58,16.53 18.58,16.74 "/>
   <polygon class="fil6" points="16.53,18.58 16.74,18.57 16.74,17.56 16.54,17.55 "/>
   <polygon class="fil6" points="8.58,11.02 8.58,10.61 8.17,10.61 8.16,11.02 "/>
   <polygon class="fil9" points="15.31,16.33 15.31,16.54 15.92,16.53 15.92,16.33 15.72,16.33 15.72,16.12 15.51,16.12 15.51,16.33 "/>
   <polygon class="fil5" points="11.43,7.76 11.44,7.34 11.02,7.34 11.02,7.76 "/>
   <polygon class="fil5" points="13.88,7.76 14.29,7.76 14.29,7.35 13.88,7.35 "/>
   <polygon class="fil14" points="16.74,6.94 17.15,6.94 17.15,6.53 16.74,6.53 "/>
   <polygon class="fil14" points="15.1,8.57 15.11,8.17 14.69,8.17 14.7,8.58 "/>
   <polygon class="fil14" points="9.39,12.66 9.8,12.65 9.8,12.25 9.39,12.25 "/>
   <polygon class="fil14" points="15.11,6.13 15.52,6.13 15.52,5.72 15.11,5.72 "/>
   <polygon class="fil17" points="15.92,6.53 16.33,6.53 16.33,6.12 15.92,6.12 "/>
   <polygon class="fil5" points="8.98,9.8 9.39,9.8 9.39,9.39 8.98,9.39 "/>
   <polygon class="fil14" points="4.49,13.47 4.9,13.47 4.9,13.06 4.49,13.06 "/>
   <polygon class="fil14" points="3.67,13.88 4.08,13.88 4.08,13.47 3.67,13.47 "/>
   <polygon class="fil14" points="5.31,21.23 5.72,21.23 5.72,20.82 5.31,20.82 "/>
   <polygon class="fil17" points="16.33,8.17 16.74,8.17 16.74,7.76 16.33,7.76 "/>
   <polygon class="fil14" points="17.14,9.39 17.56,9.39 17.56,8.98 17.15,8.98 "/>
   <polygon class="fil14" points="13.88,7.76 13.88,7.35 13.47,7.35 13.47,7.76 "/>
   <polygon class="fil14" points="13.88,7.35 14.29,7.35 14.29,6.94 13.88,6.94 "/>
   <polygon class="fil14" points="8.98,12.25 9.39,12.25 9.39,11.84 8.98,11.84 "/>
   <polygon class="fil5" points="17.15,6.94 17.55,6.94 17.56,6.53 17.15,6.53 "/>
   <polygon class="fil6" points="13.88,8.57 14.29,8.57 14.29,8.16 13.88,8.17 "/>
   <polygon class="fil14" points="6.12,20.82 6.53,20.82 6.53,20.41 6.12,20.41 "/>
   <polygon class="fil14" points="4.9,22.05 4.9,21.64 4.49,21.64 4.49,22.05 "/>
   <polygon class="fil14" points="11.84,6.53 12.25,6.53 12.25,6.12 11.84,6.12 "/>
   <polygon class="fil9" points="15.1,8.57 15.51,8.57 15.51,8.17 15.11,8.17 "/>
   <polygon class="fil9" points="13.47,7.35 13.88,7.35 13.88,6.94 13.47,6.94 "/>
   <polygon class="fil17" points="14.29,6.12 14.7,6.12 14.7,5.72 14.29,5.72 "/>
   <polygon class="fil14" points="16.33,6.53 16.74,6.53 16.74,6.12 16.33,6.12 "/>
   <polygon class="fil22" points="17.35,18.58 17.56,18.58 17.56,18.17 17.35,18.17 17.35,17.96 17.15,17.96 17.15,18.37 17.35,18.37 "/>
   <polygon class="fil14" points="9.8,13.06 10.21,13.06 10.21,12.66 9.8,12.65 "/>
   <polygon class="fil6" points="9.39,13.06 9.8,13.06 9.8,12.65 9.39,12.66 "/>
   <polygon class="fil3" points="15.51,20 15.92,20 15.92,19.6 15.51,19.6 "/>
   <polygon class="fil5" points="16.74,7.35 17.15,7.35 17.15,6.94 16.74,6.94 "/>
   <polygon class="fil6" points="10.21,15.51 10.21,15.11 9.8,15.11 9.8,15.52 "/>
   <polygon class="fil6" points="9.8,15.11 9.8,14.7 9.39,14.7 9.39,15.11 "/>
   <polygon class="fil6" points="10.21,13.88 10.61,13.88 10.62,13.47 10.21,13.47 "/>
   <polygon class="fil6" points="10.62,14.29 11.02,14.29 11.02,13.88 10.61,13.88 "/>
   <polygon class="fil6" points="10.61,15.92 10.61,15.52 10.21,15.51 10.2,15.92 "/>
   <polygon class="fil17" points="12.25,7.35 12.66,7.35 12.66,6.94 12.25,6.94 "/>
   <polygon class="fil16" points="16.33,6.94 16.74,6.94 16.74,6.53 16.33,6.53 "/>
   <polygon class="fil15" points="19.6,12.66 20,12.66 20,12.25 19.6,12.25 "/>
   <polygon class="fil14" points="15.1,8.98 15.51,8.98 15.51,8.57 15.1,8.57 "/>
   <polygon class="fil14" points="13.47,7.35 13.47,6.94 13.07,6.94 13.06,7.35 "/>
   <polygon class="fil9" points="16.74,6.53 17.15,6.53 17.15,6.12 16.74,6.12 "/>
   <polygon class="fil14" points="13.47,6.94 13.88,6.94 13.88,6.53 13.47,6.53 "/>
   <polygon class="fil14" points="19.6,14.7 20,14.7 20,14.29 19.6,14.29 "/>
   <polygon class="fil9" points="11.43,9.8 11.84,9.8 11.84,9.39 11.43,9.39 "/>
   <polygon class="fil6" points="20.41,9.8 20.82,9.8 20.82,9.39 20.41,9.39 "/>
   <polygon class="fil14" points="11.02,9.8 11.43,9.8 11.43,9.39 11.02,9.39 "/>
   <polygon class="fil14" points="11.84,9.8 12.25,9.8 12.25,9.39 11.84,9.39 "/>
   <polygon class="fil14" points="16.74,15.11 16.33,15.11 16.33,15.51 16.74,15.51 "/>
   <polygon class="fil14" points="15.51,15.51 15.51,15.11 15.11,15.11 15.11,15.51 "/>
   <polygon class="fil14" points="17.96,15.11 17.56,15.11 17.56,15.51 17.96,15.51 "/>
   <polygon class="fil14" points="18.78,15.51 19.19,15.51 19.19,15.11 18.78,15.11 "/>
   <polygon class="fil5" points="17.96,8.98 18.37,8.98 18.37,8.57 17.96,8.57 "/>
   <polygon class="fil14" points="15.11,10.21 15.51,10.21 15.51,9.8 15.11,9.8 "/>
   <polygon class="fil16" points="18.37,8.98 18.78,8.98 18.78,8.57 18.37,8.57 "/>
   <polygon class="fil16" points="20.41,13.06 20.41,12.66 20,12.66 20,13.06 "/>
   <polygon class="fil20" points="17.15,20.21 17.15,20 16.74,20 16.74,19.8 16.53,19.8 16.53,20.21 "/>
   <polygon class="fil6" points="22.45,13.06 22.45,12.66 22.05,12.66 22.05,13.06 "/>
   <polygon class="fil6" points="17.15,22.45 17.15,22.05 16.74,22.05 16.74,22.45 "/>
   <polygon class="fil14" points="17.56,8.98 17.96,8.98 17.96,8.57 17.56,8.57 "/>
   <polygon class="fil14" points="11.43,9.39 11.84,9.39 11.84,8.98 11.43,8.98 "/>
   <polygon class="fil14" points="17.96,9.39 18.37,9.39 18.37,8.98 17.96,8.98 "/>
   <polygon class="fil14" points="15.11,8.17 15.51,8.17 15.51,7.76 15.11,7.76 "/>
   <polygon class="fil14" points="15.51,8.57 15.92,8.57 15.92,8.17 15.51,8.17 "/>
   <polygon class="fil6" points="9.39,17.96 9.39,17.56 8.98,17.56 8.98,17.96 "/>
   <polygon class="fil14" points="8.17,9.39 8.57,9.39 8.57,8.98 8.17,8.98 "/>
   <polygon class="fil14" points="14.29,15.92 14.7,15.92 14.7,15.51 14.29,15.51 "/>
   <polygon class="fil10" points="19.19,15.51 19.6,15.51 19.6,15.11 19.19,15.11 "/>
   <polygon class="fil6" points="18.37,8.57 18.78,8.57 18.78,8.45 18.78,8.17 18.37,8.17 "/>
   <polygon class="fil14" points="17.96,9.39 17.56,9.39 17.56,9.8 17.96,9.8 "/>
   <polygon class="fil16" points="17.96,8.57 18.37,8.57 18.37,8.17 17.96,8.17 "/>
   <polygon class="fil6" points="10.21,8.45 10.21,8.57 10.61,8.57 10.61,8.17 10.21,8.17 "/>
   <polygon class="fil9" points="17.56,9.39 17.96,9.39 17.96,8.98 17.56,8.98 "/>
   <polygon class="fil5" points="17.56,8.57 17.96,8.57 17.96,8.17 17.56,8.17 "/>
   <polygon class="fil17" points="13.47,9.8 13.88,9.8 13.88,9.39 13.47,9.39 "/>
   <polygon class="fil6" points="17.15,6.53 17.56,6.53 17.56,6.12 17.15,6.12 "/>
   <polygon class="fil16" points="13.06,13.47 13.47,13.47 13.47,13.06 13.06,13.06 "/>
   <polygon class="fil6" points="14.7,16.74 14.7,16.33 14.29,16.33 14.29,16.74 "/>
   <polygon class="fil6" points="13.06,13.88 13.47,13.88 13.47,13.47 13.06,13.47 "/>
   <polygon class="fil6" points="14.29,15.11 14.7,15.11 14.7,14.7 14.29,14.7 "/>
   <polygon class="fil6" points="18.37,12.66 18.78,12.66 18.78,12.25 18.37,12.25 "/>
   <polygon class="fil6" points="12.66,14.29 13.06,14.29 13.06,13.88 12.65,13.88 "/>
   <polygon class="fil6" points="9.8,13.47 10.21,13.47 10.21,13.06 9.8,13.06 "/>
   <polygon class="fil6" points="8.58,14.29 8.98,14.29 8.98,13.88 8.57,13.88 "/>
   <polygon class="fil17" points="12.66,6.13 13.06,6.13 13.06,5.72 12.66,5.72 "/>
   <polygon class="fil6" points="13.88,12.66 14.29,12.66 14.29,12.25 13.88,12.25 "/>
   <polygon class="fil6" points="16.33,22.05 16.74,22.05 16.74,21.64 16.33,21.64 "/>
   <polygon class="fil6" points="6.94,19.27 6.94,19.6 7.35,19.6 7.35,19.19 6.94,19.19 "/>
   <polygon class="fil6" points="16.53,21.43 16.53,21.23 16.74,21.23 16.74,21.03 16.53,21.03 16.53,20.82 16.33,20.82 16.33,21.43 "/>
   <polygon class="fil6" points="11.43,6.53 11.84,6.53 11.84,6.12 11.43,6.12 "/>
   <polygon class="fil6" points="4.49,21.64 4.9,21.64 4.9,21.23 4.49,21.23 "/>
   <polygon class="fil6" points="3.27,13.88 3.67,13.88 3.67,13.47 3.27,13.47 "/>
   <polygon class="fil6" points="4.9,21.23 5.31,21.23 5.31,20.82 4.9,20.82 "/>
   <polygon class="fil6" points="2.86,14.29 3.26,14.29 3.27,13.88 2.86,13.88 "/>
   <polygon class="fil23" points="19.6,18.37 19.8,18.37 19.8,17.76 19.39,17.76 19.39,17.96 19.6,17.96 "/>
   <polygon class="fil6" points="8.98,14.7 9.39,14.7 9.39,14.29 8.98,14.29 "/>
   <polygon class="fil6" points="16.54,17.55 16.53,16.74 16.33,16.74 16.33,17.55 "/>
   <polygon class="fil1" points="18.78,10.21 19.19,10.21 19.19,9.8 18.78,9.8 "/>
   <polygon class="fil1" points="11.02,14.7 11.02,14.29 10.62,14.29 10.62,14.69 "/>
   <polygon class="fil1" points="10.21,15.51 10.61,15.52 10.61,15.11 10.21,15.11 "/>
   <polygon class="fil1" points="10.21,13.88 10.21,13.47 9.8,13.47 9.8,13.88 "/>
   <polygon class="fil1" points="9.8,15.11 10.21,15.11 10.2,14.7 9.8,14.7 "/>
   <polygon class="fil1" points="9.39,14.7 9.8,14.7 9.79,14.29 9.39,14.29 "/>
   <polygon class="fil1" points="10.62,14.29 10.61,13.88 10.21,13.88 10.21,14.28 "/>
   <polygon class="fil1" points="3.26,14.7 3.26,14.29 2.86,14.29 2.86,14.7 "/>
   <polygon class="fil1" points="9.8,13.47 9.8,13.06 9.39,13.06 9.39,13.47 "/>
   <polygon class="fil1" points="13.07,6.94 13.47,6.94 13.47,6.53 13.06,6.53 "/>
   <polygon class="fil1" points="13.47,8.57 13.88,8.57 13.88,8.17 13.47,8.17 "/>
   <polygon class="fil1" points="8.98,14.7 8.98,14.29 8.58,14.29 8.58,14.69 "/>
   <polygon class="fil1" points="17.15,7.35 17.55,7.35 17.55,6.94 17.15,6.94 "/>
   <polygon class="fil1" points="8.98,14.29 9.39,14.29 9.39,13.88 8.98,13.88 "/>
   <polygon class="fil1" points="3.26,14.29 3.67,14.28 3.67,13.88 3.27,13.88 "/>
   <polygon class="fil1" points="4.9,21.64 5.3,21.63 5.31,21.23 4.9,21.23 "/>
   <polygon class="fil1" points="13.06,6.53 13.06,6.13 12.66,6.13 12.66,6.53 "/>
   <polygon class="fil1" points="16.74,8.57 16.74,8.17 16.33,8.17 16.33,8.57 "/>
   <polygon class="fil1" points="13.88,9.8 14.28,9.79 14.28,9.39 13.88,9.39 "/>
   <polygon class="fil1" points="16.74,7.35 16.74,6.94 16.33,6.94 16.33,7.34 "/>
   <polygon class="fil1" points="4.9,13.47 5.3,13.47 5.31,13.06 4.9,13.06 "/>
   <polygon class="fil1" points="5.72,21.23 6.12,21.22 6.12,20.82 5.72,20.82 "/>
   <polygon class="fil1" points="4.08,13.88 4.49,13.88 4.49,13.47 4.08,13.47 "/>
   <polygon class="fil1" points="14.29,6.12 14.29,5.72 13.88,5.72 13.88,6.12 "/>
   <polygon class="fil1" points="10.21,9.39 10.61,9.39 10.61,8.98 10.21,8.98 "/>
   <polygon class="fil1" points="13.47,9.39 13.88,9.39 13.88,8.99 13.48,8.99 "/>
   <polygon class="fil1" points="12.65,8.57 12.25,8.57 12.25,8.98 12.65,8.98 "/>
   <polygon class="fil6" points="11.02,6.94 11.43,6.94 11.43,6.53 11.02,6.57 "/>
   <polygon class="fil7" points="19.19,10.21 19.2,10.61 19.59,10.61 19.59,10.21 "/>
   <polygon class="fil6" points="19.6,19.8 19.6,20 20,20 20,19.76 20,19.59 19.8,19.59 19.8,19.8 "/>
   <polygon class="fil6" points="17.35,16.33 17.55,16.33 17.96,16.33 17.96,16.13 17.35,16.13 "/>
   <polygon class="fil6" points="17.96,18.78 18.17,18.78 18.17,18.17 17.96,18.17 "/>
   <polygon class="fil6" points="17.76,17.56 18.37,17.56 18.37,17.35 18.17,17.35 17.96,17.35 17.76,17.35 "/>
   <polygon class="fil6" points="17.15,17.96 17.35,17.96 17.55,17.96 17.76,17.96 17.76,17.76 17.15,17.76 "/>
   <polygon class="fil6" points="17.76,18.98 17.56,18.98 17.35,18.98 17.15,18.98 17.15,19.19 17.76,19.19 "/>
   <polygon class="fil6" points="16.33,20.82 16.33,20.41 16.13,20.41 16.13,20.82 "/>
   <polygon class="fil6" points="17.35,17.15 17.56,17.15 17.56,16.74 17.35,16.74 "/>
   <polygon class="fil22" points="17.35,16.74 17.56,16.74 17.55,16.33 17.35,16.33 "/>
   <polygon class="fil6" points="19.19,18.98 19.19,18.78 18.78,18.78 18.78,18.98 "/>
   <polygon class="fil6" points="18.17,20 18.58,20 18.58,19.8 18.17,19.8 "/>
   <polygon class="fil20" points="17.15,16.74 17.15,16.33 16.94,16.33 16.94,16.74 "/>
   <polygon class="fil23" points="18.17,17.15 18.37,17.15 18.37,16.74 18.17,16.74 "/>
   <polygon class="fil20" points="18.17,19.8 18.58,19.8 18.58,19.6 18.17,19.6 "/>
   <polygon class="fil6" points="17.15,16.74 17.35,16.74 17.35,16.33 17.15,16.33 "/>
   <polygon class="fil20" points="17.35,17.15 17.35,16.74 17.15,16.74 17.15,17.15 "/>
   <polygon class="fil6" points="18.78,20.62 19.19,20.62 19.19,20.41 18.78,20.41 "/>
   <polygon class="fil6" points="17.35,20.82 17.35,20.62 16.94,20.62 16.94,20.82 "/>
   <polygon class="fil19" points="18.17,20.82 18.57,20.82 18.58,20.62 18.17,20.62 "/>
   <polygon class="fil19" points="18.78,20.41 19.19,20.41 19.19,20.21 18.78,20.21 "/>
   <polygon class="fil19" points="17.76,21.03 18.17,21.02 18.17,20.82 17.76,20.82 "/>
   <polygon class="fil9" points="18.98,17.56 19.19,17.56 19.19,17.35 18.98,17.35 "/>
   <polygon class="fil9" points="16.13,16.74 16.13,16.53 15.92,16.53 15.92,16.74 "/>
   <polygon class="fil9" points="18.57,17.14 18.78,17.14 18.78,16.94 18.57,16.94 "/>
   <polygon class="fil19" points="19.8,19.59 20,19.59 20,19.39 19.8,19.39 "/>
   <polygon class="fil9" points="18.78,17.35 18.98,17.35 18.98,17.15 18.78,17.14 "/>
   <polygon class="fil6" points="19.19,20.41 19.39,20.41 19.39,20.21 19.19,20.21 "/>
   <polygon class="fil6" points="19.39,20.21 19.6,20.21 19.6,20 19.39,20 "/>
   <polygon class="fil22" points="17.76,17.35 17.96,17.35 17.96,17.15 17.76,17.15 "/>
   <polygon class="fil22" points="17.56,18.17 17.76,18.17 17.76,17.96 17.55,17.96 "/>
   <polygon class="fil6" points="18.57,20.82 18.78,20.82 18.78,20.62 18.58,20.62 "/>
   <polygon class="fil22" points="17.15,18.98 17.35,18.98 17.35,18.78 17.15,18.78 "/>
   <polygon class="fil22" points="18.17,17.35 18.37,17.35 18.37,17.15 18.17,17.15 "/>
   <polygon class="fil20" points="17.56,17.35 17.56,17.15 17.35,17.15 17.35,17.35 "/>
   <polygon class="fil6" points="17.76,18.17 17.96,18.17 17.96,17.96 17.76,17.96 "/>
   <polygon class="fil6" points="17.56,17.35 17.76,17.35 17.76,17.15 17.56,17.15 "/>
   <polygon class="fil19" points="19.39,20 19.6,20 19.6,19.8 19.39,19.8 "/>
   <polygon class="fil20" points="18.58,17.76 18.78,17.76 18.78,17.56 18.58,17.56 "/>
   <polygon class="fil6" points="18.17,16.53 18.17,16.33 17.96,16.33 17.96,16.53 "/>
   <polygon class="fil8" points="17.96,16.33 18.17,16.33 18.17,16.13 17.96,16.13 "/>
   <polygon class="fil24" points="17.56,18.17 17.55,17.96 17.35,17.96 17.35,18.17 "/>
   <polygon class="fil23" points="17.35,18.98 17.56,18.98 17.56,18.78 17.35,18.78 "/>
   <polygon class="fil8" points="18.17,16.53 18.37,16.53 18.37,16.33 18.17,16.33 "/>
   <polygon class="fil6" points="18.98,19.39 19.19,19.39 19.19,19.19 18.98,19.19 "/>
   <polygon class="fil8" points="18.37,16.74 18.58,16.74 18.58,16.53 18.37,16.53 "/>
   <polygon class="fil6" points="18.17,16.74 18.37,16.74 18.37,16.53 18.17,16.53 "/>
   <polygon class="fil6" points="18.78,19.6 18.98,19.6 18.98,19.39 18.78,19.39 "/>
   <polygon class="fil20" points="18.58,19.6 18.78,19.6 18.78,19.39 18.58,19.39 "/>
   <polygon class="fil6" points="19.19,19.19 19.39,19.19 19.39,18.98 19.19,18.98 "/>
   <polygon class="fil6" points="18.37,16.53 18.58,16.53 18.58,16.33 18.37,16.33 "/>
   <polygon class="fil20" points="19.19,18.98 19.39,18.98 19.39,18.78 19.19,18.78 "/>
   <polygon class="fil6" points="18.58,19.8 18.78,19.8 18.78,19.6 18.58,19.6 "/>
   <polygon class="fil20" points="17.15,16.33 17.35,16.33 17.35,16.13 17.15,16.13 "/>
   <polygon class="fil20" points="17.76,17.56 17.76,17.35 17.56,17.35 17.56,17.56 "/>
   <polygon class="fil23" points="17.96,17.35 18.17,17.35 18.17,17.15 17.96,17.15 "/>
   <polygon class="fil6" points="16.13,16.74 16.33,16.74 16.33,16.53 16.13,16.53 "/>
   <polygon class="fil6" points="15.92,16.53 16.13,16.53 16.13,16.33 15.92,16.33 "/>
   <polygon class="fil6" points="17.76,18.98 17.96,18.98 17.96,18.78 17.76,18.78 "/>
   <polygon class="fil6" points="18.98,17.35 19.19,17.35 19.19,17.15 18.98,17.15 "/>
   <polygon class="fil19" points="16.53,21.43 16.74,21.43 16.74,21.23 16.53,21.23 "/>
   <polygon class="fil19" points="19.19,20.21 19.39,20.21 19.39,20 19.19,20 "/>
   <polygon class="fil23" points="17.15,18.78 17.35,18.78 17.35,18.58 17.15,18.58 "/>
   <polygon class="fil19" points="18.58,20.62 18.78,20.62 18.78,20.41 18.58,20.41 "/>
   <polygon class="fil19" points="19.6,19.8 19.8,19.8 19.8,19.59 19.6,19.6 "/>
   <polygon class="fil20" points="18.78,17.56 18.98,17.56 18.98,17.35 18.78,17.35 "/>
   <polygon class="fil6" points="15.31,16.33 15.51,16.33 15.51,16.12 15.31,16.13 "/>
   <polygon class="fil6" points="18.78,17.14 18.98,17.15 18.98,16.94 18.78,16.94 "/>
   <polygon class="fil9" points="16.94,19.59 17.14,19.59 17.14,19.4 16.94,19.4 "/>
  </g>
 </g>
</svg>
