<?xml version="1.0" encoding="UTF-8"?>
<!DOCTYPE svg PUBLIC "-//W3C//DTD SVG 1.1//EN" "http://www.w3.org/Graphics/SVG/1.1/DTD/svg11.dtd">
<!-- Creator: CorelDRAW 2020 (64-Bit) -->
<svg xmlns="http://www.w3.org/2000/svg" xml:space="preserve" width="13.2292mm" height="13.2292mm" version="1.1" style="shape-rendering:geometricPrecision; text-rendering:geometricPrecision; image-rendering:optimizeQuality; fill-rule:evenodd; clip-rule:evenodd"
viewBox="0 0 28.17 28.17"
 xmlns:xlink="http://www.w3.org/1999/xlink"
 xmlns:xodm="http://www.corel.com/coreldraw/odm/2003">
 <defs>
  <style type="text/css">
   <![CDATA[
    .fil8 {fill:#21181B}
    .fil14 {fill:#434343}
    .fil12 {fill:#4F1D4C}
    .fil15 {fill:#686F99}
    .fil9 {fill:#68A000}
    .fil5 {fill:#781D4F}
    .fil16 {fill:#92E8C0}
    .fil11 {fill:#AD2E45}
    .fil2 {fill:#B0C400}
    .fil1 {fill:#D08AFA}
    .fil10 {fill:#DFE0E8}
    .fil3 {fill:#E64539}
    .fil13 {fill:#F0B541}
    .fil4 {fill:#F5FFE8}
    .fil0 {fill:#FA8AF6}
    .fil7 {fill:#FFEE83}
    .fil6 {fill:white}
   ]]>
  </style>
 </defs>
 <g id="Layer_x0020_1">
  <metadata id="CorelCorpID_0Corel-Layer"/>
  <g id="_2002154852432">
   <polygon class="fil0" points="-0,17.72 8.8,17.72 8.8,16.73 7.92,16.73 7.92,16.29 2.64,16.29 2.64,15.41 3.08,15.41 3.08,14.97 3.52,14.97 3.52,14.53 3.96,14.53 3.96,14.09 4.84,14.09 4.84,13.65 5.72,13.65 5.72,13.2 9.24,13.21 9.24,11.89 8.8,11.89 8.8,11.45 8.36,11.45 8.36,9.68 8.8,9.68 8.8,9.24 11,9.24 11,8.8 11.44,8.8 11.45,7.48 11.89,7.48 11.88,7.04 12.33,7.04 12.32,6.63 12.37,6.6 12.77,6.6 12.77,6.16 13.65,6.16 13.65,5.72 17.61,5.72 17.61,6.16 18.49,6.16 18.49,6.6 18.88,6.6 18.93,6.63 18.93,7.04 19.37,7.04 19.37,7.92 19.81,7.92 19.81,8.8 20.25,8.8 20.25,9.24 21.13,9.24 21.13,9.68 22.01,9.68 22.01,10.12 22.45,10.12 22.45,10.57 22.01,10.57 22.01,11.01 21.57,11.01 21.57,11.45 21.13,11.45 21.13,12.33 22.01,12.32 22.01,12.77 22.89,12.76 22.89,13.21 23.77,13.21 23.77,13.65 24.21,13.65 24.21,14.09 24.65,14.09 24.65,14.97 22.89,14.97 22.89,15.41 22.45,15.41 22.45,15.85 21.57,15.85 21.57,16.29 21.13,16.29 21.13,16.73 20.25,16.73 20.25,17.17 19.81,17.17 19.81,17.61 19.37,17.61 19.37,17.72 28.17,17.72 28.17,0 -0,0 "/>
   <polygon class="fil1" points="18.93,22.45 19.37,22.45 19.37,23.33 19.81,23.33 19.81,24.21 19.37,24.21 19.37,24.65 18.49,24.65 18.49,24.21 18.05,24.21 18.05,25.09 18.49,25.09 18.49,27.73 18.93,27.73 18.93,28.17 28.17,28.17 28.17,19.75 18.93,19.75 18.93,19.81 19.37,19.81 19.37,22.01 18.93,22.01 "/>
   <polygon class="fil1" points="-0,28.17 9.68,28.17 9.68,27.73 10.12,27.73 10.12,26.41 9.68,26.41 9.68,24.65 6.6,24.65 6.6,24.21 4.4,24.21 4.4,23.33 4.84,23.33 4.84,22.89 5.28,22.89 5.28,22.45 5.72,22.45 5.72,22.01 6.6,22.01 6.6,21.57 7.48,21.57 7.48,21.13 7.92,21.13 7.92,19.75 -0,19.75 "/>
   <path class="fil2" d="M19.37 12.33l0 0.44 -0.44 0 0 -0.44 0.44 0zm-2.64 0l0.44 0 0 0.44 -0.44 0 0 -0.44zm-1.32 0l0 0.44 -0.44 0 0 -0.44 0.44 0zm1.32 0l-1.32 0 0 -0.44 1.32 0 0 0.44zm-2.64 1.76l0 -0.44 0.44 0 3.08 0 2.64 0 1.76 0 0 0.44 0.88 0 0.88 0 0 -0.44 -0.88 0 0 -0.44 -0.88 0 0 -0.44 -0.88 0 0 -0.44 -0.44 0 0 0.44 -0.44 0 0 -0.44 -0.88 0 0 -0.44 0.88 0 0 -0.44 -7.48 0 0 0.44 -0.44 0 0 1.32 0.44 0 0 0.44 0.44 0 0 0.44 0.88 0z"/>
   <polygon class="fil3" points="7.04,22.01 7.04,24.21 9.24,24.21 9.24,23.77 9.68,23.77 10.12,23.77 10.13,22.89 10.56,22.89 10.56,26.41 11,26.41 11.01,27.29 11.45,27.29 11.45,28.17 12.33,28.17 12.33,27.73 12.77,27.73 12.77,27.29 12.33,27.29 12.33,26.85 12.77,26.85 12.77,26.41 12.33,26.41 12.33,25.97 12.77,25.97 12.77,25.09 12.77,24.65 12.33,24.65 12.33,24.21 12.33,23.77 12.77,23.77 12.77,23.33 12.33,23.33 12.33,22.89 11.01,22.89 11.01,22.45 10.57,22.45 10.57,21.57 9.68,21.57 9.68,22.01 8.8,22.01 8.8,21.57 7.48,21.57 7.48,22.01 "/>
   <polygon class="fil4" points="14.09,14.97 14.09,15.41 13.65,15.41 13.65,16.73 13.21,16.73 13.21,20.69 16.29,20.69 16.29,20.25 17.17,20.25 17.17,19.37 17.61,19.37 17.61,18.93 15.41,18.93 15.41,18.49 14.97,18.49 14.97,18.05 14.53,18.05 14.53,16.29 14.97,16.29 14.97,15.85 15.41,15.85 15.41,15.41 15.85,15.41 15.85,14.97 20.69,14.97 20.69,15.41 21.13,15.41 21.57,15.41 21.57,14.97 22.01,14.97 22.01,14.53 14.53,14.53 14.53,14.97 "/>
   <polygon class="fil2" points="5.28,14.53 4.84,14.53 4.84,14.97 4.4,14.97 3.96,14.97 3.96,15.41 3.52,15.41 3.52,15.85 7.92,15.85 7.92,16.29 8.8,16.29 8.8,16.73 9.24,16.73 9.24,18.49 9.68,18.49 9.68,18.93 10.12,18.93 10.12,19.37 11.01,19.37 11.01,19.81 11.89,19.81 11.89,18.93 11.45,18.93 11.45,18.05 10.57,18.05 10.57,17.17 10.12,17.17 10.12,16.73 9.68,16.73 9.68,16.29 9.68,15.85 9.24,15.85 9.24,15.41 9.24,14.53 9.24,14.09 7.92,14.09 5.72,14.09 5.72,14.53 "/>
   <polygon class="fil4" points="14.09,7.04 14.53,7.04 14.97,7.04 14.97,7.48 15.41,7.48 15.41,7.92 15.85,7.92 15.85,8.8 16.29,8.8 16.29,8.36 16.73,8.36 16.73,8.8 17.17,8.8 17.17,9.24 16.73,9.24 16.73,9.68 16.29,9.68 15.41,9.68 15.41,9.24 14.97,9.24 14.53,9.24 13.65,9.24 13.65,9.68 13.21,9.68 13.21,9.24 12.33,9.24 11.89,9.24 11.89,9.68 11.45,9.68 11.45,10.12 11.01,10.12 11.01,11.01 11.45,11.01 11.45,10.57 11.89,10.57 11.89,10.12 12.33,10.12 12.33,9.68 12.77,9.68 12.77,10.12 13.21,10.12 13.21,10.57 14.53,10.57 14.53,9.68 14.97,9.68 14.97,10.12 15.41,10.12 15.41,10.57 14.97,10.57 14.97,11.01 16.29,11.01 16.29,10.57 16.73,10.57 16.73,11.01 18.05,11.01 18.05,10.57 17.17,10.57 17.17,10.12 17.61,10.12 17.61,9.68 18.05,9.68 18.05,10.12 18.49,10.12 18.49,9.68 18.93,9.68 18.93,9.24 18.05,9.24 17.61,9.24 17.61,8.36 18.05,8.36 18.05,7.92 17.61,7.92 17.61,7.04 16.29,7.04 16.29,6.6 16.29,6.16 15.85,6.16 15.85,6.6 14.97,6.6 14.97,6.16 14.09,6.16 "/>
   <polygon class="fil5" points="16.29,15.85 15.85,15.85 15.85,16.73 15.41,16.73 15.41,17.61 15.85,17.61 15.85,18.05 16.29,18.05 16.73,18.05 16.73,18.49 17.17,18.49 17.17,18.05 17.61,18.05 17.61,18.49 18.49,18.49 18.49,18.05 18.93,18.05 18.93,17.61 19.37,17.61 19.37,17.17 19.81,17.17 19.81,16.73 20.25,16.73 20.25,16.29 21.13,16.29 21.13,15.85 20.69,15.85 20.25,15.85 20.25,15.41 19.37,15.41 19.37,15.85 18.93,15.85 18.93,15.41 18.05,15.41 18.05,15.85 17.61,15.85 17.61,15.41 16.73,15.41 16.73,15.85 "/>
   <polygon class="fil6" points="8.36,18.93 8.36,19.37 8.8,19.37 8.8,21.13 9.68,21.13 9.68,20.69 10.57,20.69 10.57,21.13 11.45,21.13 11.45,21.57 12.33,21.57 12.33,21.13 12.77,21.13 12.77,22.01 13.21,22.01 13.21,21.57 16.73,21.57 16.73,21.13 17.61,21.13 17.61,20.69 18.05,20.69 18.05,21.13 18.49,21.13 18.49,19.81 18.05,19.81 18.05,19.37 17.61,19.37 17.61,20.25 17.17,20.25 17.17,20.69 16.29,20.69 16.29,21.13 13.21,21.13 13.21,20.69 12.33,20.69 12.33,20.25 11.01,20.25 11.01,19.81 10.12,19.81 10.12,19.37 9.68,19.37 9.68,18.93 9.24,18.93 9.24,18.49 8.8,18.49 8.8,18.93 "/>
   <polygon class="fil6" points="14.09,26.41 14.09,28.17 16.29,28.17 16.29,26.41 15.85,26.41 15.85,24.65 14.53,24.65 14.53,26.41 "/>
   <polygon class="fil7" points="10.12,11.89 10.12,12.33 9.68,12.33 9.68,13.21 9.68,13.65 10.12,13.65 10.57,13.65 10.57,14.09 11.01,14.09 11.01,14.53 11.45,14.53 11.45,14.97 11.89,14.97 11.89,15.41 12.77,15.41 12.77,15.85 11.89,15.85 11.89,16.29 12.77,16.29 12.77,16.73 13.21,16.73 13.21,15.41 13.65,15.41 13.65,14.97 12.77,14.97 12.77,14.53 11.89,14.53 11.89,14.09 11.45,14.09 11.45,13.65 11.01,13.65 11.01,12.33 11.45,12.33 11.45,11.45 10.12,11.45 "/>
   <polygon class="fil8" points="9.68,11.89 10.12,11.89 10.12,11.45 11.45,11.45 12.77,11.45 20.25,11.45 20.25,11.89 20.69,11.89 20.69,12.33 21.13,12.33 21.13,11.45 20.69,11.45 20.69,11.01 20.25,11.01 18.49,11.01 18.05,11.01 16.73,11.01 16.29,11.01 14.97,11.01 11.45,11.01 11.01,11.01 9.68,11.01 "/>
   <polygon class="fil1" points="18.49,19.3 28.17,19.3 28.17,18.73 18.93,18.73 18.93,18.93 18.49,18.93 "/>
   <polygon class="fil9" points="13.65,14.97 14.09,14.97 14.09,14.53 14.09,14.09 13.21,14.09 13.21,13.65 12.77,13.65 12.77,13.21 12.33,13.21 12.33,11.89 12.77,11.89 12.77,11.45 11.45,11.45 11.45,12.33 11.01,12.33 11.01,13.65 11.45,13.65 11.45,14.09 11.89,14.09 11.89,14.53 12.77,14.53 12.77,14.97 "/>
   <polygon class="fil1" points="19.37,18.29 28.17,18.29 28.17,17.72 19.37,17.72 "/>
   <polygon class="fil1" points="-0,18.29 8.8,18.29 8.8,17.72 -0,17.72 "/>
   <polygon class="fil1" points="-0,19.3 7.92,19.3 7.92,18.93 8.36,18.93 8.36,18.73 -0,18.73 "/>
   <polygon class="fil10" points="12.77,22.01 12.77,22.45 13.65,22.45 13.65,22.01 14.97,22.01 14.97,22.45 15.41,22.45 15.41,22.01 17.61,22.01 17.61,21.57 18.05,21.57 18.05,22.01 18.49,22.01 18.49,21.57 18.93,21.57 18.93,19.81 18.49,19.81 18.49,21.13 18.05,21.13 18.05,20.69 17.61,20.69 17.61,21.13 16.73,21.13 16.73,21.57 13.21,21.57 13.21,22.01 "/>
   <polygon class="fil0" points="18.49,19.37 18.93,19.37 18.93,19.75 28.17,19.75 28.17,19.3 18.49,19.3 "/>
   <polygon class="fil0" points="18.93,18.49 18.93,18.73 28.17,18.73 28.17,18.29 19.37,18.29 19.37,18.49 "/>
   <polygon class="fil0" points="-0,18.73 8.36,18.73 8.36,18.49 8.8,18.49 8.8,18.29 -0,18.29 "/>
   <polygon class="fil0" points="-0,19.75 7.92,19.75 7.92,19.3 -0,19.3 "/>
   <polygon class="fil8" points="14.53,14.53 22.01,14.53 22.01,14.09 20.25,14.09 17.61,14.09 14.53,14.09 "/>
   <path class="fil10" d="M9.68 10.57l0 -0.44 0.44 0 0 0.44 -0.44 0zm1.32 -1.32l0 0.44 -1.76 0 0 0.44 -0.44 0 0 0.44 0.88 0 0 0.44 1.32 0 0 -0.88 0.44 0 0 -0.44 0.44 0 0 -0.44 0.44 0 0 -0.44 -0.88 -0 0 0.44 -0.44 -0z"/>
   <polygon class="fil2" points="9.24,13.65 9.24,14.09 9.68,14.09 9.68,14.53 9.68,14.97 10.12,14.97 10.12,15.41 10.57,15.41 10.57,15.85 11.01,15.85 11.01,16.29 11.45,16.29 11.45,16.73 12.33,16.73 12.33,17.17 12.77,17.17 12.77,16.73 12.77,16.29 11.89,16.29 11.89,15.85 11.45,15.85 11.45,15.41 11.01,15.41 11.01,14.97 10.57,14.97 10.57,14.53 10.12,14.53 10.12,14.09 10.12,13.65 9.68,13.65 9.68,13.21 9.24,13.21 "/>
   <polygon class="fil8" points="7.92,16.29 7.92,15.85 3.52,15.85 3.08,15.85 3.08,15.41 2.64,15.41 2.64,16.29 "/>
   <polygon class="fil8" points="13.65,22.45 14.09,22.45 14.53,22.45 14.53,22.89 14.97,22.89 15.85,22.89 15.85,22.45 16.29,22.45 16.73,22.45 17.17,22.45 17.17,22.89 17.17,23.33 17.61,23.33 17.61,22.89 17.61,22.01 15.41,22.01 15.41,22.45 14.97,22.45 14.97,22.01 13.65,22.01 "/>
   <polygon class="fil8" points="9.24,24.21 7.04,24.21 6.6,24.21 6.6,24.65 9.68,24.65 9.68,26.41 10.12,26.41 10.12,23.77 9.68,23.77 9.68,24.21 "/>
   <polygon class="fil4" points="12.77,7.04 12.77,7.48 13.65,7.48 13.65,7.92 12.77,7.92 12.77,8.36 13.65,8.36 13.65,8.8 14.53,8.8 14.97,8.8 14.97,8.36 14.53,8.36 14.53,7.92 14.09,7.92 14.09,7.48 14.09,7.04 13.65,7.04 13.65,6.6 13.21,6.6 13.21,7.04 "/>
   <polygon class="fil10" points="13.21,10.57 12.77,10.57 12.33,10.57 11.89,10.57 11.45,10.57 11.45,11.01 14.97,11.01 14.97,10.57 15.41,10.57 15.41,10.12 14.97,10.12 14.97,9.68 14.53,9.68 14.53,10.57 "/>
   <polygon class="fil8" points="5.72,22.45 6.16,22.45 6.16,22.89 6.16,23.77 5.28,23.77 4.84,23.77 4.84,23.33 4.4,23.33 4.4,24.21 6.6,24.21 6.6,22.01 5.72,22.01 "/>
   <polygon class="fil8" points="15.85,15.41 16.29,15.41 16.73,15.41 17.61,15.41 18.05,15.41 18.93,15.41 19.37,15.41 20.25,15.41 20.69,15.41 20.69,14.97 15.85,14.97 "/>
   <polygon class="fil8" points="17.61,19.37 18.05,19.37 18.49,19.37 18.49,19.3 18.49,18.93 18.93,18.93 18.93,18.73 18.93,18.49 18.49,18.49 17.61,18.49 17.17,18.49 16.73,18.49 16.29,18.49 15.85,18.49 15.41,18.49 15.41,18.93 17.61,18.93 "/>
   <polygon class="fil4" points="19.37,10.12 19.37,10.57 18.93,10.57 18.93,10.12 18.49,10.12 18.49,11.01 20.25,11.01 20.25,10.57 20.69,10.57 20.69,9.68 20.25,9.68 19.81,9.68 19.81,10.12 "/>
   <polygon class="fil10" points="10.57,21.57 11.01,21.57 11.01,22.45 12.33,22.45 12.33,22.01 12.77,22.01 12.77,21.13 12.33,21.13 12.33,21.57 11.45,21.57 11.45,21.13 10.57,21.13 "/>
   <polygon class="fil8" points="12.77,17.17 12.77,17.61 12.77,20.25 12.33,20.25 12.33,20.69 13.21,20.69 13.21,16.73 12.77,16.73 "/>
   <polygon class="fil11" points="17.61,25.97 17.61,26.41 17.17,26.41 17.17,26.85 17.61,26.85 17.61,27.73 17.17,27.73 17.17,28.17 18.49,28.17 18.49,27.73 18.05,27.73 18.05,25.09 17.61,25.09 "/>
   <polygon class="fil10" points="11.89,7.48 11.89,7.92 12.33,7.92 12.33,8.36 12.33,8.8 13.65,8.8 13.65,8.36 12.77,8.36 12.77,7.92 13.65,7.92 13.65,7.48 12.77,7.48 12.77,7.04 12.33,7.04 12.33,7.48 "/>
   <polygon class="fil7" points="11.89,18.93 12.33,18.93 12.33,17.61 11.45,17.61 11.01,17.61 11.01,17.17 10.57,17.17 10.57,18.05 11.45,18.05 11.45,18.93 "/>
   <polygon class="fil8" points="13.65,6.16 14.09,6.16 14.97,6.16 15.85,6.16 16.29,6.16 16.73,6.16 17.61,6.16 17.61,5.72 13.65,5.72 "/>
   <polygon class="fil8" points="5.72,13.65 7.92,13.65 9.24,13.65 9.24,13.21 5.72,13.2 "/>
   <polygon class="fil8" points="22.89,14.53 22.01,14.53 22.01,14.97 22.45,14.97 22.45,15.41 22.89,15.41 22.89,14.97 24.65,14.97 24.65,14.09 24.21,14.09 24.21,14.53 "/>
   <polygon class="fil8" points="7.92,19.3 7.92,19.75 7.92,21.13 7.48,21.13 7.48,21.57 8.8,21.57 8.8,21.13 8.36,21.13 8.36,19.37 8.36,18.93 7.92,18.93 "/>
   <polygon class="fil10" points="18.05,7.92 18.05,8.36 17.61,8.36 17.61,9.24 18.05,9.24 18.05,8.8 18.93,8.8 18.93,8.36 19.37,8.36 19.37,7.92 18.93,7.92 18.93,7.48 18.49,7.48 18.49,7.92 "/>
   <polygon class="fil4" points="11.89,18.93 11.89,19.81 12.33,19.81 12.33,20.25 12.77,20.25 12.77,17.61 12.33,17.61 12.33,18.93 "/>
   <polygon class="fil12" points="14.97,16.29 14.97,18.05 15.41,18.05 15.41,18.49 15.85,18.49 15.85,18.05 15.85,17.61 15.41,17.61 15.41,16.73 15.85,16.73 15.85,15.85 15.41,15.85 15.41,16.29 "/>
   <polygon class="fil11" points="10.12,23.77 10.12,26.41 10.56,26.41 10.56,22.89 10.13,22.89 "/>
   <polygon class="fil6" points="12.77,24.65 12.77,25.09 13.21,25.09 13.21,26.41 13.65,26.41 13.65,24.21 12.77,24.21 "/>
   <polygon class="fil8" points="16.29,20.69 13.21,20.69 13.21,21.13 16.29,21.13 "/>
   <polygon class="fil7" points="14.53,14.09 17.61,14.09 17.61,13.65 14.53,13.65 "/>
   <polygon class="fil8" points="18.49,22.01 18.49,22.45 18.93,22.45 18.93,22.01 19.37,22.01 19.37,19.81 18.93,19.81 18.93,21.57 18.49,21.57 "/>
   <polygon class="fil11" points="10.12,27.73 10.12,28.17 11.45,28.17 11.45,27.29 11.01,27.29 11,26.41 10.56,26.41 10.56,27.73 "/>
   <polygon class="fil8" points="8.8,11.45 8.8,11.01 9.68,11.01 9.68,10.57 8.8,10.57 8.8,10.12 8.8,9.68 8.36,9.68 8.36,11.45 "/>
   <polygon class="fil6" points="16.73,26.41 17.17,26.41 17.17,25.97 17.61,25.97 17.61,25.09 17.17,25.09 17.17,24.65 16.73,24.65 "/>
   <polygon class="fil4" points="17.61,14.09 20.25,14.09 20.25,13.65 17.61,13.65 "/>
   <polygon class="fil10" points="14.97,8.36 14.97,8.8 15.41,8.8 15.41,9.24 15.41,9.68 16.29,9.68 16.29,9.24 15.85,9.24 15.85,8.8 15.85,7.92 15.41,7.92 15.41,8.36 "/>
   <polygon class="fil13" points="14.09,23.77 14.53,23.77 14.97,23.77 15.41,23.77 15.85,23.77 16.29,23.77 16.73,23.77 16.73,23.33 16.29,23.33 15.85,23.33 14.97,23.33 14.53,23.33 14.09,23.33 "/>
   <polygon class="fil8" points="18.49,27.73 18.49,25.09 18.05,25.09 18.05,27.73 "/>
   <polygon class="fil8" points="8.8,9.68 9.24,9.68 11.01,9.68 11,9.24 8.8,9.24 "/>
   <polygon class="fil4" points="5.72,14.09 7.92,14.09 7.92,13.65 5.72,13.65 "/>
   <polygon class="fil10" points="13.65,26.41 14.09,26.41 14.09,24.65 14.09,24.21 13.65,24.21 "/>
   <polygon class="fil10" points="18.05,11.01 18.49,11.01 18.49,10.12 18.05,10.12 18.05,9.68 17.61,9.68 17.61,10.12 17.17,10.12 17.17,10.57 18.05,10.57 "/>
   <polygon class="fil13" points="14.09,24.65 14.53,24.65 15.85,24.65 16.29,24.65 16.29,24.21 15.85,24.21 15.41,24.21 14.97,24.21 14.53,24.21 14.09,24.21 "/>
   <polygon class="fil10" points="16.29,24.65 16.29,26.41 16.73,26.41 16.73,24.65 16.73,24.21 16.29,24.21 "/>
   <polygon class="fil10" points="16.29,6.6 16.29,7.04 17.61,7.04 17.61,6.6 17.61,6.16 16.73,6.16 16.73,6.6 "/>
   <polygon class="fil8" points="12.33,9.24 13.21,9.24 13.65,9.24 14.53,9.24 14.53,8.8 13.65,8.8 12.33,8.8 "/>
   <polygon class="fil8" points="17.61,23.77 17.61,24.65 17.61,25.09 18.05,25.09 18.05,24.21 18.49,24.21 18.49,23.77 18.05,23.77 18.05,23.33 17.61,23.33 "/>
   <polygon class="fil11" points="6.6,24.21 7.04,24.21 7.04,22.01 6.6,22.01 "/>
   <polygon class="fil8" points="20.69,11.01 21.13,11.01 21.13,11.45 21.57,11.45 21.57,11.01 22.01,11.01 22.01,10.57 20.69,10.57 "/>
   <polygon class="fil10" points="20.69,10.57 22.01,10.57 22.01,10.12 21.13,10.12 21.13,9.68 20.69,9.68 "/>
   <polygon class="fil8" points="8.8,17.72 8.8,18.29 8.8,18.49 9.24,18.49 9.24,16.73 8.8,16.73 "/>
   <polygon class="fil8" points="11.44,8.8 12.33,8.8 12.33,8.36 11.89,8.36 11.89,7.92 11.89,7.48 11.45,7.48 "/>
   <polygon class="fil11" points="12.33,22.89 12.33,23.33 12.77,23.33 13.21,23.33 13.65,23.33 13.65,22.89 12.77,22.89 12.77,22.45 12.33,22.45 "/>
   <polygon class="fil10" points="16.73,28.17 17.17,28.17 17.17,27.73 17.17,26.85 17.17,26.41 16.73,26.41 "/>
   <polygon class="fil6" points="12.77,26.85 12.77,27.29 12.77,27.73 12.77,28.17 13.21,28.17 13.21,26.41 12.77,26.41 "/>
   <polygon class="fil10" points="13.21,28.17 13.65,28.17 13.65,26.41 13.21,26.41 "/>
   <polygon class="fil10" points="8.8,21.13 8.8,19.37 8.36,19.37 8.36,21.13 "/>
   <polygon class="fil8" points="14.97,18.05 14.97,16.29 14.53,16.29 14.53,18.05 "/>
   <polygon class="fil14" points="16.29,26.41 16.29,24.65 15.85,24.65 15.85,26.41 "/>
   <polygon class="fil14" points="13.65,28.17 14.09,28.17 14.09,26.41 13.65,26.41 "/>
   <polygon class="fil7" points="20.25,14.09 22.01,14.09 22.01,13.65 20.25,13.65 "/>
   <polygon class="fil2" points="18.49,24.21 19.37,24.21 19.37,23.77 18.93,23.77 18.93,23.33 18.49,23.33 18.05,23.33 18.05,23.77 18.49,23.77 "/>
   <polygon class="fil14" points="14.09,26.41 14.53,26.41 14.53,24.65 14.09,24.65 "/>
   <polygon class="fil14" points="16.29,28.17 16.73,28.17 16.73,26.41 16.29,26.41 "/>
   <polygon class="fil11" points="12.77,26.41 13.21,26.41 13.21,25.09 12.77,25.09 12.77,25.97 12.33,25.97 12.33,26.41 "/>
   <polygon class="fil8" points="18.93,8.8 19.37,8.8 19.81,8.8 19.81,7.92 19.37,7.92 19.37,8.36 18.93,8.36 "/>
   <polygon class="fil6" points="16.29,23.33 16.73,23.33 17.17,23.33 17.17,22.89 16.73,22.89 16.73,22.45 16.29,22.45 "/>
   <polygon class="fil8" points="9.24,13.21 9.68,13.21 9.68,12.33 9.68,11.89 9.24,11.89 "/>
   <polygon class="fil10" points="8.8,11.45 9.24,11.45 9.24,11.89 9.68,11.89 9.68,11.01 8.8,11.01 "/>
   <polygon class="fil7" points="22.89,14.53 24.21,14.53 24.21,14.09 23.77,14.09 22.89,14.09 "/>
   <polygon class="fil8" points="12.33,22.89 12.33,22.45 11.01,22.45 11.01,22.89 "/>
   <polygon class="fil8" points="15.41,12.33 16.73,12.33 16.73,11.89 15.41,11.89 "/>
   <polygon class="fil8" points="13.21,16.73 13.65,16.73 13.65,15.41 13.21,15.41 "/>
   <polygon class="fil8" points="12.33,20.25 12.33,19.81 11.89,19.81 11.01,19.81 11.01,20.25 "/>
   <polygon class="fil2" points="5.28,23.33 5.28,23.77 6.16,23.77 6.16,22.89 5.72,22.89 5.72,23.33 "/>
   <polygon class="fil7" points="7.92,14.09 9.24,14.09 9.24,13.65 7.92,13.65 "/>
   <polygon class="fil11" points="17.61,22.89 18.05,22.89 18.05,22.45 18.49,22.45 18.49,22.01 18.05,22.01 17.61,22.01 "/>
   <polygon class="fil11" points="12.33,24.21 12.77,24.21 13.65,24.21 13.65,23.77 13.21,23.77 12.77,23.77 12.33,23.77 "/>
   <polygon class="fil8" points="10.12,27.73 10.56,27.73 10.56,26.41 10.12,26.41 "/>
   <polygon class="fil8" points="3.96,14.53 4.4,14.53 4.84,14.53 4.84,14.09 3.96,14.09 "/>
   <polygon class="fil8" points="4.84,14.09 5.28,14.09 5.72,14.09 5.72,13.65 4.84,13.65 "/>
   <polygon class="fil8" points="20.25,9.68 20.69,9.68 21.13,9.68 21.13,9.24 20.25,9.24 "/>
   <polygon class="fil8" points="22.01,12.77 22.01,12.32 21.13,12.33 21.13,12.77 "/>
   <polygon class="fil8" points="22.01,10.12 22.01,9.68 21.13,9.68 21.13,10.12 "/>
   <polygon class="fil8" points="23.77,13.65 23.77,13.21 22.89,13.21 22.89,13.65 "/>
   <polygon class="fil8" points="20.25,16.73 21.13,16.73 21.13,16.29 20.25,16.29 "/>
   <polygon class="fil8" points="22.89,13.21 22.89,12.76 22.01,12.77 22.01,13.21 "/>
   <polygon class="fil8" points="8.8,16.73 8.8,16.29 7.92,16.29 7.92,16.73 "/>
   <polygon class="fil8" points="21.57,15.85 22.45,15.85 22.45,15.41 21.57,15.41 "/>
   <polygon class="fil8" points="18.93,18.05 18.93,18.49 19.37,18.49 19.37,18.29 19.37,17.72 19.37,17.61 18.93,17.61 "/>
   <polygon class="fil6" points="16.29,24.21 16.73,24.21 17.17,24.21 17.17,23.77 16.73,23.77 16.29,23.77 "/>
   <polygon class="fil10" points="14.09,23.33 14.53,23.33 14.53,22.89 14.53,22.45 14.09,22.45 "/>
   <polygon class="fil3" points="17.17,24.21 17.17,24.65 17.61,24.65 17.61,23.77 17.17,23.77 "/>
   <polygon class="fil8" points="18.93,7.48 18.93,7.92 19.37,7.92 19.37,7.04 18.93,7.04 "/>
   <polygon class="fil7" points="21.57,15.41 22.45,15.41 22.45,14.97 22.01,14.97 21.57,14.97 "/>
   <polygon class="fil6" points="17.17,27.73 17.61,27.73 17.61,26.85 17.17,26.85 "/>
   <polygon class="fil8" points="19.37,23.77 19.37,24.21 19.81,24.21 19.81,23.33 19.37,23.33 "/>
   <polygon class="fil8" points="17.17,20.25 17.61,20.25 17.61,19.37 17.17,19.37 "/>
   <polygon class="fil8" points="17.61,6.6 18.05,6.6 18.49,6.6 18.49,6.16 17.61,6.16 "/>
   <polygon class="fil8" points="11.45,17.61 12.33,17.61 12.33,17.17 11.45,17.17 "/>
   <polygon class="fil8" points="11.01,22.45 11.01,21.57 10.57,21.57 10.57,22.45 "/>
   <polygon class="fil10" points="13.65,6.6 13.65,7.04 14.09,7.04 14.09,6.16 13.65,6.16 "/>
   <polygon class="fil4" points="22.01,14.53 22.89,14.53 22.89,14.09 22.01,14.09 "/>
   <polygon class="fil10" points="9.68,21.13 10.57,21.13 10.57,20.69 9.68,20.69 "/>
   <polygon class="fil8" points="19.37,12.33 20.25,12.33 20.25,11.89 19.37,11.89 "/>
   <polygon class="fil8" points="11.01,19.81 11.01,19.37 10.12,19.37 10.12,19.81 "/>
   <polygon class="fil8" points="11.89,15.85 12.77,15.85 12.77,15.41 11.89,15.41 "/>
   <polygon class="fil8" points="12.77,6.6 13.21,6.6 13.65,6.6 13.65,6.16 12.77,6.16 "/>
   <polygon class="fil10" points="15.85,6.16 14.97,6.16 14.97,6.6 15.85,6.6 "/>
   <polygon class="fil8" points="19.37,24.21 18.49,24.21 18.49,24.65 19.37,24.65 "/>
   <polygon class="fil8" points="9.24,15.41 9.68,15.41 9.68,14.97 9.68,14.53 9.24,14.53 "/>
   <polygon class="fil10" points="18.05,7.92 18.05,7.48 18.05,7.04 17.61,7.04 17.61,7.92 "/>
   <polygon class="fil10" points="15.85,22.89 15.85,23.33 16.29,23.33 16.29,22.45 15.85,22.45 "/>
   <polygon class="fil8" points="16.29,20.69 17.17,20.69 17.17,20.25 16.29,20.25 "/>
   <polygon class="fil8" points="9.68,21.57 8.8,21.57 8.8,22.01 9.68,22.01 "/>
   <polygon class="fil7" points="11.45,17.17 12.33,17.17 12.33,16.73 11.45,16.73 "/>
   <polygon class="fil8" points="9.68,21.57 10.57,21.57 10.57,21.13 9.68,21.13 "/>
   <polygon class="fil8" points="18.05,9.24 18.93,9.24 18.93,8.8 18.05,8.8 "/>
   <polygon class="fil8" points="6.6,22.01 7.04,22.01 7.48,22.01 7.48,21.57 6.6,21.57 "/>
   <polygon class="fil10" points="8.8,21.57 9.68,21.57 9.68,21.13 8.8,21.13 "/>
   <polygon class="fil6" points="14.97,23.33 15.85,23.33 15.85,22.89 14.97,22.89 "/>
   <polygon class="fil8" points="18.93,23.33 19.37,23.33 19.37,22.45 18.93,22.45 "/>
   <polygon class="fil9" points="18.49,23.33 18.93,23.33 18.93,22.45 18.49,22.45 "/>
   <polygon class="fil8" points="18.05,22.89 18.05,23.33 18.49,23.33 18.49,22.45 18.05,22.45 "/>
   <polygon class="fil6" points="13.65,22.89 13.65,23.33 14.09,23.33 14.09,22.45 13.65,22.45 "/>
   <polygon class="fil8" points="13.65,22.89 13.65,22.45 12.77,22.45 12.77,22.89 "/>
   <polygon class="fil8" points="22.01,10.57 22.45,10.57 22.45,10.12 22.01,10.12 "/>
   <polygon class="fil8" points="18.49,19.81 18.93,19.81 18.93,19.75 18.93,19.37 18.49,19.37 "/>
   <polygon class="fil8" points="19.37,17.61 19.81,17.61 19.81,17.17 19.37,17.17 "/>
   <polygon class="fil8" points="11,9.24 11.45,9.24 11.44,8.8 11,8.8 "/>
   <polygon class="fil8" points="19.81,17.17 20.25,17.17 20.25,16.73 19.81,16.73 "/>
   <polygon class="fil8" points="9.24,11.89 9.24,11.45 8.8,11.45 8.8,11.89 "/>
   <polygon class="fil8" points="8.36,18.73 8.36,18.93 8.8,18.93 8.8,18.49 8.36,18.49 "/>
   <polygon class="fil8" points="21.13,16.29 21.57,16.29 21.57,15.85 21.13,15.85 "/>
   <polygon class="fil8" points="19.81,9.24 20.25,9.24 20.25,8.8 19.81,8.8 "/>
   <polygon class="fil8" points="3.08,15.41 3.52,15.41 3.52,14.97 3.08,14.97 "/>
   <polygon class="fil8" points="3.52,14.97 3.96,14.97 3.96,14.53 3.52,14.53 "/>
   <polygon class="fil8" points="23.77,14.09 24.21,14.09 24.21,13.65 23.77,13.65 "/>
   <polygon class="fil8" points="11.89,7.48 12.33,7.48 12.33,7.04 11.88,7.04 "/>
   <polygon class="fil10" points="14.09,24.21 14.53,24.21 14.53,23.77 14.09,23.77 "/>
   <polygon class="fil4" points="3.96,14.97 4.4,14.97 4.4,14.53 3.96,14.53 "/>
   <polygon class="fil10" points="18.49,18.49 18.93,18.49 18.93,18.05 18.49,18.05 "/>
   <polygon class="fil10" points="18.49,19.81 18.49,19.37 18.05,19.37 18.05,19.81 "/>
   <polygon class="fil10" points="19.81,9.68 20.25,9.68 20.25,9.24 19.81,9.24 "/>
   <polygon class="fil10" points="19.37,9.24 19.81,9.24 19.81,8.8 19.37,8.8 "/>
   <polygon class="fil7" points="21.13,15.85 21.57,15.85 21.57,15.41 21.13,15.41 "/>
   <polygon class="fil4" points="4.84,14.53 5.28,14.53 5.28,14.09 4.84,14.09 "/>
   <polygon class="fil15" points="8.8,10.12 9.24,10.12 9.24,9.68 8.8,9.68 "/>
   <polygon class="fil4" points="18.49,7.48 18.93,7.48 18.93,7.04 18.49,7.04 "/>
   <polygon class="fil7" points="3.52,15.41 3.96,15.41 3.96,14.97 3.52,14.97 "/>
   <polygon class="fil7" points="3.52,15.85 3.52,15.41 3.08,15.41 3.08,15.85 "/>
   <polygon class="fil10" points="21.13,11.45 21.13,11.01 20.69,11.01 20.69,11.45 "/>
   <polygon class="fil13" points="12.77,23.77 13.21,23.77 13.21,23.33 12.77,23.33 "/>
   <polygon class="fil3" points="17.17,26.41 17.61,26.41 17.61,25.97 17.17,25.97 "/>
   <polygon class="fil3" points="17.61,23.33 18.05,23.33 18.05,22.89 17.61,22.89 "/>
   <polygon class="fil6" points="13.21,23.77 13.65,23.77 13.65,23.33 13.21,23.33 "/>
   <polygon class="fil13" points="12.77,24.65 12.77,24.21 12.33,24.21 12.33,24.65 "/>
   <polygon class="fil6" points="13.65,24.21 14.09,24.21 14.09,23.77 13.65,23.77 "/>
   <polygon class="fil13" points="16.73,24.65 17.17,24.65 17.17,24.21 16.73,24.21 "/>
   <polygon class="fil8" points="17.61,22.01 18.05,22.01 18.05,21.57 17.61,21.57 "/>
   <polygon class="fil8" points="10.12,16.29 10.57,16.29 10.57,15.85 10.12,15.85 "/>
   <polygon class="fil4" points="9.68,16.29 10.12,16.29 10.12,15.85 9.68,15.85 "/>
   <polygon class="fil8" points="20.69,15.85 21.13,15.85 21.13,15.41 20.69,15.41 "/>
   <polygon class="fil7" points="10.12,16.73 10.12,16.29 9.68,16.29 9.68,16.73 "/>
   <polygon class="fil4" points="10.12,16.73 10.57,16.73 10.57,16.29 10.12,16.29 "/>
   <polygon class="fil8" points="10.57,16.73 11.01,16.73 11.01,16.29 10.57,16.29 "/>
   <polygon class="fil10" points="20.69,15.85 20.69,15.41 20.25,15.41 20.25,15.85 "/>
   <polygon class="fil10" points="16.29,15.85 16.73,15.85 16.73,15.41 16.29,15.41 "/>
   <polygon class="fil7" points="12.33,17.61 12.77,17.61 12.77,17.17 12.33,17.17 "/>
   <polygon class="fil12" points="15.85,15.85 16.29,15.85 16.29,15.41 15.85,15.41 "/>
   <polygon class="fil8" points="15.41,15.85 15.85,15.85 15.85,15.41 15.41,15.41 "/>
   <polygon class="fil7" points="11.89,15.85 11.89,15.41 11.45,15.41 11.45,15.85 "/>
   <polygon class="fil7" points="10.12,15.85 10.57,15.85 10.57,15.41 10.12,15.41 "/>
   <polygon class="fil10" points="17.17,18.49 17.61,18.49 17.61,18.05 17.17,18.05 "/>
   <polygon class="fil8" points="9.68,15.85 10.12,15.85 10.12,15.41 9.68,15.41 "/>
   <polygon class="fil7" points="9.68,15.85 9.68,15.41 9.24,15.41 9.24,15.85 "/>
   <polygon class="fil10" points="15.85,18.49 16.29,18.49 16.29,18.05 15.85,18.05 "/>
   <polygon class="fil12" points="16.29,18.49 16.73,18.49 16.73,18.05 16.29,18.05 "/>
   <polygon class="fil7" points="10.57,16.29 11.01,16.29 11.01,15.85 10.57,15.85 "/>
   <polygon class="fil8" points="9.68,18.93 9.68,18.49 9.24,18.49 9.24,18.93 "/>
   <polygon class="fil8" points="14.09,14.97 14.53,14.97 14.53,14.53 14.09,14.53 "/>
   <polygon class="fil7" points="11.01,14.97 11.01,14.53 10.57,14.53 10.57,14.97 "/>
   <polygon class="fil4" points="12.33,8.36 12.33,7.92 11.89,7.92 11.89,8.36 "/>
   <polygon class="fil7" points="4.4,14.97 4.84,14.97 4.84,14.53 4.4,14.53 "/>
   <polygon class="fil8" points="10.57,14.53 11.01,14.53 11.01,14.09 10.57,14.09 "/>
   <polygon class="fil8" points="5.28,22.89 5.72,22.89 5.72,22.45 5.28,22.45 "/>
   <polygon class="fil4" points="5.72,22.89 6.16,22.89 6.16,22.45 5.72,22.45 "/>
   <polygon class="fil7" points="10.57,14.53 10.57,14.09 10.12,14.09 10.12,14.53 "/>
   <polygon class="fil7" points="9.24,14.53 9.68,14.53 9.68,14.09 9.24,14.09 "/>
   <polygon class="fil7" points="5.28,14.53 5.72,14.53 5.72,14.09 5.28,14.09 "/>
   <polygon class="fil10" points="18.05,15.41 17.61,15.41 17.61,15.85 18.05,15.85 "/>
   <polygon class="fil7" points="14.09,14.53 14.53,14.53 14.53,14.09 14.09,14.09 "/>
   <polygon class="fil8" points="10.12,14.09 10.57,14.09 10.57,13.65 10.12,13.65 "/>
   <polygon class="fil9" points="14.09,14.09 14.53,14.09 14.53,13.65 14.09,13.65 "/>
   <polygon class="fil8" points="20.69,12.33 20.25,12.33 20.25,12.77 20.69,12.77 "/>
   <polygon class="fil15" points="16.29,11.01 16.73,11.01 16.73,10.57 16.29,10.57 "/>
   <polygon class="fil14" points="14.53,24.21 14.97,24.21 14.97,23.77 14.53,23.77 "/>
   <polygon class="fil14" points="15.41,24.21 15.85,24.21 15.85,23.77 15.41,23.77 "/>
   <polygon class="fil10" points="15.85,24.21 16.29,24.21 16.29,23.77 15.85,23.77 "/>
   <polygon class="fil2" points="20.25,12.33 20.69,12.33 20.69,11.89 20.25,11.89 "/>
   <polygon class="fil4" points="9.68,12.33 10.12,12.33 10.12,11.89 9.68,11.89 "/>
   <polygon class="fil15" points="16.29,6.6 16.73,6.6 16.73,6.16 16.29,6.16 "/>
   <polygon class="fil15" points="17.61,7.04 18.05,7.04 18.05,6.6 17.61,6.6 "/>
   <polygon class="fil16" points="18.05,7.04 18.49,7.04 18.49,6.6 18.05,6.6 "/>
   <polygon class="fil10" points="20.25,11.01 20.69,11.01 20.69,10.57 20.25,10.57 "/>
   <polygon class="fil15" points="14.53,7.92 14.53,7.48 14.09,7.48 14.09,7.92 "/>
   <polygon class="fil16" points="12.33,10.57 12.77,10.57 12.77,10.12 12.33,10.12 "/>
   <polygon class="fil4" points="9.68,10.57 10.12,10.57 10.12,10.12 9.68,10.12 "/>
   <polygon class="fil15" points="11.89,10.57 12.33,10.57 12.33,10.12 11.89,10.12 "/>
   <polygon class="fil16" points="14.53,7.92 14.97,7.92 14.97,7.48 14.53,7.48 "/>
   <polygon class="fil15" points="12.33,10.12 12.77,10.12 12.77,9.68 12.33,9.68 "/>
   <polygon class="fil4" points="18.05,7.92 18.49,7.92 18.49,7.48 18.05,7.48 "/>
   <polygon class="fil15" points="19.37,10.12 19.81,10.12 19.81,9.68 19.37,9.68 "/>
   <polygon class="fil15" points="18.49,10.12 18.93,10.12 18.93,9.68 18.49,9.68 "/>
   <polygon class="fil15" points="14.97,8.36 14.97,7.92 14.53,7.92 14.53,8.36 "/>
   <polygon class="fil10" points="13.65,9.24 13.21,9.24 13.21,9.68 13.65,9.68 "/>
   <polygon class="fil4" points="19.37,9.68 19.81,9.68 19.81,9.24 19.37,9.24 "/>
   <polygon class="fil15" points="16.29,9.68 16.73,9.68 16.73,9.24 16.29,9.24 "/>
   <polygon class="fil15" points="16.29,8.8 16.73,8.8 16.73,8.36 16.29,8.36 "/>
   <polygon class="fil8" points="12.33,22.45 12.77,22.45 12.77,22.01 12.33,22.01 "/>
   <polygon class="fil8" points="11.01,14.97 11.45,14.97 11.45,14.53 11.01,14.53 "/>
   <polygon class="fil7" points="10.57,17.17 10.57,16.73 10.12,16.73 10.12,17.17 "/>
   <polygon class="fil7" points="11.01,16.73 11.45,16.73 11.45,16.29 11.01,16.29 "/>
   <polygon class="fil9" points="19.37,23.77 19.37,23.33 18.93,23.33 18.93,23.77 "/>
   <polygon class="fil7" points="9.68,15.41 10.12,15.41 10.12,14.97 9.68,14.97 "/>
   <polygon class="fil8" points="19.37,12.33 18.93,12.33 18.93,12.77 19.37,12.77 "/>
   <polygon class="fil4" points="11.45,17.61 11.45,17.17 11.01,17.17 11.01,17.61 "/>
   <polygon class="fil16" points="18.93,10.12 19.37,10.12 19.37,9.68 18.93,9.68 "/>
   <polygon class="fil4" points="14.97,8.36 15.41,8.36 15.41,7.92 14.97,7.92 "/>
   <polygon class="fil15" points="14.97,7.92 15.41,7.92 15.41,7.48 14.97,7.48 "/>
   <polygon class="fil8" points="11.45,15.41 11.89,15.41 11.89,14.97 11.45,14.97 "/>
   <polygon class="fil6" points="14.97,24.21 15.41,24.21 15.41,23.77 14.97,23.77 "/>
   <polygon class="fil8" points="14.97,16.29 15.41,16.29 15.41,15.85 14.97,15.85 "/>
   <polygon class="fil8" points="10.12,19.37 10.12,18.93 9.68,18.93 9.68,19.37 "/>
   <polygon class="fil8" points="15.41,12.33 14.97,12.33 14.97,12.77 15.41,12.77 "/>
   <polygon class="fil15" points="18.05,7.48 18.49,7.48 18.49,7.04 18.05,7.04 "/>
   <polygon class="fil16" points="16.29,9.24 16.73,9.24 16.73,8.8 16.29,8.8 "/>
   <polygon class="fil15" points="14.53,7.48 14.97,7.48 14.97,7.04 14.53,7.04 "/>
   <polygon class="fil10" points="14.09,7.48 14.53,7.48 14.53,7.04 14.09,7.04 "/>
   <polygon class="fil15" points="16.29,9.24 16.29,8.8 15.85,8.8 15.85,9.24 "/>
   <polygon class="fil8" points="15.41,18.49 15.41,18.05 14.97,18.05 14.97,18.49 "/>
   <polygon class="fil8" points="13.65,15.41 14.09,15.41 14.09,14.97 13.65,14.97 "/>
   <polygon class="fil15" points="12.77,7.04 13.21,7.04 13.21,6.6 12.77,6.6 "/>
   <polygon class="fil10" points="14.53,9.24 14.97,9.24 14.97,8.8 14.53,8.8 "/>
   <polygon class="fil15" points="18.93,9.68 19.37,9.68 19.37,9.24 18.93,9.24 "/>
   <polygon class="fil4" points="5.28,23.77 5.28,23.33 4.84,23.33 4.84,23.77 "/>
   <polygon class="fil4" points="5.28,23.33 5.72,23.33 5.72,22.89 5.28,22.89 "/>
   <polygon class="fil10" points="19.37,15.41 18.93,15.41 18.93,15.85 19.37,15.85 "/>
   <polygon class="fil8" points="16.73,12.33 16.73,12.77 17.17,12.77 17.17,12.33 "/>
   <polygon class="fil4" points="10.57,17.17 11.01,17.17 11.01,16.73 10.57,16.73 "/>
   <polygon class="fil15" points="12.77,10.57 13.21,10.57 13.21,10.12 12.77,10.12 "/>
   <polygon class="fil14" points="14.53,23.33 14.97,23.33 14.97,22.89 14.53,22.89 "/>
   <polygon class="fil15" points="19.37,10.12 18.93,10.12 18.93,10.57 19.37,10.57 "/>
   <polygon class="fil8" points="18.49,28.17 18.93,28.17 18.93,27.73 18.49,27.73 "/>
   <polygon class="fil7" points="11.45,15.41 11.45,14.97 11.01,14.97 11.01,15.41 "/>
   <polygon class="fil8" points="11.01,17.17 11.45,17.17 11.45,16.73 11.01,16.73 "/>
   <polygon class="fil8" points="4.84,23.33 5.28,23.33 5.28,22.89 4.84,22.89 "/>
   <polygon class="fil8" points="14.97,9.24 15.41,9.24 15.41,8.8 14.97,8.8 "/>
   <polygon class="fil4" points="18.93,9.24 19.37,9.24 19.37,8.8 18.93,8.8 "/>
   <polygon class="fil15" points="16.73,9.24 17.17,9.24 17.17,8.8 16.73,8.8 "/>
   <polygon class="fil8" points="9.68,28.17 10.12,28.17 10.12,27.73 9.68,27.73 "/>
   <polygon class="fil11" points="17.17,22.89 17.17,22.45 16.73,22.45 16.73,22.89 "/>
   <polygon class="fil11" points="17.61,25.09 17.61,24.65 17.17,24.65 17.17,25.09 "/>
   <polygon class="fil13" points="17.17,23.77 17.61,23.77 17.61,23.33 17.17,23.33 "/>
   <polygon class="fil11" points="9.24,24.21 9.68,24.21 9.68,23.77 9.24,23.77 "/>
   <polygon class="fil8" points="18.49,7.04 18.93,7.04 18.93,6.63 18.88,6.6 18.49,6.6 "/>
   <polygon class="fil8" points="12.33,7.04 12.77,7.04 12.77,6.6 12.37,6.6 12.32,6.63 "/>
   <polygon class="fil11" points="12.33,28.17 12.77,28.17 12.77,27.73 12.33,27.73 "/>
   <polygon class="fil11" points="12.77,27.29 12.77,26.85 12.33,26.85 12.33,27.29 "/>
   <polygon class="fil3" points="13.65,23.77 14.09,23.77 14.09,23.33 13.65,23.33 "/>
   <polygon class="fil3" points="16.73,23.77 17.17,23.77 17.17,23.33 16.73,23.33 "/>
  </g>
 </g>
</svg>
