<?xml version="1.0" encoding="UTF-8"?>
<!DOCTYPE svg PUBLIC "-//W3C//DTD SVG 1.1//EN" "http://www.w3.org/Graphics/SVG/1.1/DTD/svg11.dtd">
<!-- Creator: CorelDRAW 2020 (64-Bit) -->
<svg xmlns="http://www.w3.org/2000/svg" xml:space="preserve" width="406.12mm" height="149.336mm" version="1.1" style="shape-rendering:geometricPrecision; text-rendering:geometricPrecision; image-rendering:optimizeQuality; fill-rule:evenodd; clip-rule:evenodd"
viewBox="0 0 4877.43 1793.51"
 xmlns:xlink="http://www.w3.org/1999/xlink"
 xmlns:xodm="http://www.corel.com/coreldraw/odm/2003">
 <defs>
  <style type="text/css">
   <![CDATA[
    .fil1 {fill:#00B8FE}
    .fil2 {fill:#00F6FF}
    .fil0 {fill:#2B83F6}
    .fil3 {fill:#569DFC}
    .fil4 {fill:#94D9FD}
   ]]>
  </style>
 </defs>
 <g id="Layer_x0020_1">
  <metadata id="CorelCorpID_0Corel-Layer"/>
  <g id="_2002165785312">
   <path class="fil0" d="M242.61 0l-242.61 0 0 242.61 0 242.61 0 242.61 0 242.61 242.61 0 242.61 0 242.61 0 0 -242.61 0 -242.61 0 -242.61 -242.61 0 -242.61 0 0 -242.61zm242.61 485.22l0 242.61 -242.61 0 0 -242.61 242.61 0z"/>
   <g>
    <path class="fil0" d="M843.2 727.82l488.91 0 0 -242.61 238.92 0 0 485.22 -211.94 0 -26.97 0 -488.91 0 0 -242.61 0 0zm0 -485.22l485.22 0 0 242.61 -485.22 0 0 -242.61z"/>
   </g>
   <path class="fil0" d="M1910.58 0l-242.61 0 0 242.61 0 242.61 0 242.61 0 242.61 242.61 0 242.61 0 242.61 0 0 -242.61 0 -242.61 0 -242.61 -242.61 0 -242.61 0 0 -242.61zm242.61 485.22l0 242.61 -242.61 0 0 -242.61 242.61 0z"/>
   <polygon class="fil0" points="2724.93,485.22 2967.54,485.22 2967.54,242.61 3210.15,242.61 3210.15,970.43 2967.54,970.43 2967.54,727.83 2724.93,727.83 2724.93,485.22 2482.33,485.22 2482.33,242.61 2724.93,242.61 "/>
   <g>
    <polygon class="fil0" points="-0,1550.9 242.61,1550.9 242.61,1308.29 242.61,1065.68 485.22,1065.68 727.82,1065.68 727.82,1308.29 485.22,1308.29 485.22,1550.9 485.22,1793.51 -0,1793.51 "/>
    <polygon class="fil0" points="824.77,1793.51 824.77,1065.68 1067.38,1065.68 1067.38,1308.29 1309.99,1308.29 1309.99,1065.68 1552.59,1065.68 1552.59,1793.51 1309.99,1793.51 1309.99,1550.9 1067.38,1550.9 1067.38,1793.51 "/>
    <g>
     <path class="fil0" d="M1639.12 1065.68l485.22 0 0 242.61 -485.22 0 0 -242.61zm488.91 242.61l238.92 0 0 485.22 -211.94 0 -26.97 0 -488.91 0 0 -242.61 488.91 0 0 -242.61 0 0z"/>
    </g>
    <polygon class="fil0" points="2439.86,1065.68 2682.47,1065.68 2925.07,1065.68 2925.07,1308.29 2682.47,1308.29 2682.47,1793.51 2439.86,1793.51 2439.86,1308.29 "/>
    <polygon class="fil0" points="3489.94,1550.9 3732.55,1550.9 3732.55,1793.51 3489.94,1793.51 3489.94,1550.9 3247.33,1550.9 3247.33,1793.51 3004.73,1793.51 3004.73,1550.9 3004.73,1308.29 3004.73,1065.68 3247.33,1065.68 3247.33,1308.29 3489.94,1308.29 3489.94,1065.68 3732.55,1065.68 3732.55,1308.29 3489.94,1308.29 "/>
   </g>
   <g>
    <path class="fil1" d="M4000.13 1665.44l0.37 -42.95 20.67 0.02 -0.23 42.43 -20.81 0.5zm684.42 -171.9l0.26 -106.62 20.98 -0.11 0.13 106.29 -21.37 0.44zm-406.25 -192.18l21.21 0.19 -0.15 20.96 -21 0.07 -0.06 -21.21zm149.78 -85.25l-0.28 20.67 -42.07 0.12 0.08 -20.68 42.27 -0.1zm21.77 -21.91l0.07 -21.23 42.24 0.08 -0.13 21.02 -42.19 0.13zm128.57 -64.19l0.02 -21.22 42.12 0.14 -0.15 20.87 -41.99 0.21zm42.13 -22.02c-7.43,-1.35 -36.97,-1.85 -43.25,0.61l-0.11 21.38 1.24 0.03 -0.49 21.77 -43.42 -0.08 0.22 20.97 -42.61 -0.44c-7.4,-1.35 -36.78,-1.82 -43.22,0.5l-0.35 21.53 1.3 -0.07 -0.58 21.66 -21.19 0.25 -0.02 -1.4 -43.1 0.41 -0.43 20.7c-3.59,0 -7.1,-0.01 -10.62,-0.04l-7.52 0.34c-2.43,0.53 -2.24,0.63 -3.04,1.14l21.61 0.09 0.02 20.94 -21.3 0.09 -0.51 21.27 -42.1 0.42 -0.36 20.85 -21.23 -0.25 -21.85 -0.48 -0.12 22.42 -0.17 21.38 -19.97 -0.28c0.29,6.77 1.74,15.99 -1.11,22.19l-21.01 0.39 -0.12 20.48 -21.04 0.03 0.24 -20.57 0.3 -1.26c-3.49,4.19 -2.39,15.62 -1.47,21.83l0.03 21.28c-7,0.17 -14.16,-0.6 -20.77,1.04l-0.26 20.21 -21.14 -0.21c-6.12,-1.18 -17.64,-2.16 -21.85,1.26l1.23 -0.29 20.65 -0.16 -20.57 21.1 -0.57 20.98c-5.93,2.85 -15.28,1.59 -21.93,1.19l0.24 41.55 -21.41 0.48 0.24 20.81c-4.4,2.83 -15.79,1.49 -21.18,1.57 -0.03,4.01 1.24,17.03 -1.3,19.61 -1.4,2.15 -14.05,1.16 -19.64,1.39l-1.56 21.01 -20.78 -0.16 -0.09 42.46 -21 0.24 -0.02 -43.05c-0.19,0.3 -0.38,0.44 -0.43,0.97 -1.88,19.42 -0.52,21.43 -1.07,40.94 -6.67,0.15 -14.49,-1.12 -20.58,1.25l-0.16 42.18c-6.03,0.05 -16.44,-1.38 -20.72,1.2l21.59 -0.21 -0.47 41.99 -21.29 0.45 -0.03 20.35 0.08 1.39 0.04 20.36c9.55,1.17 78.22,1.5 85.46,-0.18l0.21 -20.26 85.32 -0.33 0.18 20.65 85.41 0.5 0.28 -20.91 85.9 -0.22 -0.01 20.98 84.92 0.28 0.43 -21.38 84.76 0.07 0.96 20.84c9.92,1.11 78.06,1.57 85.35,-0.23l0.21 -20.3 85.66 -0.23 -0.1 -235.05 21.14 -0.66 -0.05 1.16 21.53 -0.49c2.39,-5.47 2.43,-97.76 0.78,-107.32l-0.43 -106.99 21.17 0.17 0.31 -107.24 21.21 -0.11 -0.09 -85.58 -64.32 -0.04 -0.04 21.26 -64.06 -0.38z"/>
    <polygon class="fil2" points="4663.51,1729.25 4663.35,1750.06 4684.83,1750.44 4684.5,1494.7 4684.55,1493.54 4663.41,1494.2 "/>
    <polygon class="fil2" points="4684.66,1087.11 4748.99,1087.15 4749.08,1172.73 4770.52,1172.64 4770.46,1066.1 4684.78,1065.68 "/>
    <polygon class="fil2" points="4727.56,1280.07 4748.67,1279.8 4749.08,1172.73 4727.87,1172.83 "/>
    <polygon class="fil2" points="4684.55,1493.54 4705.92,1493.1 4705.79,1386.81 4684.81,1386.92 "/>
    <polygon class="fil2" points="4706.81,1386.89 4727.56,1386.82 4727.56,1280.07 4706.39,1279.9 "/>
    <polygon class="fil2" points="4620.56,1107.99 4684.62,1108.37 4684.66,1087.11 4620.56,1087.1 "/>
    <polygon class="fil2" points="4321.08,1280.05 4363.18,1279.63 4363.69,1258.36 4321.36,1258.35 "/>
    <path class="fil2" d="M4171.05 1429.1l21.14 0.21 0.26 -20.21c6.61,-1.65 13.77,-0.87 20.77,-1.04l-0.03 -21.28 -20.73 0.01 -0.13 20.68 -21.27 0.72 0 20.92z"/>
    <polygon class="fil2" points="4106.84,1515.22 4128.25,1514.74 4128.01,1473.19 4106.88,1472.9 "/>
    <polygon class="fil2" points="4449.86,1194.2 4492.05,1194.07 4492.18,1173.05 4449.93,1172.97 "/>
    <polygon class="fil2" points="4492.13,1172.23 4534.74,1172.67 4534.52,1151.7 4492.12,1151.28 "/>
    <polygon class="fil2" points="4578.44,1130.01 4620.43,1129.8 4620.58,1108.93 4578.45,1108.79 "/>
    <polygon class="fil2" points="4428.09,1216.11 4385.82,1216.21 4385.74,1236.89 4427.81,1236.77 "/>
    <polygon class="fil2" points="4577.2,1129.98 4536.79,1129.98 4536.18,1150.18 4576.89,1150.32 "/>
    <polygon class="fil2" points="4363.69,1258.36 4384.99,1258.28 4384.98,1237.33 4363.37,1237.25 "/>
    <polygon class="fil2" points="4278.37,1322.57 4299.37,1322.5 4299.52,1301.55 4278.31,1301.36 "/>
    <polygon class="fil2" points="4299.49,1300.66 4320.72,1300.9 4321.08,1280.05 4299.43,1280.22 "/>
    <polygon class="fil2" points="4150.51,1451.02 4170.98,1450.98 4171.08,1429.92 4150.43,1430.07 "/>
    <polygon class="fil2" points="4107.08,1536.04 4106.84,1515.22 4086.51,1515.24 4086.19,1536.21 "/>
    <polygon class="fil2" points="4235.27,1366.26 4214.36,1366.2 4214.12,1386.77 4235.16,1386.75 "/>
    <polygon class="fil2" points="4257.39,1343.69 4277.36,1343.98 4277.52,1322.6 4257.16,1322.62 "/>
    <polygon class="fil2" points="4042.62,1579.46 4063.41,1579.62 4063.52,1558.87 4042.64,1559.11 "/>
    <polygon class="fil2" points="4128.19,1471.97 4148.64,1471.93 4149.09,1451.02 4128.73,1451.05 "/>
    <polygon class="fil2" points="4235.28,1364.82 4256,1364.48 4256.13,1343.92 4235.31,1344.46 "/>
    <polygon class="fil2" points="4064.02,1557.22 4084.61,1557.22 4084.62,1536.61 4063.99,1536.6 "/>
    <polygon class="fil2" points="4428.07,1214.7 4448.33,1214.64 4448.56,1194.26 4427.92,1194.14 "/>
    <path class="fil2" d="M4534.52 1151.7l43.42 0.08 0.49 -21.77 -1.24 -0.03 -0.31 20.35 -40.72 -0.14 0.61 -20.2c-3.38,1.63 -1.3,-1.64 -2.27,3.74 -0.07,0.41 0.06,5.62 0.07,6.46 0.06,3.84 -0.02,7.71 -0.07,11.51z"/>
    <path class="fil2" d="M4235.28 1364.82l-20.62 0.12 -0.3 1.26 20.91 0.06 21.01 -0.39c2.84,-6.2 1.39,-15.42 1.11,-22.19l-1.26 0.23 -0.13 20.56 -20.72 0.34z"/>
    <path class="fil2" d="M4084.62 1536.61l-0.02 20.61c2.54,-2.58 1.26,-15.61 1.3,-19.61 5.39,-0.07 16.79,1.26 21.18,-1.57l-20.89 0.17 0.32 -20.97c-1.68,1.88 -1.3,-2.86 -1.59,3.83l-0.3 17.54z"/>
    <path class="fil2" d="M4149.09 1451.02l-0.45 20.91 -20.45 0.04 -0.18 1.22c6.65,0.4 16,1.65 21.93,-1.19l0.57 -20.98 -0.08 -20.94 -1.23 0.29 -0.11 20.66z"/>
    <path class="fil2" d="M4063.41 1579.62l1.56 -21.01c5.6,-0.23 18.24,0.76 19.64,-1.39l-20.58 0c-9.77,0.97 -17.42,-1.04 -21.38,1.89l20.87 -0.25 -0.11 20.75z"/>
    <polygon class="fil2" points="4428.07,1214.7 4428.09,1216.11 4449.28,1215.86 4449.86,1194.2 4448.56,1194.26 4448.33,1214.64 "/>
    <path class="fil2" d="M4106.88 1472.9l21.13 0.3 0.18 -1.22 0.53 -20.93c-1.12,1.75 -0.89,-0.35 -1.34,3.76 -0.12,1.04 -0.02,3.96 -0.01,5.17 0.02,3.85 0.03,7.68 -0.01,11.53l-17.87 0.2c-2.58,0.52 -1.22,0.3 -2.62,1.19z"/>
    <g>
     <polygon class="fil2" points="3978.37,1707.88 3999.67,1707.43 4000.13,1665.44 3978.54,1665.65 "/>
     <polygon class="fil2" points="4042.62,1579.46 4021.51,1579.11 4021.52,1622.16 4042.53,1621.92 "/>
     <polygon class="fil2" points="4000.13,1665.44 4020.94,1664.94 4021.18,1622.51 4000.5,1622.49 "/>
     <polygon class="fil2" points="3978.34,1728.23 3978.37,1707.88 3957.92,1707.89 3957.88,1728.25 "/>
     <path class="fil2" d="M3956.75 1729.37l21.68 0.25 -0.08 -1.39 -20.46 0.01 0.04 -20.36c-1.85,1.44 -0.83,-1.5 -1.41,3.77 -0.15,1.33 0.03,4.92 0.05,6.47 0.03,3.82 -0.02,7.42 0.2,11.24z"/>
     <g>
      <path class="fil3" d="M3849.99 1750.77l0 42.74 1027.44 0 0 -42.64 -42.7 -0.09 -0.39 -21.49 -85.33 0.05c-0.33,27.14 10.05,21.3 -42.39,21.38 -13.25,0.02 -30.16,0.93 -43.14,-0.25l-0.23 -21.19 -85.39 -0.01 -0.58 20.9c-7.38,1.56 -78.71,1.3 -83.85,-0.34 -2.63,-4.55 -1.06,-13.85 -1.43,-20.48l-85.52 0.32 -0.67 21.22 -84.79 -0.12 -0.46 -21.46 -85.25 0.04 -0.54 21.39 -85.04 -0.28 -0.27 -21.17 -85.35 -0.02 -0.41 21.05c-11.27,1.92 -41.21,0.34 -54.46,0.32 -30.63,-0.04 -31.72,3.51 -31.55,-8.39 0.06,-4.51 0.27,-8.15 -0.18,-12.89l-84.58 -0.15 -0.29 21.36 -42.65 0.21z"/>
      <path class="fil4" d="M3978.44 1686.82l-21.68 -0.25 -63.82 -0.25 -0.58 19.72c-6.34,4.06 -32.84,1.56 -42.38,1.56l0 43.16 42.65 -0.21 0.29 -21.36 84.58 0.15c0.45,4.74 0.24,8.38 0.18,12.89 -0.17,11.89 0.92,8.35 31.55,8.39 13.25,0.02 43.19,1.6 54.46,-0.32l0.41 -21.05 85.35 0.02 0.27 21.17 85.04 0.28 0.54 -21.39 85.25 -0.04 0.46 21.46 84.79 0.12 0.67 -21.22 85.52 -0.32c0.37,6.63 -1.2,15.93 1.43,20.48 5.14,1.64 76.47,1.9 83.85,0.34l0.58 -20.9 85.39 0.01 0.23 21.19c12.98,1.18 29.89,0.27 43.14,0.25 52.44,-0.08 42.06,5.75 42.39,-21.38l85.33 -0.05 0.39 21.49 42.7 0.09 0 -43.2c-8.63,-0.01 -36.51,1.33 -42.74,-1.14l-0.5 -19.8c-13.96,-0.63 -28.76,-0.22 -42.81,-0.22 -48.93,0.03 -41.26,-4.04 -41.89,20.11 -6.59,2.04 -54.23,1.16 -64.64,1.01l-21.48 -0.39 0.16 -20.8 -85.66 0.23 -0.21 20.3c-7.29,1.8 -75.43,1.33 -85.35,0.23l-0.96 -20.84 -84.76 -0.07 -0.43 21.38 -84.92 -0.28 0.01 -20.98 -85.9 0.21 -0.27 20.91 -85.41 -0.5 -0.18 -20.65 -85.32 0.33 -0.21 20.27c-7.24,1.68 -75.91,1.35 -85.46,0.18l-0.04 -20.36z"/>
     </g>
    </g>
   </g>
  </g>
 </g>
</svg>
