<?xml version="1.0" encoding="UTF-8"?>
<!DOCTYPE svg PUBLIC "-//W3C//DTD SVG 1.1//EN" "http://www.w3.org/Graphics/SVG/1.1/DTD/svg11.dtd">
<!-- Creator: CorelDRAW 2020 (64-Bit) -->
<svg xmlns="http://www.w3.org/2000/svg" xml:space="preserve" width="206.657mm" height="110.99mm" version="1.1" style="shape-rendering:geometricPrecision; text-rendering:geometricPrecision; image-rendering:optimizeQuality; fill-rule:evenodd; clip-rule:evenodd"
viewBox="0 0 2612.79 1403.27"
 xmlns:xlink="http://www.w3.org/1999/xlink"
 xmlns:xodm="http://www.corel.com/coreldraw/odm/2003">
 <defs>
  <style type="text/css">
   <![CDATA[
    .fil1 {fill:none}
    .fil4 {fill:#00B8FE}
    .fil5 {fill:#00F6FF}
    .fil14 {fill:#044352}
    .fil16 {fill:#077189}
    .fil11 {fill:#21181B}
    .fil19 {fill:#24F8FC}
    .fil21 {fill:#313131}
    .fil13 {fill:#4C6885}
    .fil10 {fill:#4FA4B8}
    .fil6 {fill:#569DFC}
    .fil15 {fill:#686F99}
    .fil18 {fill:#72D9F5}
    .fil17 {fill:#77FBF4}
    .fil20 {fill:#8DFCF2}
    .fil12 {fill:#92E8C0}
    .fil7 {fill:#94D9FD}
    .fil23 {fill:#A09F9F}
    .fil27 {fill:#AB5030}
    .fil26 {fill:#AD2F45}
    .fil22 {fill:#B1AFAF}
    .fil9 {fill:#DFE0E8}
    .fil29 {fill:#E64538}
    .fil28 {fill:#F0B541}
    .fil8 {fill:#F4FEE9}
    .fil24 {fill:#F5FFE7}
    .fil25 {fill:#FEFF8D}
    .fil2 {fill:black;fill-rule:nonzero}
    .fil3 {fill:#343235;fill-rule:nonzero}
    .fil0 {fill:white;fill-opacity:0.000000}
   ]]>
  </style>
    <clipPath id="id0">
     <path d="M80.29 0c-44.34,0 -80.29,35.94 -80.29,80.29l0 217.43c0,44.34 35.94,80.29 80.29,80.29l1068.11 0 98.33 98.34 98.33 -98.34 1066.79 0c44.34,0 80.29,-35.94 80.29,-80.29l0 -217.43c0,-44.34 -35.94,-80.29 -80.29,-80.29l-2331.58 0 0.01 0z"/>
    </clipPath>
    <clipPath id="id1">
     <path d="M80.29 0c-44.34,0 -80.29,35.94 -80.29,80.29l0 217.43c0,44.34 35.94,80.29 80.29,80.29l1068.11 0 98.33 98.34 98.33 -98.34 1066.79 0c44.34,0 80.29,-35.94 80.29,-80.29l0 -217.43c0,-44.34 -35.94,-80.29 -80.29,-80.29l-2331.58 0 0.01 0z"/>
    </clipPath>
 </defs>
 <g id="Layer_x0020_1">
  <metadata id="CorelCorpID_0Corel-Layer"/>
  <g id="_2002116908048">
   <g>
   </g>
   <g style="clip-path:url(#id0)">
    <g id="_1999723766144">
     <polygon class="fil0" points="-0,0 2492.15,0 2492.15,476.34 -0,476.34 "/>
    </g>
   </g>
   <path class="fil1" d="M80.29 0c-44.34,0 -80.29,35.94 -80.29,80.29l0 217.43c0,44.34 35.94,80.29 80.29,80.29l1068.11 0 98.33 98.34 98.33 -98.34 1066.79 0c44.34,0 80.29,-35.94 80.29,-80.29l0 -217.43c0,-44.34 -35.94,-80.29 -80.29,-80.29l-2331.58 0 0.01 0z"/>
   <g>
   </g>
   <g style="clip-path:url(#id1)">
    <g>
     <path id="_1" class="fil2" d="M1148.4 378.01l7.1 -7.09 -2.94 -2.94 -4.16 0 0 10.03zm98.33 98.34l-7.1 7.1 7.1 7.1 7.1 -7.1 -7.1 -7.1zm98.33 -98.34l0 -10.03 -4.16 0 -2.94 2.94 7.1 7.09zm-1335.04 -297.72c0,-38.8 31.46,-70.24 70.24,-70.24l0 -20.07c-49.88,0 -90.32,40.44 -90.32,90.32l20.07 0zm0 217.43l0 -217.43 -20.07 0 0 217.43 20.07 0zm70.24 70.24c-38.8,0 -70.24,-31.46 -70.24,-70.24l-20.07 0c0,49.89 40.44,90.32 90.32,90.32l0 -20.07zm1068.11 0l-1068.11 0 0 20.07 1068.11 0 0 -20.07zm105.43 101.27l-98.33 -98.33 -14.19 14.19 98.34 98.34 14.19 -14.19 -0.01 -0.01zm84.14 -98.33l-98.33 98.33 14.19 14.19 98.34 -98.34 -14.19 -14.19 -0.01 0.01zm1073.89 -2.94l-1066.79 0 0 20.07 1066.79 0 0 -20.07zm70.24 -70.24c0,38.8 -31.46,70.24 -70.24,70.24l0 20.07c49.88,0 90.32,-40.44 90.32,-90.32l-20.07 0zm0 -217.43l0 217.43 20.07 0 0 -217.43 -20.07 0zm-70.24 -70.24c38.8,0 70.24,31.46 70.24,70.24l20.07 0c0,-49.88 -40.44,-90.32 -90.32,-90.32l0 20.07zm-2331.58 0l2331.58 0 0 -20.07 -2331.58 0 0 20.07z"/>
    </g>
   </g>
   <path class="fil1" d="M80.29 0c-44.34,0 -80.29,35.94 -80.29,80.29l0 217.43c0,44.34 35.94,80.29 80.29,80.29l1068.11 0 98.33 98.34 98.33 -98.34 1066.79 0c44.34,0 80.29,-35.94 80.29,-80.29l0 -217.43c0,-44.34 -35.94,-80.29 -80.29,-80.29l-2331.58 0 0.01 0z"/>
   <path class="fil1" d="M80.29 0c-44.34,0 -80.29,35.94 -80.29,80.29l0 217.43c0,44.34 35.94,80.29 80.29,80.29l1068.11 0 98.33 98.34 98.33 -98.34 1066.79 0c44.34,0 80.29,-35.94 80.29,-80.29l0 -217.43c0,-44.34 -35.94,-80.29 -80.29,-80.29l-2331.58 0 0.01 0z"/>
   <path class="fil3" d="M135.81 155.3c1.86,0 3.47,0.73 4.83,2.18 1.36,1.45 2.32,3.25 2.87,5.39l14.41 64.22 16.87 -71.79 22.11 0 16.87 71.79 13.1 -63.99c0.54,-2.29 1.5,-4.17 2.87,-5.62 1.36,-1.45 2.98,-2.18 4.83,-2.18l17.2 0 -25.22 107.11c-0.66,2.14 -1.72,3.94 -3.19,5.39 -1.48,1.45 -3.14,2.18 -5,2.18l-9.34 0c-1.86,0 -3.52,-0.73 -5,-2.18 -1.47,-1.45 -2.54,-3.25 -3.19,-5.39l-15.07 -64.45 -15.07 64.45c-0.65,2.14 -1.72,3.94 -3.19,5.39 -1.47,1.45 -3.14,2.18 -5,2.18l-9.33 0c-1.86,0 -3.52,-0.73 -5,-2.18 -1.47,-1.45 -2.54,-3.25 -3.19,-5.39l-25.22 -107.11 16.05 0zm124.15 11.47c0,-3.21 0.79,-5.92 2.38,-8.14 1.58,-2.22 3.52,-3.33 5.81,-3.33l66.33 0c2.18,0 4.07,1.11 5.65,3.33 1.58,2.22 2.38,4.93 2.38,8.14l0 48.85c0,3.06 -0.79,5.73 -2.38,8.03 -1.58,2.29 -3.52,3.44 -5.81,3.44l-53.23 0 0 14.22 61.42 0 0 28.67 -74.36 0c-2.29,0 -4.23,-1.11 -5.81,-3.33 -1.58,-2.22 -2.38,-4.93 -2.38,-8.14l0 -91.74zm21.13 17.2l0 14.45 40.29 0 0 -14.45 -40.29 0zm102.21 -71.56l0 128.89 7.37 0 0 28.67 -20.31 0c-2.29,0 -4.23,-1.11 -5.81,-3.33 -1.58,-2.22 -2.37,-4.85 -2.37,-7.91l0 -146.32 21.13 0zm27.02 54.36c0,-3.21 0.79,-5.92 2.38,-8.14 1.58,-2.22 3.52,-3.33 5.81,-3.33l66.17 0c2.29,0 4.23,1.11 5.81,3.33 1.58,2.22 2.38,4.93 2.38,8.14l0 24.31 -21.13 0 0 -7.11 -40.29 0 0 57.34 40.29 0 0 -7.11 21.13 0 0 24.31c0,3.21 -0.79,5.92 -2.38,8.14 -1.58,2.22 -3.52,3.33 -5.81,3.33l-66.17 0c-2.29,0 -4.23,-1.11 -5.81,-3.33 -1.58,-2.22 -2.38,-4.93 -2.38,-8.14l0 -91.74zm163.63 17.2l-40.29 0 0 57.34 40.29 0 0 -57.34zm21.13 74.54c0,3.21 -0.79,5.92 -2.38,8.14 -1.58,2.22 -3.52,3.33 -5.81,3.33l-66.17 0c-2.29,0 -4.23,-1.11 -5.81,-3.33 -1.58,-2.22 -2.37,-4.93 -2.37,-8.14l0 -91.51c0,-3.21 0.79,-5.96 2.37,-8.26 1.58,-2.29 3.52,-3.44 5.81,-3.44l66.17 0c2.29,0 4.23,1.15 5.81,3.44 1.58,2.29 2.38,4.97 2.38,8.03l0 91.74zm95.33 11.47l-21.13 0 0 -86.01 -25.22 0c-2.18,0 -4.09,1.11 -5.73,3.33 -1.64,2.22 -2.46,4.93 -2.46,8.14l0 74.54 -21.13 0 0 -114.67 21.13 0 0 11.47c0,-3.21 0.82,-5.92 2.46,-8.14 1.64,-2.22 3.55,-3.33 5.73,-3.33l36.69 0c2.29,0 4.23,1.15 5.81,3.44 1.58,2.29 2.38,4.97 2.38,8.03 0,-3.21 0.82,-5.92 2.46,-8.14 1.64,-2.22 3.6,-3.33 5.9,-3.33l39.47 0c2.18,0 4.1,1.11 5.73,3.33 1.64,2.22 2.46,4.93 2.46,8.14l0 103.21 -21.13 0 0 -86.01 -25.22 0c-2.29,0 -4.23,1.11 -5.81,3.33 -1.58,2.22 -2.37,4.93 -2.37,8.14l0 74.54zm74.2 -103.21c0,-3.21 0.79,-5.92 2.37,-8.14 1.58,-2.22 3.52,-3.33 5.81,-3.33l66.34 0c2.18,0 4.07,1.11 5.65,3.33 1.58,2.22 2.38,4.93 2.38,8.14l0 48.85c0,3.06 -0.79,5.73 -2.38,8.03 -1.58,2.29 -3.52,3.44 -5.81,3.44l-53.23 0 0 14.22 61.42 0 0 28.67 -74.36 0c-2.29,0 -4.23,-1.11 -5.81,-3.33 -1.58,-2.22 -2.37,-4.93 -2.37,-8.14l0 -91.74zm21.13 17.2l0 14.45 40.29 0 0 -14.45 -40.29 0zm187.87 -71.56l0 42.89 14.41 0 0 28.67 -14.41 0 0 57.34 14.41 0 0 28.67 -27.52 0c-2.18,0 -4.09,-1.11 -5.73,-3.33 -1.64,-2.22 -2.46,-4.85 -2.46,-7.91l0 -74.77 -10.15 0 0 -28.67 10.15 0 0 -42.89 21.29 0zm92.22 71.56l-40.29 0 0 57.34 40.29 0 0 -57.34zm21.13 74.54c0,3.21 -0.79,5.92 -2.38,8.14 -1.58,2.22 -3.52,3.33 -5.81,3.33l-66.17 0c-2.29,0 -4.23,-1.11 -5.81,-3.33 -1.58,-2.22 -2.38,-4.93 -2.38,-8.14l0 -91.51c0,-3.21 0.79,-5.96 2.38,-8.26 1.58,-2.29 3.52,-3.44 5.81,-3.44l66.17 0c2.29,0 4.23,1.15 5.81,3.44 1.58,2.29 2.38,4.97 2.38,8.03l0 91.74zm101.55 -143.34c0,-1.83 0.66,-2.75 1.97,-2.75l17.2 0c1.31,0 1.97,0.92 1.97,2.75l0 23.16c0,1.84 -0.66,2.75 -1.97,2.75l-17.2 0c-1.31,0 -1.97,-0.92 -1.97,-2.75l0 -23.16zm21.13 154.81l-21.13 0 0 -114.67 21.13 0 0 114.67zm40.78 0l-21.13 0 0 -114.67 21.13 0 0 11.47c0,-3.06 0.82,-5.73 2.46,-8.03 1.64,-2.29 3.55,-3.44 5.73,-3.44l38.16 0c2.29,0 4.23,1.15 5.81,3.44 1.58,2.29 2.38,4.97 2.38,8.03l0 103.21 -21.13 0 0 -86.01 -25.22 0c-2.18,0 -4.1,1.11 -5.73,3.33 -1.64,2.22 -2.46,4.93 -2.46,8.14l0 74.54zm99.42 -114.67l0 146.32c0,3.06 -0.79,5.7 -2.37,7.91 -1.58,2.22 -3.47,3.33 -5.65,3.33l-20.47 0 0 -28.67 7.37 0 0 -128.89 21.13 0zm-21.13 -40.14c0,-1.83 0.66,-2.75 1.97,-2.75l17.2 0c1.31,0 1.96,0.92 1.96,2.75l0 23.16c0,1.84 -0.65,2.75 -1.96,2.75l-17.2 0c-1.31,0 -1.97,-0.92 -1.97,-2.75l0 -23.16zm143.81 126.14l40.29 0 0 -57.34 -32.1 0c-2.18,0 -4.1,1.15 -5.73,3.44 -1.64,2.29 -2.46,4.97 -2.46,8.03l0 45.87zm0 28.67l-21.13 0 0 -157.56 21.13 0 0 54.58c0,-3.21 0.82,-5.96 2.46,-8.26 1.64,-2.29 3.55,-3.44 5.73,-3.44l45.04 0c2.29,0 4.23,1.15 5.81,3.44 1.58,2.29 2.38,4.97 2.38,8.03l0 91.74c0,3.21 -0.79,5.92 -2.38,8.14 -1.58,2.22 -3.52,3.33 -5.81,3.33l-45.04 0c-2.18,0 -4.1,-1.11 -5.73,-3.33 -1.64,-2.22 -2.46,-4.93 -2.46,-8.14l0 11.47zm89.1 0c-2.18,0 -4.07,-1.11 -5.65,-3.33 -1.58,-2.22 -2.38,-4.93 -2.38,-8.14l0 -48.62c0,-3.21 0.79,-5.92 2.38,-8.14 1.58,-2.22 3.52,-3.33 5.81,-3.33l53.23 0 0 -14.45 -40.29 0 0 7.11 -21.13 0 0 -24.31c0,-3.21 0.79,-5.92 2.38,-8.14 1.58,-2.22 3.52,-3.33 5.81,-3.33l66.17 0c2.29,0 4.23,1.11 5.81,3.33 1.58,2.22 2.38,4.93 2.38,8.14l0 103.21 -21.13 0 0 -11.47c0,3.21 -0.79,5.92 -2.37,8.14 -1.58,2.22 -3.52,3.33 -5.81,3.33l-45.21 0zm53.39 -28.67l0 -14.22 -40.29 0 0 14.22 40.29 0zm61.91 0l40.29 0 0 -57.34 -32.1 0c-2.18,0 -4.09,1.15 -5.73,3.44 -1.64,2.29 -2.46,4.97 -2.46,8.03l0 45.87zm0 28.67l-21.13 0 0 -157.56 21.13 0 0 54.58c0,-3.21 0.82,-5.96 2.46,-8.26 1.64,-2.29 3.55,-3.44 5.73,-3.44l45.04 0c2.29,0 4.23,1.15 5.81,3.44 1.58,2.29 2.38,4.97 2.38,8.03l0 91.74c0,3.21 -0.79,5.92 -2.38,8.14 -1.58,2.22 -3.52,3.33 -5.81,3.33l-45.04 0c-2.18,0 -4.09,-1.11 -5.73,-3.33 -1.64,-2.22 -2.46,-4.93 -2.46,-8.14l0 11.47zm110.89 -43.12l18.84 -71.56 22.44 0 -39.47 149.99c-0.76,2.29 -1.86,4.13 -3.28,5.5 -1.42,1.38 -3.06,2.06 -4.91,2.06l-16.38 0 0 -28.67 7.37 0 4.26 -16.28 -30.14 -112.61 22.11 0 19.16 71.56zm139.55 43.12c-2.29,0 -4.23,-1.11 -5.81,-3.33 -1.58,-2.22 -2.37,-4.93 -2.37,-8.14l0 -24.31 21.13 0 0 7.11 40.29 0 0 -14.22 -53.23 0c-2.29,0 -4.23,-1.15 -5.81,-3.44 -1.58,-2.29 -2.37,-4.97 -2.37,-8.03l0 -48.85c0,-3.06 0.79,-5.73 2.37,-8.03 1.58,-2.29 3.52,-3.44 5.81,-3.44l12.94 0 53.23 0c2.29,0 4.23,1.15 5.81,3.44 1.58,2.29 2.38,4.97 2.38,8.03l0 24.54 -21.13 0 0 -7.34 -40.29 0 0 14.45 53.23 0c2.29,0 4.23,1.11 5.81,3.33 1.58,2.22 2.38,4.85 2.38,7.91l0 49.08c0,3.06 -0.79,5.7 -2.38,7.91 -1.58,2.22 -3.52,3.33 -5.81,3.33l-66.17 0zm115.15 0l-21.13 0 0 -157.56 21.13 0 0 54.36c0,-3.06 0.82,-5.73 2.46,-8.03 1.64,-2.29 3.55,-3.44 5.73,-3.44l38.16 0c2.29,0 4.23,1.15 5.81,3.44 1.58,2.29 2.37,4.97 2.37,8.03l0 103.21 -21.13 0 0 -86.01 -25.22 0c-2.18,0 -4.1,1.11 -5.73,3.33 -1.64,2.22 -2.46,4.93 -2.46,8.14l0 74.54zm82.22 0c-2.18,0 -4.07,-1.11 -5.65,-3.33 -1.58,-2.22 -2.37,-4.93 -2.37,-8.14l0 -48.62c0,-3.21 0.79,-5.92 2.37,-8.14 1.58,-2.22 3.52,-3.33 5.82,-3.33l53.23 0 0 -14.45 -40.29 0 0 7.11 -21.13 0 0 -24.31c0,-3.21 0.79,-5.92 2.37,-8.14 1.58,-2.22 3.52,-3.33 5.82,-3.33l66.17 0c2.29,0 4.23,1.11 5.81,3.33 1.58,2.22 2.38,4.93 2.38,8.14l0 103.21 -21.13 0 0 -11.47c0,3.21 -0.79,5.92 -2.37,8.14 -1.58,2.22 -3.52,3.33 -5.81,3.33l-45.21 0zm53.4 -28.67l0 -14.22 -40.29 0 0 14.22 40.29 0zm61.91 28.67l-21.13 0 0 -114.67 21.13 0 0 11.47c0,-3.21 0.82,-5.92 2.46,-8.14 1.64,-2.22 3.55,-3.33 5.73,-3.33l23.91 0c2.29,0 4.23,1.11 5.81,3.33 1.58,2.22 2.37,4.93 2.37,8.14l0 24.31 -21.13 0 0 -7.11 -11.14 0c-2.18,0 -4.07,1.11 -5.65,3.33 -1.58,2.22 -2.38,4.93 -2.38,8.14l0 74.54zm77.8 0l-21.13 0 0 -157.56 21.13 0 0 78.67 16.21 -31.42c1.75,-2.91 3.99,-4.36 6.72,-4.36l20.97 0 -19.33 35.78 21.78 0c2.29,0 4.23,1.15 5.81,3.44 1.58,2.29 2.37,4.97 2.37,8.03l0 67.43 -21.13 0 0 -50.23 -25.22 0c-2.18,0 -4.1,1.15 -5.73,3.44 -1.64,2.29 -2.46,5.05 -2.46,8.26l0 38.53z"/>
   <g id="_2329200824144">
    <path class="fil4" d="M735.95 1231.86l0.5 -57.49 27.67 0.02 -0.32 56.8 -27.86 0.67zm916.11 -230.09l0.34 -142.71 28.09 -0.15 0.17 142.27 -28.6 0.58 0 -0zm-543.77 -257.24l28.39 0.26 -0.21 28.05 -28.11 0.1 -0.08 -28.39 0.01 -0.01zm200.49 -114.11l-0.38 27.66 -56.31 0.16 0.11 -27.69 56.58 -0.13 -0 0zm29.14 -29.33l0.1 -28.42 56.54 0.11 -0.17 28.14 -56.47 0.17 0 -0zm172.1 -85.92l0.02 -28.4 56.38 0.19 -0.19 27.93 -56.21 0.28zm56.38 -29.47c-9.93,-1.8 -49.48,-2.48 -57.9,0.81l-0.15 28.61 1.67 0.04 -0.66 29.15 -58.12 -0.11 0.29 28.08 -57.03 -0.6c-9.9,-1.81 -49.23,-2.43 -57.85,0.67l-0.47 28.83 1.74 -0.08 -0.78 28.99 -28.37 0.34 -0.02 -1.87 -57.7 0.55 -0.57 27.71c-4.8,0 -9.5,-0.01 -14.21,-0.06l-10.07 0.45c-3.25,0.71 -2.99,0.85 -4.06,1.52l28.93 0.11 0.02 28.04 -28.51 0.12 -0.69 28.48 -56.35 0.56 -0.49 27.91 -28.42 -0.33 -29.24 -0.64 -0.16 30.01 -0.23 28.61 -26.73 -0.38c0.39,9.06 2.32,21.4 -1.48,29.69l-28.12 0.52 -0.16 27.42 -28.16 0.04 0.32 -27.53 0.4 -1.69c-4.67,5.61 -3.2,20.9 -1.97,29.22l0.04 28.49c-9.36,0.23 -18.96,-0.8 -27.81,1.4l-0.35 27.05 -28.29 -0.28c-8.2,-1.58 -23.61,-2.89 -29.25,1.69l1.64 -0.39 27.64 -0.21 -27.54 28.25 -0.77 28.09c-7.93,3.81 -20.45,2.13 -29.35,1.59l0.33 55.62 -28.66 0.64 0.33 27.86c-5.89,3.78 -21.13,1.99 -28.35,2.1 -0.05,5.36 1.67,22.8 -1.74,26.25 -1.87,2.88 -18.8,1.56 -26.29,1.86l-2.09 28.12 -27.82 -0.22 -0.12 56.84 -28.11 0.32 -0.02 -57.62c-0.26,0.4 -0.51,0.58 -0.58,1.3 -2.52,26 -0.69,28.68 -1.43,54.79 -8.94,0.21 -19.39,-1.5 -27.54,1.68l-0.22 56.46c-8.07,0.06 -22.01,-1.85 -27.73,1.6l28.9 -0.28 -0.62 56.2 -28.5 0.6 -0.04 27.25 0.11 1.86 0.05 27.25c12.78,1.56 104.7,2.01 114.39,-0.24l0.28 -27.13 114.2 -0.44 0.24 27.64 114.33 0.67 0.37 -27.99 114.98 -0.29 -0.01 28.09 113.66 0.38 0.58 -28.62 113.46 0.1 1.29 27.89c13.29,1.48 104.48,2.1 114.25,-0.3l0.28 -27.18 114.66 -0.32 -0.13 -314.62 28.29 -0.89 -0.07 1.56 28.83 -0.66c3.2,-7.32 3.25,-130.85 1.05,-143.66l-0.57 -143.2 28.34 0.23 0.41 -143.54 28.39 -0.15 -0.12 -114.55 -86.1 -0.05 -0.06 28.45 -85.75 -0.51 0.05 -0z"/>
    <polygon class="fil5" points="1623.9,1317.27 1623.68,1345.11 1652.44,1345.63 1651.99,1003.32 1652.06,1001.76 1623.76,1002.65 "/>
    <polygon class="fil5" points="1652.2,457.75 1738.3,457.79 1738.43,572.35 1767.13,572.23 1767.05,429.63 1652.36,429.06 "/>
    <polygon class="fil5" points="1709.62,716.03 1737.88,715.67 1738.43,572.35 1710.03,572.49 "/>
    <polygon class="fil5" points="1652.06,1001.76 1680.66,1001.18 1680.49,858.9 1652.4,859.06 "/>
    <polygon class="fil5" points="1681.86,859 1709.63,858.91 1709.62,716.03 1681.29,715.8 "/>
    <polygon class="fil5" points="1566.41,485.7 1652.14,486.2 1652.2,457.75 1566.41,457.75 "/>
    <polygon class="fil5" points="1165.54,716.01 1221.89,715.45 1222.58,686.97 1165.92,686.95 "/>
    <path class="fil5" d="M964.73 915.5l28.29 0.28 0.35 -27.05c8.85,-2.2 18.43,-1.17 27.81,-1.4l-0.04 -28.49 -27.75 0.01 -0.18 27.69 -28.48 0.96 0 27.99 -0.01 0.01z"/>
    <polygon class="fil5" points="878.78,1030.78 907.44,1030.15 907.11,974.52 878.83,974.13 "/>
    <polygon class="fil5" points="1337.91,601.09 1394.39,600.91 1394.56,572.77 1338.01,572.68 "/>
    <polygon class="fil5" points="1394.49,571.68 1451.53,572.27 1451.24,544.2 1394.48,543.64 "/>
    <polygon class="fil5" points="1510.01,515.17 1566.23,514.88 1566.42,486.96 1510.04,486.77 "/>
    <polygon class="fil5" points="1308.78,630.42 1252.2,630.54 1252.09,658.24 1308.4,658.08 "/>
    <polygon class="fil5" points="1508.36,515.13 1454.28,515.14 1453.45,542.17 1507.95,542.36 "/>
    <polygon class="fil5" points="1222.58,686.97 1251.1,686.86 1251.07,658.82 1222.15,658.71 "/>
    <polygon class="fil5" points="1108.37,772.92 1136.48,772.83 1136.69,744.78 1108.29,744.53 "/>
    <polygon class="fil5" points="1136.64,743.58 1165.06,743.91 1165.54,716.01 1136.56,716.23 "/>
    <polygon class="fil5" points="937.23,944.84 964.63,944.79 964.77,916.6 937.12,916.82 "/>
    <polygon class="fil5" points="879.11,1058.65 878.78,1030.78 851.57,1030.81 851.13,1058.87 "/>
    <polygon class="fil5" points="1050.69,831.4 1022.7,831.32 1022.38,858.85 1050.54,858.82 "/>
    <polygon class="fil5" points="1080.3,801.18 1107.02,801.57 1107.24,772.96 1079.98,772.97 "/>
    <polygon class="fil5" points="792.82,1116.76 820.64,1116.98 820.78,1089.21 792.85,1089.54 "/>
    <polygon class="fil5" points="907.36,972.89 934.73,972.85 935.33,944.86 908.07,944.88 "/>
    <polygon class="fil5" points="1050.7,829.48 1078.44,829.01 1078.61,801.49 1050.74,802.23 "/>
    <polygon class="fil5" points="821.46,1087 849.02,1087 849.04,1059.42 821.43,1059.41 "/>
    <polygon class="fil5" points="1308.76,628.53 1335.87,628.45 1336.18,601.18 1308.55,601.02 "/>
    <path class="fil5" d="M1451.24 544.2l58.12 0.11 0.66 -29.15 -1.67 -0.04 -0.41 27.24 -54.5 -0.19 0.81 -27.03c-4.52,2.18 -1.74,-2.2 -3.04,5.01 -0.1,0.55 0.07,7.53 0.1,8.66 0.07,5.13 -0.02,10.31 -0.1,15.41l0.03 -0.01z"/>
    <path class="fil5" d="M1050.7 829.48l-27.6 0.17 -0.4 1.69 27.99 0.08 28.12 -0.52c3.81,-8.29 1.86,-20.63 1.48,-29.69l-1.68 0.3 -0.17 27.53 -27.74 0.46 -0.01 -0.02z"/>
    <path class="fil5" d="M849.04 1059.42l-0.02 27.59c3.39,-3.45 1.69,-20.89 1.74,-26.25 7.22,-0.1 22.47,1.69 28.35,-2.1l-27.97 0.23 0.44 -28.06c-2.25,2.52 -1.74,-3.83 -2.13,5.12l-0.4 23.48 -0.01 0z"/>
    <path class="fil5" d="M935.33 944.86l-0.6 27.98 -27.37 0.06 -0.24 1.63c8.9,0.53 21.43,2.21 29.35,-1.59l0.77 -28.09 -0.11 -28.04 -1.64 0.39 -0.15 27.66 -0.01 0z"/>
    <path class="fil5" d="M820.64 1116.98l2.09 -28.12c7.49,-0.3 24.42,1.02 26.29,-1.86l-27.55 0c-13.07,1.29 -23.32,-1.4 -28.61,2.53l27.94 -0.33 -0.15 27.78 -0.01 0z"/>
    <polygon class="fil5" points="1308.76,628.53 1308.78,630.42 1337.15,630.08 1337.91,601.09 1336.18,601.18 1335.87,628.45 "/>
    <path class="fil5" d="M878.83 974.13l28.28 0.4 0.24 -1.63 0.71 -28.01c-1.5,2.35 -1.19,-0.47 -1.8,5.03 -0.16,1.4 -0.02,5.3 -0.01,6.92 0.02,5.16 0.04,10.29 -0.01,15.44l-23.92 0.27c-3.45,0.71 -1.64,0.4 -3.51,1.59l0.02 -0.01z"/>
    <g id="_2002199497952">
     <polygon class="fil5" points="706.83,1288.66 735.33,1288.06 735.95,1231.86 707.06,1232.13 "/>
     <polygon class="fil5" points="792.82,1116.76 764.56,1116.3 764.58,1173.92 792.69,1173.61 "/>
     <polygon class="fil5" points="735.95,1231.86 763.8,1231.18 764.12,1174.4 736.45,1174.37 "/>
     <polygon class="fil5" points="706.78,1315.91 706.83,1288.66 679.44,1288.67 679.4,1315.93 "/>
     <path class="fil5" d="M677.88 1317.44l29.01 0.33 -0.11 -1.86 -27.38 0.02 0.05 -27.25c-2.47,1.92 -1.12,-2.01 -1.9,5.06 -0.19,1.78 0.05,6.58 0.06,8.66 0.05,5.12 -0.04,9.93 0.27,15.05l0 -0.01z"/>
     <g>
      <path class="fil6" d="M534.98 1346.07l0 57.2 1375.25 0 0 -57.07 -57.16 -0.12 -0.52 -28.77 -114.21 0.06c-0.45,36.32 13.45,28.51 -56.73,28.62 -17.73,0.02 -40.37,1.25 -57.74,-0.34l-0.3 -28.37 -114.3 -0.01 -0.78 27.98c-9.87,2.08 -105.36,1.74 -112.24,-0.46 -3.51,-6.09 -1.42,-18.54 -1.91,-27.41l-114.47 0.43 -0.89 28.4 -113.49 -0.17 -0.61 -28.72 -114.1 0.05 -0.72 28.64 -113.84 -0.37 -0.37 -28.33 -114.25 -0.02 -0.55 28.17c-15.08,2.57 -55.15,0.45 -72.89,0.43 -41,-0.05 -42.46,4.69 -42.23,-11.22 0.08,-6.04 0.37,-10.91 -0.24,-17.25l-113.21 -0.21 -0.39 28.59 -57.09 0.28 -0.02 0.01z"/>
      <path class="fil7" d="M706.91 1260.47l-29.01 -0.33 -85.42 -0.34 -0.78 26.4c-8.49,5.44 -43.96,2.09 -56.73,2.09l0 57.77 57.09 -0.28 0.39 -28.59 113.21 0.21c0.6,6.35 0.33,11.21 0.24,17.25 -0.23,15.92 1.23,11.17 42.23,11.22 17.74,0.02 57.82,2.14 72.89,-0.43l0.55 -28.17 114.25 0.02 0.37 28.33 113.84 0.37 0.72 -28.64 114.1 -0.05 0.61 28.72 113.49 0.17 0.89 -28.4 114.47 -0.43c0.5,8.86 -1.6,21.32 1.91,27.41 6.87,2.19 102.36,2.54 112.24,0.46l0.78 -27.98 114.3 0.01 0.3 28.37c17.38,1.58 40.02,0.37 57.74,0.34 70.18,-0.11 56.3,7.7 56.73,-28.62l114.21 -0.06 0.52 28.77 57.16 0.12 0 -57.82c-11.55,-0.01 -48.88,1.78 -57.21,-1.52l-0.67 -26.49c-18.68,-0.84 -38.5,-0.3 -57.29,-0.29 -65.49,0.04 -55.23,-5.41 -56.08,26.92 -8.81,2.74 -72.58,1.56 -86.52,1.36l-28.76 -0.52 0.21 -27.84 -114.66 0.32 -0.28 27.18c-9.76,2.41 -100.96,1.79 -114.25,0.3l-1.29 -27.89 -113.46 -0.1 -0.58 28.62 -113.66 -0.38 0.01 -28.09 -114.98 0.29 -0.37 27.99 -114.32 -0.67 -0.24 -27.65 -114.2 0.44 -0.28 27.13c-9.69,2.25 -101.61,1.8 -114.39,0.24l-0.05 -27.25 0.03 0z"/>
     </g>
    </g>
   </g>
   <g id="_2329402899600">
    <path class="fil8" d="M149.16 1363.5l2.41 0c0.01,-0.45 0,-1.43 0.12,-1.82 0.37,-1.19 -0.47,-0.39 0.74,-0.91l1.74 0.02c0.91,0.62 0.62,-1.02 0.85,1.31 0.21,2.02 -0.55,1.29 -0.62,1.39l-2.29 0 -0.22 2.82 -3.06 -0.04 -0.22 -2.78 -2.55 0.01 0.04 2.47c-1.25,0.67 -1.22,0.44 -2.93,0.55l0 2.4 -2.89 -0.05 0 -2.36c-0.46,-0.02 -1.52,-0.04 -1.91,-0.11 -0.86,-0.16 -0.62,-0.19 -1.01,-0.43l0.02 -5.45 2.89 0 0 -5.67 2.87 0.04 0.02 -2.82 2.78 0.24 -0.21 -2.13c0.97,-1.43 1.34,-1.35 3.31,-0.66l0.17 2.6 2.36 0c1,1.05 0.78,4.61 0.11,5.67l-2.54 0 0.04 5.68 -0.03 0.03zm-11.79 -8.65l-0.04 2.37c-0.74,0.56 1.06,0.47 -1.39,0.57 -2.16,0.07 -1.05,-0.23 -1.45,-0.52l-0.04 -2.42 2.91 0 -0 0zm2.88 0l-2.88 0 0.05 -2.71 2.82 0 0.02 2.71 -0.01 0zm-73.38 -34.68l0 4.77 -4.77 0 0 9.55 4.74 0 0 4.77 4.77 0 0 4.77 4.79 0 -0.01 -4.77 4.78 0 0 -4.77 4.73 0 0.01 23.82 4.74 0 0 23.82 4.77 0 -0.01 14.29 4.78 0 0 4.74 61.95 0 0 -57.16 4.77 0 -0.01 9.52 4.77 0 0 -4.77 4.77 0 0 -9.52 4.77 0 0 -9.53 -4.77 0 0 -4.77 -4.77 0 0 4.77 -4.77 0 0 4.77 -4.77 0 0 4.77 -33.34 0 0 -4.77 -9.52 0 0 -4.77 -14.29 0 0 -4.77 -9.53 0 0 -4.77 -9.52 0 0 -4.77 -9.53 0 0 4.77 -9.52 0 -0 0.01z"/>
    <path class="fil9" d="M147.84 1272.55l9.53 0 0 4.77 -9.53 0 0 -4.77zm0 0l-4.77 0 0 -4.77 4.77 0 0 4.77zm-14.29 -14.29l0 4.77 -4.77 0 0 14.29 -4.77 0 0 42.87 9.53 0 0 4.77 28.59 0 0 -4.77 4.74 0 0 -9.55 4.78 0.01 -0.01 -9.53 4.78 0.01 -0.01 -9.53 4.78 0.01 -0.01 -4.77 4.78 0.01 0 -4.77 -28.57 0.01 0 -4.77 28.59 0 0 -4.77 4.77 0 0 -4.77 4.77 0 0 -4.77 4.77 0 -0.01 4.75 9.52 0 -0.01 -4.78 4.78 0.01 -0.01 -4.78 4.78 0.01 0 -4.75 -80.98 0 0 4.77 -4.77 0 -0.01 -0.01z"/>
    <polygon class="fil10" points="100.2,1243.96 104.97,1243.96 104.97,1248.73 109.74,1248.73 109.74,1253.48 114.5,1253.48 114.5,1258.25 128.79,1258.25 133.56,1258.25 133.56,1253.48 133.56,1248.73 138.32,1248.73 138.32,1243.96 219.3,1243.96 219.3,1248.73 233.59,1248.73 233.59,1243.96 228.82,1243.96 228.82,1239.19 219.3,1239.19 219.3,1234.43 209.77,1234.43 205,1234.43 205,1239.19 181.18,1239.19 181.18,1234.43 185.95,1234.43 185.95,1229.67 181.18,1229.67 181.18,1224.91 185.95,1224.91 185.95,1220.14 171.66,1220.14 171.66,1224.91 176.43,1224.91 176.43,1229.67 171.66,1229.67 171.66,1234.43 176.43,1234.43 176.43,1239.19 152.61,1239.19 152.61,1234.43 147.84,1234.43 147.84,1229.67 152.61,1229.67 152.61,1224.91 157.38,1224.91 157.38,1220.14 104.97,1220.14 104.97,1229.67 100.2,1229.67 "/>
    <polygon class="fil10" points="38.29,1253.49 33.51,1253.49 33.52,1258.25 28.76,1258.25 23.99,1258.25 23.99,1263.01 19.22,1263.01 19.22,1267.78 66.86,1267.78 66.86,1272.55 76.38,1272.55 76.38,1277.3 81.15,1277.3 81.15,1296.35 85.92,1296.35 85.92,1301.12 90.68,1301.12 90.68,1305.89 100.2,1305.89 100.2,1310.65 109.74,1310.65 109.74,1305.89 109.74,1301.12 104.97,1301.12 104.97,1291.6 95.45,1291.6 95.45,1282.07 90.68,1282.07 90.68,1277.3 85.92,1277.3 85.92,1267.78 81.15,1267.78 81.15,1263.01 81.15,1258.25 85.92,1258.25 90.68,1258.25 90.68,1263.01 95.45,1263.01 95.45,1267.78 100.2,1267.78 100.2,1272.55 104.97,1272.55 104.97,1277.3 114.5,1277.3 114.5,1282.07 119.26,1282.07 119.26,1277.3 119.26,1272.55 109.74,1272.55 109.74,1267.78 104.97,1267.78 104.97,1263.01 100.2,1263.01 100.2,1258.25 95.45,1258.25 95.45,1253.48 90.68,1253.48 90.68,1248.73 71.63,1248.73 43.04,1248.73 43.04,1253.48 "/>
    <polygon class="fil8" points="133.56,1172.5 138.32,1172.51 143.08,1172.51 143.08,1177.27 147.84,1177.27 147.86,1182.04 152.59,1182.04 152.6,1191.57 157.38,1191.57 157.38,1186.8 162.13,1186.8 162.13,1191.57 166.9,1191.57 166.9,1196.32 162.13,1196.32 162.13,1201.09 157.38,1201.07 147.87,1201.07 147.86,1196.32 143.08,1196.31 138.32,1196.31 128.77,1196.32 128.77,1201.07 124.05,1201.07 124.05,1196.32 114.5,1196.31 109.71,1196.31 109.71,1201.07 104.96,1201.07 104.96,1205.83 100.19,1205.83 100.19,1215.37 105,1215.37 105,1210.63 109.74,1210.62 109.74,1205.85 114.5,1205.85 114.52,1201.09 119.26,1201.09 119.26,1205.85 124.02,1205.85 124.02,1210.62 138.34,1210.63 138.32,1201.1 143.06,1201.1 143.06,1205.86 147.83,1205.86 147.83,1210.59 143.06,1210.59 143.06,1215.37 157.38,1215.37 157.38,1210.62 162.13,1210.62 162.13,1215.37 176.44,1215.37 176.37,1210.59 166.92,1210.59 166.91,1205.86 171.68,1205.86 171.68,1201.1 176.41,1201.1 176.41,1205.86 181.18,1205.85 181.2,1201.09 185.95,1201.09 185.95,1196.32 176.43,1196.31 171.68,1196.31 171.68,1186.81 176.44,1186.81 176.43,1182.03 171.68,1182.01 171.68,1172.5 157.39,1172.49 157.38,1167.75 157.38,1162.98 152.59,1162.98 152.6,1167.72 143.1,1167.72 143.1,1162.98 133.53,1162.98 "/>
    <polygon class="fil9" points="62.1,1343.99 66.86,1343.99 66.85,1358.29 76.38,1358.28 76.38,1348.76 81.15,1348.76 81.15,1401.15 100.19,1401.15 100.19,1396.41 95.41,1396.41 95.43,1382.12 90.66,1382.12 90.66,1358.3 85.92,1358.3 85.91,1334.48 81.18,1334.48 81.18,1339.25 76.38,1339.25 76.41,1344.02 71.61,1344.02 71.61,1339.25 66.85,1339.25 66.84,1334.48 62.1,1334.48 "/>
    <polygon class="fil11" points="85.92,1224.91 90.68,1224.91 90.68,1220.14 95.45,1220.14 104.97,1220.14 157.38,1220.14 162.13,1220.14 166.9,1220.14 171.66,1220.14 185.95,1220.14 190.72,1220.14 195.48,1220.14 200.25,1220.14 200.25,1224.91 205,1224.91 205,1229.67 209.77,1229.67 209.77,1220.14 205,1220.14 205,1215.37 200.26,1215.37 181.17,1215.37 176.44,1215.37 162.13,1215.37 157.38,1215.37 143.06,1215.37 105,1215.37 100.19,1215.37 85.92,1215.37 "/>
    <polygon class="fil12" points="109.74,1305.89 114.5,1305.89 114.49,1296.35 119.26,1296.35 119.26,1282.07 114.5,1282.07 114.5,1286.83 104.97,1286.83 104.97,1282.07 100.2,1282.07 100.2,1277.3 95.45,1277.3 95.45,1272.55 90.68,1272.55 90.68,1267.78 85.92,1267.78 85.92,1277.3 90.68,1277.3 90.68,1282.07 95.45,1282.07 95.45,1291.6 104.97,1291.6 104.97,1301.12 109.74,1301.12 "/>
    <polygon class="fil11" points="138.32,1253.48 219.3,1253.48 219.3,1248.73 138.32,1248.73 "/>
    <polygon class="fil13" points="138.32,1248.73 219.3,1248.73 219.3,1243.96 138.32,1243.96 "/>
    <path class="fil9" d="M85.91 1210.62l-0.02 -4.79 4.81 0 0 4.8 -4.79 -0.01zm14.3 -14.3l0 4.77 -19.05 0 0 4.77 -4.77 0 0 4.77 9.52 0.01 0.01 4.75 14.28 0 0 -9.55 4.77 0 0 -4.77 4.75 0 0 -4.77 4.78 0.01 0 -4.75 -9.52 0.01 -0.01 4.75 -4.77 0 0.01 -0.01z"/>
    <polygon class="fil12" points="100.2,1248.73 100.2,1253.48 104.97,1253.48 104.97,1258.25 109.74,1258.25 109.74,1263.01 119.26,1263.01 119.26,1267.78 109.74,1267.78 109.74,1272.55 119.26,1272.55 119.26,1277.3 124.02,1277.3 124.02,1263.01 128.79,1263.01 128.79,1258.25 114.5,1258.25 114.5,1253.48 109.74,1253.48 109.74,1248.73 104.97,1248.73 104.97,1243.96 100.2,1243.96 "/>
    <polygon class="fil11" points="66.85,1358.29 66.85,1363.06 76.38,1363.06 76.38,1401.15 81.15,1401.15 81.15,1348.76 76.38,1348.76 76.38,1358.28 "/>
    <polygon class="fil11" points="162.13,1401.15 166.91,1401.15 166.91,1358.29 171.68,1358.29 171.66,1353.53 166.9,1353.53 166.91,1343.99 162.13,1343.99 "/>
    <polygon class="fil11" points="66.86,1272.55 66.86,1267.78 19.22,1267.78 14.46,1267.78 14.46,1263.01 9.7,1263.01 9.7,1272.55 "/>
    <polygon class="fil8" points="119.26,1172.5 119.25,1177.29 128.77,1177.29 128.79,1182.01 119.25,1182.01 119.26,1186.81 128.77,1186.81 128.77,1191.55 138.32,1191.57 143.09,1191.57 143.09,1186.8 138.32,1186.79 138.32,1182.03 133.56,1182.03 133.57,1177.27 133.56,1172.5 128.8,1172.49 128.8,1167.73 124.02,1167.75 124.02,1172.5 "/>
    <polygon class="fil9" points="85.92,1315.42 95.45,1315.42 95.45,1320.17 104.97,1320.17 104.97,1324.94 119.26,1324.94 119.25,1320.17 109.74,1320.17 109.74,1315.42 100.2,1315.42 100.2,1310.65 90.68,1310.65 90.68,1305.89 85.92,1305.89 85.92,1301.12 81.15,1301.12 81.15,1310.65 85.92,1310.65 "/>
    <polygon class="fil11" points="38.28,1353.53 33.51,1353.53 33.51,1348.76 28.74,1348.75 28.74,1358.29 66.85,1358.29 66.86,1343.99 62.1,1343.99 62.1,1353.53 "/>
    <polygon class="fil8" points="119.26,1324.94 119.26,1329.71 128.79,1329.71 128.79,1334.47 162.13,1334.47 162.13,1329.71 133.56,1329.71 133.56,1324.94 124.02,1324.94 124.02,1320.17 119.25,1320.17 "/>
    <polygon class="fil11" points="119.26,1282.07 119.26,1296.35 119.26,1315.42 109.74,1315.42 109.74,1320.17 119.25,1320.17 124.02,1320.17 124.02,1277.3 119.26,1277.3 "/>
    <polygon class="fil9" points="124.02,1210.62 119.26,1210.62 114.5,1210.62 109.74,1210.62 105,1210.63 105,1215.37 143.06,1215.37 143.06,1210.59 147.83,1210.59 147.83,1205.86 143.06,1205.86 143.06,1201.1 138.32,1201.1 138.34,1210.63 "/>
    <polygon class="fil8" points="190.72,1205.85 190.72,1210.61 185.95,1210.61 185.95,1205.85 181.18,1205.85 181.17,1215.37 200.26,1215.37 200.26,1210.63 205.02,1210.62 205.03,1201.09 200.25,1201.07 195.48,1201.07 195.48,1205.85 "/>
    <polygon class="fil11" points="76.38,1315.41 85.92,1315.42 85.92,1310.65 81.15,1310.65 81.15,1301.12 85.92,1301.12 85.92,1296.35 81.15,1296.35 81.15,1277.3 76.38,1277.3 "/>
    <polygon class="fil10" points="47.81,1343.99 43.04,1343.99 43.04,1348.76 38.28,1348.76 38.28,1353.53 62.1,1353.53 62.1,1343.99 57.33,1343.99 57.33,1339.24 52.56,1339.24 52.58,1343.99 "/>
    <polygon class="fil12" points="90.68,1224.91 90.68,1239.19 95.45,1239.19 95.45,1243.96 100.2,1243.96 100.2,1229.67 104.97,1229.67 104.97,1220.14 95.45,1220.14 95.45,1224.91 "/>
    <polygon class="fil9" points="109.74,1177.27 109.74,1182.01 114.52,1182.01 114.5,1186.8 114.5,1191.55 128.77,1191.55 128.77,1186.81 119.26,1186.81 119.25,1182.01 128.79,1182.01 128.77,1177.29 119.25,1177.29 119.26,1172.5 114.5,1172.51 114.5,1177.27 "/>
    <polygon class="fil11" points="128.8,1162.98 133.53,1162.98 143.1,1162.98 152.59,1162.98 157.38,1162.98 162.13,1162.98 171.65,1162.98 171.65,1158.23 172.14,1158.23 129.26,1158.23 "/>
    <polygon class="fil11" points="43.04,1243.96 71.63,1243.96 81.15,1243.96 81.15,1239.19 43.04,1239.19 "/>
    <polygon class="fil11" points="219.3,1253.48 219.3,1258.25 224.06,1258.25 224.06,1263.01 228.82,1263.01 228.82,1258.25 247.88,1258.25 247.88,1248.73 243.12,1248.73 243.12,1253.48 "/>
    <polygon class="fil9" points="176.43,1182.03 176.44,1186.81 171.68,1186.81 171.68,1196.31 176.43,1196.31 176.43,1191.55 185.95,1191.55 185.95,1186.8 190.72,1186.8 190.71,1182.04 185.95,1182.03 185.95,1177.29 181.2,1177.28 181.21,1182.06 "/>
    <polygon class="fil10" points="176.43,1348.76 176.42,1353.53 181.18,1353.53 181.18,1358.29 190.72,1358.29 190.72,1348.76 185.95,1348.76 185.96,1339.23 181.18,1339.23 181.18,1348.76 "/>
    <polygon class="fil11" points="162.13,1334.47 128.79,1334.47 128.79,1339.23 162.13,1339.23 "/>
    <polygon class="fil11" points="166.89,1320.17 162.13,1320.17 162.13,1324.94 166.9,1324.94 166.9,1329.71 171.66,1329.71 171.66,1324.94 176.43,1324.94 176.43,1310.65 171.65,1310.64 171.66,1320.17 "/>
    <polygon class="fil8" points="109.74,1305.89 109.74,1310.65 109.74,1315.42 119.26,1315.42 119.26,1296.35 114.49,1296.35 114.5,1305.89 "/>
    <polygon class="fil8" points="43.04,1248.73 71.63,1248.73 71.63,1243.96 43.04,1243.96 "/>
    <polygon class="fil13" points="219.3,1248.73 219.3,1253.48 243.12,1253.48 243.12,1248.73 238.36,1248.73 238.36,1243.96 233.59,1243.96 233.59,1248.73 "/>
    <polygon class="fil11" points="162.13,1329.71 162.13,1324.94 133.56,1324.94 133.56,1329.71 "/>
    <polygon class="fil12" points="71.63,1243.96 71.63,1248.73 90.68,1248.73 90.68,1243.96 90.68,1239.19 85.92,1239.19 81.15,1239.19 81.15,1243.96 "/>
    <polygon class="fil11" points="76.38,1220.14 76.38,1215.37 85.92,1215.37 85.91,1210.62 76.38,1210.62 76.38,1205.85 76.38,1201.09 71.63,1201.09 71.63,1220.14 "/>
    <polygon class="fil11" points="185.94,1282.05 185.95,1277.3 157.38,1277.3 157.38,1282.07 "/>
    <polygon class="fil9" points="143.09,1186.8 143.09,1191.57 147.84,1191.55 147.86,1196.32 147.87,1201.07 157.38,1201.07 157.38,1196.32 152.61,1196.32 152.6,1191.57 152.59,1182.04 147.86,1182.04 147.86,1186.81 "/>
    <polygon class="fil11" points="52.56,1334.46 57.33,1334.47 57.33,1339.24 57.33,1343.99 62.1,1343.99 62.1,1334.48 62.1,1324.94 57.33,1324.93 57.32,1329.69 52.56,1329.69 "/>
    <polygon class="fil11" points="76.38,1201.09 81.15,1201.09 100.2,1201.09 100.2,1196.32 76.38,1196.32 "/>
    <polygon class="fil14" points="205,1234.43 200.25,1234.43 195.48,1234.43 190.72,1234.43 185.95,1234.43 181.18,1234.43 181.18,1239.19 205,1239.19 "/>
    <polygon class="fil14" points="171.66,1234.43 166.9,1234.43 162.13,1234.43 157.38,1234.43 152.61,1234.43 152.61,1239.19 176.43,1239.19 176.43,1234.43 "/>
    <polygon class="fil11" points="114.5,1196.31 124.05,1196.32 128.77,1196.32 138.32,1196.31 138.32,1191.57 128.77,1191.55 114.5,1191.55 "/>
    <polygon class="fil9" points="157.38,1167.75 157.39,1172.49 171.68,1172.5 171.66,1167.75 171.65,1162.98 162.13,1162.98 162.13,1167.75 "/>
    <polygon class="fil9" points="176.44,1215.37 181.17,1215.37 181.18,1205.85 176.41,1205.86 176.41,1201.1 171.68,1201.1 171.68,1205.86 166.91,1205.86 166.92,1210.59 176.37,1210.59 "/>
    <polygon class="fil9" points="205.02,1210.62 219.3,1210.62 219.3,1205.85 209.77,1205.85 209.77,1201.09 205.03,1201.09 "/>
    <polygon class="fil11" points="104.98,1191.57 114.5,1191.55 114.5,1186.8 109.74,1186.8 109.74,1182.01 109.74,1177.27 104.98,1177.27 "/>
    <polygon class="fil11" points="205,1215.37 209.77,1215.37 209.77,1220.14 214.54,1220.14 214.54,1215.37 219.3,1215.37 219.3,1210.62 205.02,1210.62 "/>
    <polygon class="fil8" points="85.92,1239.19 90.68,1239.19 90.68,1224.91 85.92,1224.91 "/>
    <polygon class="fil11" points="124.02,1277.3 128.79,1277.3 128.79,1263.01 124.02,1263.01 "/>
    <polygon class="fil11" points="81.15,1239.19 85.92,1239.19 85.92,1224.91 81.15,1224.91 "/>
    <polygon class="fil9" points="76.38,1220.14 81.15,1220.14 81.15,1224.91 85.92,1224.91 85.92,1215.37 76.38,1215.37 "/>
    <polygon class="fil11" points="119.26,1329.71 119.26,1324.94 104.97,1324.94 104.97,1329.71 "/>
    <polygon class="fil11" points="185.95,1191.55 190.73,1191.55 195.47,1191.57 195.46,1182.04 190.71,1182.04 190.72,1186.8 185.95,1186.8 "/>
    <path class="fil8" d="M146.02 1354.24c-0.9,0.85 0.67,0.29 -1.5,0.69 -0.07,0.01 -1.28,-0.05 -1.42,-0.05l-0.01 5.63 -2.84 0.01 0 5.45 2.91 -0.08 0 -2.32 2.89 -0.07 0.01 -5.57 2.58 -0.11 -0.02 -5.68 -2.44 0.22 -0.26 -0.04 0.17 0.08 -0.06 1.84 -0 0z"/>
    <polygon class="fil8" points="166.89,1320.17 171.66,1320.17 171.65,1310.64 166.89,1310.63 "/>
    <polygon class="fil8" points="171.65,1310.64 176.43,1310.65 176.42,1301.12 171.64,1301.11 "/>
    <polygon class="fil8" points="176.42,1301.12 181.2,1301.13 181.18,1291.59 176.41,1291.58 "/>
    <polygon class="fil11" points="190.72,1358.29 181.18,1358.29 181.16,1363.06 190.73,1363.06 "/>
    <polygon class="fil8" points="214.53,1263 224.06,1263.01 224.06,1258.25 219.3,1258.25 214.51,1258.23 "/>
    <polygon class="fil11" points="190.72,1358.29 195.5,1358.29 195.5,1348.75 190.72,1348.76 "/>
    <polygon class="fil11" points="181.2,1301.13 185.96,1301.13 185.95,1291.6 181.18,1291.59 "/>
    <polygon class="fil11" points="176.43,1310.65 181.18,1310.67 181.2,1301.13 176.42,1301.12 "/>
    <polygon class="fil11" points="43.04,1339.23 47.81,1339.23 52.56,1339.24 52.56,1334.46 43.03,1334.46 "/>
    <polygon class="fil11" points="190.72,1348.76 190.73,1339.23 185.96,1339.23 185.95,1348.76 "/>
    <polygon class="fil11" points="181.18,1339.23 185.96,1339.23 185.96,1329.69 181.2,1329.71 "/>
    <polygon class="fil8" points="200.24,1272.53 209.77,1272.55 209.76,1267.77 200.24,1267.77 "/>
    <polygon class="fil11" points="200.25,1277.3 209.77,1277.3 209.77,1272.55 200.24,1272.53 "/>
    <polygon class="fil11" points="214.54,1267.78 224.06,1267.78 224.06,1263.01 214.53,1263 "/>
    <polygon class="fil11" points="66.86,1320.17 76.38,1320.17 76.38,1315.41 66.85,1315.41 66.86,1315.89 "/>
    <polygon class="fil11" points="23.99,1253.48 28.76,1253.48 33.51,1253.49 33.51,1248.73 23.99,1248.73 "/>
    <polygon class="fil11" points="33.51,1248.73 38.29,1248.73 43.04,1248.73 43.04,1243.96 33.52,1243.96 "/>
    <polygon class="fil11" points="157.38,1277.3 157.38,1272.55 147.84,1272.55 147.84,1277.3 "/>
    <polygon class="fil11" points="76.38,1277.3 76.38,1272.55 66.86,1272.55 66.86,1277.3 "/>
    <polygon class="fil11" points="100.2,1310.65 100.2,1305.89 90.68,1305.89 90.68,1310.65 "/>
    <polygon class="fil11" points="114.5,1282.07 104.97,1282.07 104.97,1286.83 114.5,1286.83 "/>
    <polygon class="fil11" points="109.74,1267.78 119.26,1267.78 119.26,1263.01 109.74,1263.01 "/>
    <polygon class="fil11" points="219.3,1205.85 219.3,1201.09 209.77,1201.09 209.77,1205.85 "/>
    <polygon class="fil11" points="233.59,1243.96 238.36,1243.96 238.36,1239.19 228.82,1239.19 228.82,1243.96 "/>
    <polygon class="fil11" points="209.77,1234.43 219.3,1234.43 219.3,1229.67 209.77,1229.67 "/>
    <polygon class="fil11" points="228.82,1239.19 228.82,1234.43 219.3,1234.43 219.3,1239.19 "/>
    <polygon class="fil12" points="104.97,1282.07 114.5,1282.07 114.5,1277.3 104.97,1277.3 "/>
    <polygon class="fil11" points="109.74,1315.42 109.74,1310.65 100.2,1310.65 100.2,1315.42 "/>
    <polygon class="fil11" points="95.45,1320.17 95.45,1315.42 85.92,1315.42 85.92,1320.17 "/>
    <polygon class="fil11" points="133.56,1324.94 133.56,1320.17 124.02,1320.17 124.02,1324.94 "/>
    <polygon class="fil11" points="176.43,1348.76 181.18,1348.76 181.18,1339.23 176.43,1339.24 "/>
    <polygon class="fil11" points="104.97,1324.94 104.97,1320.17 95.45,1320.17 95.45,1324.94 "/>
    <polygon class="fil10" points="157.38,1229.67 157.38,1234.43 162.13,1234.43 162.13,1229.67 162.13,1224.91 157.38,1224.91 "/>
    <polygon class="fil10" points="195.48,1229.67 195.48,1234.43 200.25,1234.43 200.25,1229.67 200.25,1224.91 195.48,1224.91 "/>
    <polygon class="fil11" points="128.79,1334.47 128.79,1329.71 119.26,1329.71 119.26,1334.47 "/>
    <polygon class="fil11" points="200.25,1201.07 205.03,1201.09 209.77,1201.09 209.77,1196.32 200.25,1196.32 "/>
    <polygon class="fil11" points="176.43,1196.31 185.95,1196.32 185.95,1191.55 176.43,1191.55 "/>
    <polygon class="fil11" points="185.95,1177.29 185.95,1182.03 190.71,1182.04 190.72,1172.52 185.95,1172.51 "/>
    <polygon class="fil11" points="119.27,1167.75 124.02,1167.75 128.8,1167.73 128.8,1162.98 119.28,1162.99 "/>
    <polygon class="fil11" points="171.66,1167.75 176.43,1167.75 181.18,1167.75 181.17,1162.99 171.65,1162.98 "/>
    <polygon class="fil9" points="176.43,1182.03 176.42,1177.27 176.43,1172.5 171.68,1172.5 171.68,1182.01 "/>
    <polygon class="fil9" points="128.8,1167.73 128.8,1172.49 133.56,1172.5 133.53,1162.98 128.8,1162.98 "/>
    <polygon class="fil9" points="152.59,1162.98 143.1,1162.98 143.1,1167.72 152.6,1167.72 "/>
    <polygon class="fil8" points="85.91,1210.62 90.7,1210.63 90.7,1205.83 85.89,1205.83 "/>
    <polygon class="fil8" points="114.5,1186.8 114.52,1182.01 109.74,1182.01 109.74,1186.8 "/>
    <polygon class="fil8" points="176.43,1182.03 181.21,1182.06 181.2,1177.28 176.42,1177.27 "/>
    <polygon class="fil8" points="143.09,1186.8 147.86,1186.81 147.86,1182.04 143.08,1182.03 "/>
    <polygon class="fil8" points="181.18,1291.59 185.95,1291.6 185.95,1286.82 181.17,1286.82 "/>
    <polygon class="fil8" points="209.76,1267.77 214.54,1267.78 214.53,1263 209.76,1262.99 "/>
    <polygon class="fil15" points="176.42,1177.27 181.2,1177.28 181.18,1172.5 176.43,1172.5 "/>
    <polygon class="fil11" points="33.51,1348.76 38.28,1348.76 38.28,1343.99 33.51,1343.98 "/>
    <polygon class="fil11" points="38.28,1343.99 43.04,1343.99 43.04,1339.23 38.26,1339.23 "/>
    <polygon class="fil11" points="181.18,1358.29 181.18,1353.53 176.42,1353.53 176.42,1358.29 "/>
    <polygon class="fil8" points="190.72,1201.09 195.48,1201.07 195.5,1196.32 190.73,1196.32 "/>
    <polygon class="fil8" points="43.04,1343.99 47.81,1343.99 47.81,1339.23 43.04,1339.23 "/>
    <polygon class="fil8" points="185.95,1196.32 190.73,1196.32 190.73,1191.55 185.95,1191.55 "/>
    <polygon class="fil8" points="185.95,1286.82 190.72,1286.83 190.71,1282.05 185.94,1282.05 "/>
    <polygon class="fil8" points="190.71,1282.05 195.48,1282.07 195.47,1277.3 190.71,1277.3 "/>
    <polygon class="fil8" points="195.47,1277.3 200.25,1277.3 200.24,1272.53 195.47,1272.53 "/>
    <polygon class="fil11" points="181.2,1329.71 181.2,1324.93 176.43,1324.94 176.43,1329.71 "/>
    <polygon class="fil11" points="190.72,1286.83 195.48,1286.83 195.48,1282.07 190.71,1282.05 "/>
    <polygon class="fil11" points="209.77,1272.55 214.54,1272.55 214.54,1267.78 209.76,1267.77 "/>
    <polygon class="fil11" points="185.95,1291.6 190.72,1291.6 190.72,1286.83 185.95,1286.82 "/>
    <polygon class="fil11" points="195.48,1282.07 200.25,1282.07 200.25,1277.3 195.47,1277.3 "/>
    <polygon class="fil8" points="52.56,1339.24 57.33,1339.24 57.33,1334.47 52.56,1334.46 "/>
    <polygon class="fil8" points="38.28,1353.53 38.28,1348.76 33.51,1348.76 33.51,1353.53 "/>
    <polygon class="fil15" points="185.95,1201.09 190.72,1201.09 190.73,1196.32 185.95,1196.32 "/>
    <polygon class="fil8" points="90.68,1224.91 95.45,1224.91 95.45,1220.14 90.68,1220.14 "/>
    <polygon class="fil15" points="143.09,1186.8 143.08,1182.03 138.32,1182.03 138.32,1186.79 "/>
    <polygon class="fil15" points="190.72,1205.85 195.48,1205.85 195.48,1201.07 190.72,1201.09 "/>
    <polygon class="fil15" points="181.18,1205.85 185.95,1205.85 185.95,1201.09 181.2,1201.09 "/>
    <polygon class="fil8" points="23.99,1258.25 28.76,1258.25 28.76,1253.48 23.99,1253.48 "/>
    <polygon class="fil8" points="33.51,1253.49 38.29,1253.49 38.29,1248.73 33.51,1248.73 "/>
    <polygon class="fil15" points="143.08,1182.03 147.86,1182.04 147.84,1177.27 143.08,1177.27 "/>
    <polygon class="fil8" points="190.72,1229.67 195.48,1229.67 195.48,1224.91 190.72,1224.91 "/>
    <polygon class="fil8" points="166.9,1234.43 171.66,1234.43 171.66,1229.67 166.9,1229.67 "/>
    <polygon class="fil8" points="185.95,1234.43 190.72,1234.43 190.72,1229.67 185.95,1229.67 "/>
    <polygon class="fil8" points="162.13,1229.67 166.9,1229.67 166.9,1224.91 162.13,1224.91 "/>
    <polygon class="fil8" points="90.68,1243.96 95.45,1243.96 95.45,1239.19 90.68,1239.19 "/>
    <polygon class="fil8" points="95.44,1248.73 100.2,1248.73 100.2,1243.96 95.45,1243.96 "/>
    <polygon class="fil12" points="38.28,1348.76 43.04,1348.76 43.04,1343.99 38.28,1343.99 "/>
    <polygon class="fil15" points="157.38,1196.32 157.38,1191.57 152.6,1191.57 152.61,1196.32 "/>
    <polygon class="fil8" points="181.2,1177.28 185.95,1177.29 185.95,1172.51 181.18,1172.5 "/>
    <polygon class="fil11" points="90.68,1248.73 95.44,1248.73 95.45,1243.96 90.68,1243.96 "/>
    <polygon class="fil15" points="109.74,1210.62 114.5,1210.62 114.5,1205.85 109.74,1205.85 "/>
    <polygon class="fil15" points="119.26,1210.62 124.02,1210.62 124.02,1205.85 119.26,1205.85 "/>
    <polygon class="fil8" points="162.13,1329.71 166.9,1329.71 166.9,1324.94 162.13,1324.94 "/>
    <polygon class="fil11" points="62.1,1324.94 66.86,1324.94 66.86,1320.17 62.1,1320.17 "/>
    <polygon class="fil11" points="19.22,1258.25 23.99,1258.25 23.99,1253.48 19.22,1253.48 "/>
    <polygon class="fil11" points="95.45,1253.48 100.2,1253.48 100.2,1248.73 95.44,1248.73 "/>
    <polygon class="fil10" points="190.72,1224.91 195.48,1224.91 195.48,1220.14 190.72,1220.14 "/>
    <polygon class="fil10" points="162.13,1224.91 166.9,1224.91 166.9,1220.14 162.13,1220.14 "/>
    <polygon class="fil16" points="200.25,1234.43 205,1234.43 205,1229.67 200.25,1229.67 "/>
    <polygon class="fil14" points="152.61,1229.67 157.38,1229.67 157.38,1224.91 152.61,1224.91 "/>
    <polygon class="fil12" points="100.2,1258.25 100.2,1253.48 95.45,1253.48 95.45,1258.25 "/>
    <polygon class="fil12" points="19.22,1267.78 19.22,1263.01 14.46,1263.01 14.46,1267.78 "/>
    <polygon class="fil12" points="95.45,1272.55 100.2,1272.55 100.2,1267.78 95.45,1267.78 "/>
    <polygon class="fil14" points="200.25,1229.67 205,1229.67 205,1224.91 200.25,1224.91 "/>
    <polygon class="fil11" points="95.45,1272.55 95.45,1267.78 90.68,1267.78 90.68,1272.55 "/>
    <polygon class="fil12" points="109.74,1267.78 109.74,1263.01 104.97,1263.01 104.97,1267.78 "/>
    <polygon class="fil11" points="133.56,1258.25 138.32,1258.25 138.32,1253.48 133.56,1253.48 "/>
    <polygon class="fil12" points="90.68,1267.78 95.45,1267.78 95.45,1263.01 90.68,1263.01 "/>
    <polygon class="fil11" points="85.92,1267.78 90.68,1267.78 90.68,1263.01 85.92,1263.01 "/>
    <polygon class="fil16" points="152.61,1234.43 157.38,1234.43 157.38,1229.67 152.61,1229.67 "/>
    <polygon class="fil14" points="152.61,1234.43 152.61,1229.67 147.84,1229.67 147.84,1234.43 "/>
    <polygon class="fil13" points="133.56,1253.48 138.32,1253.48 138.32,1248.73 133.56,1248.73 "/>
    <polygon class="fil11" points="100.2,1277.3 100.2,1272.55 95.45,1272.55 95.45,1277.3 "/>
    <polygon class="fil12" points="85.92,1267.78 85.92,1263.01 81.15,1263.01 81.15,1267.78 "/>
    <polygon class="fil11" points="243.12,1248.73 243.12,1243.96 238.36,1243.96 238.36,1248.73 "/>
    <polygon class="fil11" points="219.3,1210.62 224.06,1210.62 224.06,1205.85 219.3,1205.85 "/>
    <polygon class="fil14" points="205,1234.43 209.77,1234.43 209.77,1229.67 205,1229.67 "/>
    <polygon class="fil11" points="100.2,1258.25 104.97,1258.25 104.97,1253.48 100.2,1253.48 "/>
    <polygon class="fil11" points="14.46,1263.01 19.22,1263.01 19.22,1258.25 14.46,1258.25 "/>
    <polygon class="fil11" points="81.15,1224.91 81.15,1220.14 76.38,1220.14 76.38,1224.91 "/>
    <polygon class="fil11" points="90.68,1305.89 90.68,1301.12 85.92,1301.12 85.92,1305.89 "/>
    <polygon class="fil11" points="104.97,1263.01 109.74,1263.01 109.74,1258.25 104.97,1258.25 "/>
    <polygon class="fil11" points="147.84,1272.55 147.84,1267.78 143.08,1267.78 143.08,1272.55 "/>
    <polygon class="fil12" points="100.2,1277.3 104.97,1277.3 104.97,1272.55 100.2,1272.55 "/>
    <polygon class="fil12" points="85.92,1263.01 90.68,1263.01 90.68,1258.25 85.92,1258.25 "/>
    <polygon class="fil9" points="209.77,1220.14 209.77,1215.37 205,1215.37 205,1220.14 "/>
    <polygon class="fil11" points="81.15,1263.01 85.92,1263.01 85.92,1258.25 81.15,1258.25 "/>
    <polygon class="fil15" points="76.38,1205.85 81.15,1205.85 81.15,1201.09 76.38,1201.09 "/>
    <polygon class="fil11" points="128.79,1263.01 133.56,1263.01 133.56,1258.25 128.79,1258.25 "/>
    <polygon class="fil12" points="104.97,1263.01 104.97,1258.25 100.2,1258.25 100.2,1263.01 "/>
    <polygon class="fil11" points="104.97,1282.07 104.97,1277.3 100.2,1277.3 100.2,1282.07 "/>
    <polygon class="fil12" points="166.9,1229.67 171.66,1229.67 171.66,1224.91 166.9,1224.91 "/>
    <polygon class="fil12" points="185.95,1229.67 190.72,1229.67 190.72,1224.91 185.95,1224.91 "/>
    <polygon class="fil12" points="95.45,1253.48 95.44,1248.73 90.68,1248.73 90.68,1253.48 "/>
    <polygon class="fil11" points="171.66,1353.53 176.42,1353.53 176.43,1348.76 171.66,1348.76 "/>
    <polygon class="fil11" points="162.13,1334.47 166.9,1334.47 166.9,1329.71 162.13,1329.71 "/>
    <polygon class="fil12" points="19.22,1263.01 23.99,1263.01 23.99,1258.25 19.22,1258.25 "/>
    <polygon class="fil14" points="195.48,1224.91 200.25,1224.91 200.25,1220.14 195.48,1220.14 "/>
    <polygon class="fil14" points="157.38,1224.91 162.13,1224.91 162.13,1220.14 157.38,1220.14 "/>
    <polygon class="fil16" points="166.9,1224.91 171.66,1224.91 171.66,1220.14 166.9,1220.14 "/>
    <polygon class="fil16" points="171.66,1229.67 176.43,1229.67 176.43,1224.91 171.66,1224.91 "/>
    <polygon class="fil16" points="185.95,1224.91 190.72,1224.91 190.72,1220.14 185.95,1220.14 "/>
    <polygon class="fil16" points="185.95,1229.67 185.95,1224.91 181.18,1224.91 181.18,1229.67 "/>
    <polygon class="fil12" points="114.5,1210.62 119.26,1210.62 119.26,1205.85 114.5,1205.85 "/>
    <polygon class="fil12" points="190.72,1234.43 195.48,1234.43 195.48,1229.67 190.72,1229.67 "/>
    <polygon class="fil12" points="162.13,1234.43 166.9,1234.43 166.9,1229.67 162.13,1229.67 "/>
    <polygon class="fil12" points="157.38,1196.32 162.13,1196.32 162.13,1191.57 157.38,1191.57 "/>
    <polygon class="fil12" points="138.32,1182.03 143.08,1182.03 143.08,1177.27 138.32,1177.27 "/>
    <polygon class="fil12" points="47.81,1343.99 52.58,1343.99 52.56,1339.24 47.81,1339.23 "/>
    <polygon class="fil12" points="28.76,1258.25 33.52,1258.25 33.51,1253.49 28.76,1253.48 "/>
    <polygon class="fil12" points="38.29,1253.49 43.04,1253.48 43.04,1248.73 38.29,1248.73 "/>
    <polygon class="fil12" points="185.95,1205.85 190.72,1205.85 190.72,1201.09 185.95,1201.09 "/>
    <polygon class="fil15" points="162.13,1196.32 166.9,1196.32 166.9,1191.57 162.13,1191.57 "/>
    <polygon class="fil15" points="190.72,1205.85 185.95,1205.85 185.95,1210.61 190.72,1210.61 "/>
    <polygon class="fil15" points="157.38,1191.57 162.13,1191.57 162.13,1186.8 157.38,1186.8 "/>
    <polygon class="fil15" points="157.38,1215.37 162.13,1215.37 162.13,1210.62 157.38,1210.62 "/>
    <polygon class="fil15" points="157.38,1167.75 162.13,1167.75 162.13,1162.98 157.38,1162.98 "/>
    <polygon class="fil15" points="138.32,1182.03 138.32,1177.27 133.57,1177.27 133.56,1182.03 "/>
    <polygon class="fil15" points="157.38,1201.07 162.13,1201.09 162.13,1196.32 157.38,1196.32 "/>
    <polygon class="fil15" points="119.26,1172.5 124.02,1172.5 124.02,1167.75 119.27,1167.75 "/>
    <polygon class="fil15" points="138.32,1177.27 143.08,1177.27 143.08,1172.51 138.32,1172.51 "/>
    <polygon class="fil11" points="195.48,1267.78 200.24,1267.77 200.25,1263.01 195.48,1263.01 "/>
    <polygon class="fil9" points="190.71,1277.3 195.47,1277.3 195.47,1272.53 190.72,1272.55 "/>
    <polygon class="fil9" points="195.47,1272.53 200.24,1272.53 200.24,1267.77 195.48,1267.78 "/>
    <polygon class="fil9" points="185.94,1282.05 190.71,1282.05 190.71,1277.3 185.95,1277.3 "/>
    <polygon class="fil12" points="176.43,1172.5 181.18,1172.5 181.18,1167.75 176.43,1167.75 "/>
    <polygon class="fil11" points="190.72,1272.55 195.47,1272.53 195.48,1267.78 190.72,1267.78 "/>
    <polygon class="fil15" points="171.68,1172.5 176.43,1172.5 176.43,1167.75 171.66,1167.75 "/>
    <polygon class="fil11" points="185.95,1277.3 190.71,1277.3 190.72,1272.55 185.95,1272.55 "/>
    <polygon class="fil9" points="133.57,1177.27 138.32,1177.27 138.32,1172.51 133.56,1172.5 "/>
    <polygon class="fil11" points="143.08,1196.31 147.86,1196.32 147.84,1191.55 143.09,1191.57 "/>
    <polygon class="fil15" points="114.5,1205.85 119.26,1205.85 119.26,1201.09 114.52,1201.09 "/>
    <polygon class="fil9" points="195.48,1201.07 200.25,1201.07 200.25,1196.32 195.5,1196.32 "/>
    <polygon class="fil9" points="138.32,1196.31 143.08,1196.31 143.09,1191.57 138.32,1191.57 "/>
    <polygon class="fil11" points="181.18,1172.5 185.95,1172.51 185.94,1167.76 181.18,1167.75 "/>
    <polygon class="fil11" points="109.74,1177.27 114.5,1177.27 114.5,1172.51 109.75,1172.52 "/>
    <polygon class="fil11" points="100.2,1196.32 104.97,1196.32 104.98,1191.57 100.23,1191.58 "/>
    <polygon class="fil11" points="114.5,1172.51 119.26,1172.5 119.27,1167.75 114.52,1167.76 "/>
    <polygon class="fil9" points="190.73,1196.32 195.5,1196.32 195.47,1191.57 190.73,1191.55 "/>
    <polygon class="fil11" points="195.5,1196.32 200.25,1196.32 200.23,1191.58 195.47,1191.57 "/>
    <polygon class="fil9" points="200.26,1215.37 205,1215.37 205.02,1210.62 200.26,1210.63 "/>
    <polygon class="fil9" points="128.77,1196.32 124.05,1196.32 124.05,1201.07 128.77,1201.07 "/>
    <polygon class="fil4" points="140.24,1360.53 143.09,1360.52 143.1,1354.89 140.24,1354.85 "/>
    <polygon class="fil4" points="137.33,1365.96 140.24,1365.98 140.24,1360.53 137.35,1360.52 "/>
    <polygon class="fil5" points="146.04,1363.5 148.61,1363.48 148.63,1357.82 146.06,1357.93 "/>
    <polygon class="fil5" points="149.11,1357.81 151.65,1357.81 151.54,1352.14 149.18,1352.14 "/>
    <path class="fil17" d="M145.92 1352.32l0.26 0.04 0 -2.71 2.44 0 0 2.5 0.02 5.68 -0.04 5.68 0.22 2.78 3.06 0.04 0.22 -2.82 0.32 -2.72c-1.22,0.51 -0.38,-0.29 -0.74,0.91 -0.12,0.39 -0.11,1.37 -0.12,1.82l0 2.49 -2.46 0 0.04 -2.49 -0.04 -5.68 0.07 -5.67 -0.17 -2.6c-1.97,-0.69 -2.34,-0.78 -3.31,0.66l0.21 2.13 0.01 -0.04z"/>
    <polygon class="fil4" points="137.35,1354.85 140.24,1354.85 140.22,1352.14 137.4,1352.14 "/>
    <polygon class="fil4" points="143.15,1365.89 146.08,1365.96 146.04,1363.5 143.15,1363.57 "/>
    <polygon class="fil4" points="143.15,1366.51 140.26,1366.5 140.26,1368.86 143.15,1368.91 "/>
    <polygon class="fil4" points="134.49,1357.27 137.31,1357.22 137.35,1354.85 134.46,1354.85 "/>
    <polygon class="fil5" points="146.18,1352.35 148.62,1352.14 148.62,1349.64 146.18,1349.64 "/>
    <polygon class="fil5" points="151.56,1363.5 149.16,1363.5 149.12,1365.99 151.56,1365.99 "/>
    <polygon class="fil5" points="152.11,1363.48 154.4,1363.48 154.17,1360.79 152.43,1360.76 "/>
    <polygon class="fil5" points="146.02,1354.24 146.08,1352.4 143.55,1352.4 143.55,1354.24 "/>
    <path class="fil18" d="M140.26 1366.5l2.89 0.01c1.71,-0.11 1.68,0.13 2.93,-0.55l-2.93 -0.07 -2.91 0.08 -2.92 -0.01c0.39,0.23 0.15,0.28 1.01,0.43 0.39,0.07 1.45,0.08 1.91,0.11l0.01 0z"/>
    <path class="fil19" d="M143.1 1354.89c0.16,0 1.36,0.06 1.42,0.05 2.16,-0.41 0.6,0.15 1.5,-0.69l-2.47 0 0 -1.84 2.53 0 -0.17 -0.08 -2.78 -0.24 -0.02 2.82 0 -0.01z"/>
    <path class="fil20" d="M151.65 1357.81c0.67,-1.06 0.89,-4.62 -0.11,-5.67l0.11 5.67z"/>
    <path class="fil17" d="M154.4 1363.48c0.08,-0.1 0.83,0.63 0.62,-1.39 -0.24,-2.35 0.06,-0.69 -0.85,-1.31l0.23 2.7z"/>
    <path class="fil18" d="M137.31 1357.22l-2.83 0.05c0.4,0.29 -0.72,0.6 1.45,0.52 2.43,-0.08 0.64,0 1.39,-0.57l0 0z"/>
   </g>
   <g id="_2328852316528">
    <path class="fil21" d="M2517.53 672.56l-9.75 -0.24 0 5.22 9.98 0 -0.24 -4.99 0.01 0.01zm4.77 -4.77l-4.99 -0.26 0.22 5.01 4.99 0.26 -0.22 -5.01zm4.77 -4.77l-4.99 -0.26 0.22 5.02 4.99 0.26 -0.22 -5.01 0 -0.01zm4.77 -4.77l-4.99 -0.26 0.22 5.02 4.99 0.26 -0.22 -5.01 0 -0.01zm-19.07 -4.77l-9.75 -0.24 0 5.22 9.96 0 -0.21 -4.99 -0 0.01zm23.82 0l-4.99 -0.26 0.22 5.02 4.99 0.26 -0.22 -5.01 0 -0.01zm-19.05 -4.77l-4.99 -0.26 0.22 5.02 4.99 0.26 -0.22 -5.01 0 -0.01zm19.05 4.77l4.77 0.24 0 -9.99 -4.77 0 0 9.75zm-14.3 -9.53l-4.99 -0.26 0.22 5.01 4.99 0.26 -0.22 -5.01zm4.77 -4.77l-4.99 -0.26 0.22 5.01 4.99 0.26 -0.22 -5.02 0 0.01zm0 0l4.77 0.24 0 -5.23 -4.97 0 0.21 4.99zm14.28 -9.51l-0.22 4.46 38.48 0.16c0.24,2.1 0.35,3 -0.22,4.99 2.82,-0.81 6.75,-0.57 9.75,-0.22 0.24,2.1 0.35,3 -0.22,4.99 2.82,-0.81 6.75,-0.57 9.75,-0.22 0.24,2.1 0.35,3 -0.22,4.99 1.98,-0.57 2.88,-0.46 4.99,-0.22 0.24,2.1 0.35,3 -0.22,4.99 1.98,-0.57 2.88,-0.46 4.99,-0.22l0.18 5.17 -52.72 -0.33 -0.01 4.79 -9.51 0.02 -0.01 4.74 -4.75 0.02 0 19.05 -4.77 0 0 4.77 -4.77 0 0 4.77 -9.53 0 0 4.77 -9.76 0 0.13 4.66 -9.2 -0.12 -0.1 -38.11 -4.78 0.11 0.12 -14.41 -4.88 0.11 0.12 -4.66 -5 0 -0.07 -4.49 -4.84 -0.13 -0.18 -4.54 -9.17 -0.23 -0.01 -4.89 4.27 0.01 0.47 0.22 0 -5.02 4.77 0 0 -4.77 4.77 0 47.54 -0.02 -0.11 4.79 4.97 0.02 -0.03 -0z"/>
    <path class="fil22" d="M2465.11 658.26l0 4.77 4.77 0 0 -4.77 -4.77 0zm0 0l0 -4.77 -38.12 0 0 4.77 38.12 0zm23.82 -9.53l0 4.78 4.88 -0.12 -0.11 14.42 4.88 -0.12 -0.11 38.23 -4.77 0 0 4.77 -4.77 0 0 4.77 -4.77 0 -4.77 0 0 -9.53 -4.77 0 0 -4.77 -4.77 0 0 -4.77 -4.77 0 0 -4.77 -4.77 0 0 -4.77 -4.77 0 0 -4.77 -4.77 0 0 -4.77 -4.77 0 0 -4.77 -4.77 0 0 -4.77 -9.53 0 0 -4.77 -9.53 0 0 -4.77 -9.53 0 -4.74 -0.01 -0.01 -4.74 -9.51 -0.02 -0.01 -4.74 4.74 0 0.16 -4.62 80.73 0 0.15 4.62 4.77 0 0 0z"/>
    <polygon class="fil21" points="2522.16,591.68 2522.07,596.56 2526.92,596.45 2526.84,601.32 2531.69,601.21 2531.61,610.84 2536.46,610.75 2536.47,615.4 2484.17,615.38 2422.22,615.38 2422.25,610.64 2426.99,610.61 2427,605.87 2431.75,605.84 2431.77,596.34 2436.52,596.32 2436.53,591.57 2446.29,591.56 2446.16,586.9 2512.65,586.9 2512.54,591.78 "/>
    <polygon class="fil23" points="2484.17,715.45 2484.17,729.73 2488.94,729.73 2488.94,777.39 2484.17,777.39 2484.17,791.69 2479.41,791.69 2479.41,782.15 2474.64,782.15 2474.64,720.21 2469.87,720.21 2469.87,715.45 2465.11,715.45 2465.11,710.68 2450.81,710.68 2450.81,701.15 2446.05,701.15 2446.05,691.62 2441.29,691.62 2441.29,682.1 2436.52,682.1 2436.52,677.33 2431.77,677.31 2431.75,672.56 2427,672.54 2426.99,667.8 2422.25,667.77 2422.22,663.03 2431.75,663.03 2431.75,667.8 2441.29,667.8 2441.29,672.56 2446.05,672.56 2446.05,677.33 2450.81,677.33 2450.81,682.1 2455.57,682.1 2455.57,686.85 2460.34,686.85 2460.34,691.62 2465.11,691.62 2465.11,696.38 2469.87,696.38 2469.87,701.15 2474.64,701.15 2474.64,705.92 2479.41,705.92 2479.41,715.45 "/>
    <path class="fil24" d="M2512.76 772.62l0.01 -4.77 -4.78 0 0 4.77 -4.77 0 0 4.77 4.77 0 0 4.77 4.77 0 0 -4.77 4.77 0 0 -4.77 -4.77 0zm4.77 -33.35l0 -4.77 -4.77 0 0 4.77 -4.77 0 0 4.77 4.77 0 0 4.77 4.77 0 0 -4.77 4.77 0 0 -4.77 -4.77 0zm9.53 -14.3l0 14.3 0 19.07 -4.77 0 0 4.77 4.77 0 0 14.3 -4.77 0 0 9.53 -4.77 0 0 4.77 -9.53 0 0 -4.77 -4.75 0 -0.01 4.77 -9.53 0 0 -4.77 -4.77 0 0 -9.53 4.77 0 0 -14.3 4.77 0 0 -4.77 0 -4.77 0.01 -14.3 -4.78 0 0 -4.77 4.77 0 0 -4.77 4.77 0 4.77 0 0 -4.77 4.77 0 0 -4.77 4.77 0 0 -4.77 4.77 0 0 4.77 4.77 0 0 4.77z"/>
    <path class="fil9" d="M2536.58 758.33l0 -4.77 -4.77 0 0 4.77 0 4.77 4.77 0 0 -4.77zm-9.53 -47.65l0 4.77 4.77 0 0 4.77 4.77 0 0 23.82 -4.77 0 0 4.77 4.77 0 0 4.77 4.77 0 0 33.35 -4.77 0 -4.77 0 0 4.77 -9.53 0 0 -4.77 0 -9.53 4.77 0 0 -14.3 0 -4.77 0 -19.07 4.77 0 0 -14.3 -4.77 0 0 -4.77 -4.77 0 0 -4.77 -4.77 0 0 4.77 -4.77 0 0 4.77 -4.77 0 0 -9.53 4.78 0 -0.12 -9.64 9.64 0.11 0 4.77 4.77 0 0 0.02z"/>
    <polygon class="fil21" points="2560.56,720.07 2560.71,724.69 2570.08,724.83 2570.25,729.45 2579.61,729.6 2579.77,734.22 2584.38,734.37 2584.53,738.99 2589.14,739.12 2589.3,744.31 2541.35,744.03 2541.35,720.21 2545.83,720.21 2545.83,715.15 2551.02,715.3 2551.16,719.91 "/>
    <path class="fil24" d="M2465.11 758.33l0 -4.77 -4.77 0 0 4.77 0 4.77 4.77 0 0 -4.77zm4.77 -14.29l-4.77 0 0 4.77 4.77 0 0 33.35 4.77 0 0 9.53 -4.77 0 0 -4.77 -4.77 0 -4.77 0 0 4.77 -9.53 0 0 -14.3 4.77 0 0 4.77 4.77 0 0 -4.77 4.77 0 0 -4.77 -4.77 0 0 -4.77 -4.77 0 0 -23.83 4.77 0 0 -4.77 0 -4.77 9.53 0 0 9.53 0 0.01z"/>
    <polygon class="fil24" points="2488.94,624.91 2484.17,624.91 2484.17,629.68 2479.41,629.68 2479.41,620.14 2446.04,620.14 2441.29,620.14 2441.29,629.68 2436.52,629.68 2436.52,624.91 2431.75,624.91 2431.75,629.68 2426.99,629.68 2426.99,620.14 2407.94,620.14 2403.12,620.11 2403.07,615.29 2417.49,615.34 2422.22,615.38 2484.17,615.38 2484.17,620.14 2488.94,620.14 "/>
    <polygon class="fil25" points="2507.99,558.19 2503.23,558.21 2450.82,558.21 2446.04,558.19 2446.04,553.43 2455.57,553.43 2455.57,548.67 2498.46,548.67 2498.46,553.43 2507.99,553.43 "/>
    <polygon class="fil11" points="2546.11,791.69 2541.35,791.69 2541.35,786.92 2541.35,753.57 2536.58,753.57 2536.58,748.8 2541.35,748.8 2541.35,744.03 2589.3,744.31 2589.14,739.12 2593.76,739.27 2593.76,748.8 2546.11,748.8 "/>
    <polygon class="fil11" points="2465.11,715.45 2460.34,715.45 2455.57,715.45 2455.57,724.98 2460.34,724.98 2460.34,729.73 2455.57,729.73 2455.57,734.5 2455.57,739.27 2455.57,744.03 2455.57,767.87 2455.57,772.62 2455.57,777.39 2450.81,777.39 2450.81,744.03 2446.05,744.03 2446.04,739.05 2450.6,739.05 2450.6,715.68 2446.16,715.56 2446.05,701.15 2450.81,701.15 2450.81,710.68 2465.11,710.68 "/>
    <polygon class="fil9" points="2536.47,624.89 2488.94,624.91 2488.94,620.14 2484.17,620.14 2484.17,615.38 2536.47,615.4 "/>
    <polygon class="fil26" points="2479.41,629.68 2474.64,629.68 2474.65,634.46 2450.81,634.44 2450.81,629.68 2446.05,629.68 2446.04,620.14 2479.41,620.14 "/>
    <polygon class="fil11" points="2484.03,644.11 2403.3,644.11 2403.45,639.5 2407.9,639.34 2422.26,639.34 2446.02,639.34 2474.68,639.34 2483.84,639.59 "/>
    <polygon class="fil21" points="2446.05,744.03 2441.29,744.03 2441.29,748.8 2431.75,748.8 2431.75,739.27 2436.52,739.27 2436.52,729.73 2441.52,729.73 2441.4,720.32 2446.29,720.43 2446.16,715.56 2450.6,715.68 2450.6,739.05 2446.04,739.05 "/>
    <polygon class="fil11" points="2474.64,782.15 2469.87,782.15 2469.87,748.8 2469.87,744.03 2469.87,734.5 2460.34,734.5 2460.34,729.73 2469.87,729.73 2469.87,724.97 2469.87,720.21 2474.64,720.21 "/>
    <polygon class="fil11" points="2512.75,585.19 2512.65,586.9 2446.16,586.9 2446.07,585.19 2445.81,582.06 2512.72,582.06 "/>
    <polygon class="fil11" points="2551.02,715.3 2545.83,715.15 2545.83,720.21 2541.35,720.21 2541.35,715.45 2536.58,715.45 2536.58,710.68 2541.35,710.68 2541.35,691.62 2536.58,691.62 2536.58,686.85 2541.35,686.85 2541.35,667.8 2546.1,667.77 2546.11,710.68 2550.87,710.68 "/>
    <polygon class="fil11" points="2512.65,705.81 2512.77,715.45 2507.99,715.45 2507.99,710.68 2493.69,710.68 2493.69,705.92 2498.46,705.92 2498.57,667.69 2503.35,667.58 2503.45,705.69 "/>
    <polygon class="fil11" points="2555.63,663.02 2555.65,658.22 2608.37,658.54 2608.18,653.38 2612.79,653.56 2612.79,662.99 "/>
    <polygon class="fil21" points="2407.91,634.46 2407.9,639.34 2403.45,639.5 2403.3,644.11 2379.06,644.26 2379.21,639.08 2384.1,638.89 2384.13,634.46 2393.64,634.44 2393.65,629.69 2398.4,629.68 2403.17,629.68 2403.17,634.48 "/>
    <polygon class="fil27" points="2503.23,562.96 2479.32,562.98 2474.73,562.98 2469.79,562.98 2450.83,562.98 2450.82,558.21 2503.23,558.21 "/>
    <polygon class="fil10" points="2426.99,629.68 2422.22,629.68 2422.25,634.46 2407.91,634.46 2407.94,629.68 2407.94,620.14 2426.99,620.14 "/>
    <polygon class="fil11" points="2493.69,739.27 2493.69,753.57 2493.69,758.33 2493.69,763.1 2493.69,777.39 2488.94,777.39 2488.94,729.73 2493.69,729.73 2498.46,729.73 2498.46,734.5 2493.69,734.5 "/>
    <polygon class="fil27" points="2503.2,569.33 2503.17,572.43 2450.81,572.44 2450.84,569.33 2450.83,567.71 2469.79,567.71 2474.73,567.71 2479.32,567.71 2503.23,567.73 "/>
    <polygon class="fil21" points="2441.29,629.68 2441.29,634.48 2446.03,634.46 2446.02,639.34 2422.26,639.34 2422.25,634.46 2426.99,634.47 2426.99,629.68 2431.75,629.68 2431.75,624.91 2436.52,624.91 2436.52,629.68 "/>
    <polygon class="fil27" points="2498.45,539.16 2484.26,539.15 2455.57,539.14 2455.59,534.37 2498.95,534.37 "/>
    <polygon class="fil27" points="2498.46,548.67 2455.57,548.67 2455.57,543.91 2484.26,543.88 2498.45,543.88 "/>
    <polygon class="fil11" points="2465.11,658.26 2426.99,658.26 2426.99,653.5 2465.11,653.5 "/>
    <polygon class="fil11" points="2403.3,644.11 2403.14,648.73 2398.4,648.73 2398.41,653.49 2393.67,653.46 2393.67,648.71 2374.61,648.71 2374.61,639.23 2379.21,639.08 2379.06,644.26 "/>
    <polygon class="fil11" points="2579.6,634.31 2541.11,634.15 2541.33,629.69 2579.44,629.71 "/>
    <polygon class="fil24" points="2474.68,639.34 2446.02,639.34 2446.03,634.46 2450.81,634.44 2474.65,634.46 "/>
    <polygon class="fil24" points="2507.99,715.45 2503.23,715.45 2503.23,724.98 2498.46,724.97 2498.46,720.21 2493.69,720.21 2493.69,715.45 2493.69,710.68 2507.99,710.68 "/>
    <polygon class="fil9" points="2536.58,710.68 2536.58,705.92 2531.83,705.92 2531.83,701.15 2531.83,696.38 2536.58,696.38 2536.58,691.62 2541.35,691.62 2541.35,710.68 "/>
    <polygon class="fil28" points="2484.26,543.88 2455.57,543.91 2455.57,539.14 2484.26,539.15 "/>
    <polygon class="fil24" points="2465.11,720.21 2465.11,724.97 2469.87,724.97 2469.87,729.73 2460.34,729.73 2460.34,724.98 2455.57,724.98 2455.57,715.45 2460.34,715.45 2460.34,720.21 "/>
    <polygon class="fil11" points="2541.35,744.03 2536.58,744.03 2536.58,720.21 2541.35,720.21 "/>
    <polygon class="fil28" points="2503.23,567.73 2479.32,567.71 2479.32,562.98 2503.23,562.96 "/>
    <polygon class="fil11" points="2541.33,629.69 2536.36,629.68 2536.47,624.89 2536.47,615.4 2536.46,610.75 2541.31,610.64 "/>
    <polygon class="fil27" points="2446.04,558.19 2441.29,558.21 2441.26,553.35 2441.29,548.67 2445.97,548.65 2455.57,548.67 2455.57,553.43 2446.04,553.43 "/>
    <polygon class="fil27" points="2512.77,553.35 2512.76,558.21 2507.99,558.19 2507.99,553.43 2498.46,553.43 2498.46,548.67 2508.08,548.65 2512.76,548.67 "/>
    <polygon class="fil25" points="2469.79,567.71 2450.83,567.71 2450.83,562.98 2469.79,562.98 "/>
    <polygon class="fil11" points="2498.57,667.69 2493.69,667.81 2493.8,653.39 2498.69,653.28 "/>
    <polygon class="fil24" points="2422.26,639.34 2407.9,639.34 2407.91,634.46 2422.25,634.46 "/>
    <polygon class="fil27" points="2455.57,543.91 2445.97,543.92 2441.3,543.92 2441.29,539.14 2455.57,539.14 "/>
    <polygon class="fil9" points="2498.46,753.57 2493.69,753.57 2493.69,739.27 2498.47,739.27 "/>
    <polygon class="fil11" points="2488.94,720.21 2488.94,724.97 2488.94,729.73 2484.17,729.73 2484.17,715.45 2488.94,715.45 "/>
    <polygon class="fil11" points="2527.06,739.27 2527.06,724.97 2531.83,724.97 2531.83,739.27 "/>
    <polygon class="fil11" points="2488.94,786.92 2488.94,791.69 2484.17,791.69 2484.17,777.39 2488.94,777.39 "/>
    <polygon class="fil11" points="2450.81,791.69 2446.05,791.69 2446.05,777.39 2450.81,777.39 "/>
    <polygon class="fil27" points="2512.74,543.92 2508.08,543.92 2498.45,543.88 2498.45,539.16 2512.76,539.14 "/>
    <polygon class="fil25" points="2498.45,543.88 2484.26,543.88 2484.26,539.15 2498.45,539.16 "/>
    <polygon class="fil11" points="2517.53,672.56 2517.76,677.55 2507.77,677.55 2507.77,672.32 "/>
    <polygon class="fil11" points="2512.76,653.5 2512.97,658.48 2503.01,658.48 2503.01,653.27 "/>
    <polygon class="fil11" points="2522.27,591.25 2522.16,591.68 2512.54,591.78 2512.65,586.9 2522.29,586.79 "/>
    <polygon class="fil11" points="2536.58,653.5 2536.58,643.75 2541.35,643.75 2541.35,653.75 "/>
    <polygon class="fil11" points="2536.46,610.75 2531.61,610.84 2531.69,601.21 2536.56,601.1 "/>
    <polygon class="fil11" points="2436.52,729.73 2436.52,720.21 2441.4,720.32 2441.52,729.73 "/>
    <polygon class="fil24" points="2403.17,629.68 2398.4,629.68 2398.35,624.95 2398.3,620.06 2403.12,620.11 "/>
    <polygon class="fil28" points="2522.29,548.67 2522.29,539.05 2527.07,539.05 2527.06,548.67 "/>
    <polygon class="fil28" points="2541.35,534.37 2531.74,534.37 2531.74,529.61 2541.35,529.61 "/>
    <polygon class="fil28" points="2517.61,534.37 2507.99,534.37 2507.99,529.61 2517.61,529.61 "/>
    <polygon class="fil28" points="2527.06,524.93 2522.29,524.93 2522.29,515.32 2527.06,515.32 "/>
    <polygon class="fil28" points="2508.08,548.65 2498.46,548.67 2498.45,543.88 2508.08,543.92 "/>
    <polygon class="fil11" points="2436.53,591.57 2436.53,591.25 2436.52,586.78 2446.16,586.9 2446.29,591.56 "/>
    <polygon class="fil11" points="2522.29,705.92 2512.65,705.81 2512.52,701.15 2522.29,701.15 "/>
    <polygon class="fil12" points="2407.94,629.68 2403.17,629.68 2403.12,620.11 2407.94,620.14 "/>
    <polygon class="fil28" points="2455.57,548.67 2445.97,548.65 2445.97,543.92 2455.57,543.91 "/>
    <polygon class="fil28" points="2450.83,562.98 2441.29,562.96 2441.29,558.21 2446.04,558.19 2450.82,558.21 "/>
    <polygon class="fil27" points="2436.53,553.35 2436.52,558.21 2431.75,558.19 2431.75,548.67 2436.53,548.68 "/>
    <polygon class="fil27" points="2517.53,558.21 2517.51,553.35 2517.5,548.68 2522.29,548.67 2522.29,558.19 "/>
    <polygon class="fil28" points="2512.76,562.96 2503.23,562.96 2503.23,558.21 2507.99,558.19 2512.76,558.21 "/>
    <polygon class="fil11" points="2531.83,701.15 2527.06,701.15 2522.29,701.15 2522.29,696.38 2531.83,696.38 "/>
    <polygon class="fil11" points="2431.75,748.8 2426.99,748.8 2426.99,739.27 2431.75,739.27 "/>
    <polygon class="fil11" points="2441.29,691.62 2436.52,691.62 2436.52,682.1 2441.29,682.1 "/>
    <polygon class="fil11" points="2446.05,701.15 2441.29,701.15 2441.29,691.62 2446.05,691.62 "/>
    <polygon class="fil11" points="2431.75,748.8 2441.29,748.8 2441.29,753.57 2431.75,753.57 "/>
    <polygon class="fil11" points="2431.75,739.27 2431.75,729.73 2436.52,729.73 2436.52,739.27 "/>
    <polygon class="fil11" points="2507.99,724.98 2503.23,724.98 2503.23,715.45 2507.99,715.45 "/>
    <polygon class="fil11" points="2479.41,791.69 2474.64,791.69 2474.64,782.15 2479.41,782.15 "/>
    <polygon class="fil27" points="2503.23,567.73 2503.23,562.96 2512.76,562.96 2512.76,567.73 "/>
    <polygon class="fil29" points="2446.05,629.68 2441.29,629.68 2441.29,620.14 2446.04,620.14 "/>
    <polygon class="fil27" points="2450.83,567.71 2441.29,567.73 2441.29,562.96 2450.83,562.98 "/>
    <polygon class="fil23" points="2422.22,663.03 2412.71,663.02 2412.69,658.26 2422.22,658.26 "/>
    <polygon class="fil11" points="2422.25,667.77 2412.73,667.76 2412.71,663.02 2422.22,663.03 "/>
    <polygon class="fil11" points="2384.13,634.46 2384.14,629.71 2393.65,629.69 2393.64,634.44 "/>
    <polygon class="fil11" points="2546.1,667.77 2546.11,663.03 2555.63,663.02 2555.61,667.76 "/>
    <polygon class="fil11" points="2427,605.87 2427.03,596.35 2431.77,596.34 2431.75,605.84 "/>
    <polygon class="fil11" points="2407.95,658.25 2398.44,658.23 2398.41,653.49 2407.94,653.5 "/>
    <polygon class="fil11" points="2579.61,729.6 2570.25,729.45 2570.08,724.83 2579.45,724.98 "/>
    <polygon class="fil11" points="2570.08,724.83 2560.71,724.69 2560.56,720.07 2569.92,720.21 "/>
    <polygon class="fil11" points="2560.56,720.07 2551.16,719.91 2551.02,715.3 2560.39,715.45 "/>
    <path class="fil11" d="M2598.65 643.84c-3,-0.35 -6.92,-0.6 -9.75,0.22 0.57,-1.98 0.46,-2.88 0.22,-4.99l9.37 0.17 0.16 4.6z"/>
    <path class="fil11" d="M2589.12 639.08c-3,-0.35 -6.92,-0.6 -9.75,0.22 0.57,-1.98 0.46,-2.88 0.22,-4.99l9.37 0.17 0.16 4.6z"/>
    <polygon class="fil11" points="2527.06,663.03 2526.84,658.01 2531.83,658.26 2532.03,663.29 "/>
    <polygon class="fil11" points="2522.29,667.8 2522.07,662.77 2527.06,663.03 2527.28,668.05 "/>
    <polygon class="fil11" points="2531.83,658.26 2531.61,653.25 2536.58,653.5 2536.8,658.52 "/>
    <polygon class="fil11" points="2522.29,643.96 2522.07,638.95 2527.06,639.21 2527.28,644.22 "/>
    <polygon class="fil11" points="2517.53,648.73 2517.31,643.72 2522.29,643.96 2522.51,648.99 "/>
    <polygon class="fil11" points="2512.76,653.5 2512.54,648.49 2517.53,648.73 2517.74,653.75 "/>
    <polygon class="fil11" points="2517.53,672.56 2517.31,667.54 2522.29,667.8 2522.51,672.81 "/>
    <polygon class="fil11" points="2527.06,639.21 2526.85,634.22 2531.83,634.22 2531.81,639.45 "/>
    <polygon class="fil11" points="2441.4,720.32 2441.26,715.45 2446.16,715.56 2446.29,720.43 "/>
    <polygon class="fil11" points="2531.69,601.21 2526.84,601.32 2526.92,596.45 2531.79,596.34 "/>
    <polygon class="fil11" points="2526.92,596.45 2522.07,596.56 2522.16,591.68 2527.02,591.57 "/>
    <polygon class="fil28" points="2474.73,567.71 2469.79,567.71 2469.79,562.98 2474.73,562.98 "/>
    <polygon class="fil11" points="2493.8,653.39 2488.94,653.51 2488.94,648.73 2493.94,648.73 "/>
    <polygon class="fil28" points="2507.99,520.07 2503.13,520.07 2503.14,515.32 2507.99,515.32 "/>
    <polygon class="fil28" points="2498.46,510.63 2493.69,510.63 2493.69,505.79 2498.46,505.79 "/>
    <polygon class="fil28" points="2498.46,529.61 2493.69,529.61 2493.69,524.76 2498.46,524.76 "/>
    <polygon class="fil28" points="2489.01,520.07 2484.17,520.07 2484.17,515.32 2489.01,515.32 "/>
    <polygon class="fil28" points="2517.53,558.21 2512.76,558.21 2512.77,553.35 2517.51,553.35 "/>
    <polygon class="fil28" points="2441.29,558.21 2436.52,558.21 2436.53,553.35 2441.26,553.35 "/>
    <polygon class="fil24" points="2474.65,634.46 2474.64,629.68 2479.41,629.68 2479.41,634.7 2478.93,634.47 "/>
    <polygon class="fil24" points="2407.91,634.46 2403.17,634.48 2403.17,629.68 2407.94,629.68 "/>
    <polygon class="fil24" points="2422.25,634.46 2422.22,629.68 2426.99,629.68 2426.99,634.47 "/>
    <polygon class="fil24" points="2446.03,634.46 2441.29,634.48 2441.29,629.68 2446.05,629.68 "/>
    <polygon class="fil29" points="2450.81,634.44 2446.03,634.46 2446.05,629.68 2450.81,629.68 "/>
    <polygon class="fil15" points="2512.76,772.62 2507.99,772.62 2507.99,767.87 2512.77,767.87 "/>
    <polygon class="fil24" points="2460.34,734.5 2455.57,734.5 2455.57,729.73 2460.34,729.73 "/>
    <polygon class="fil24" points="2498.46,729.73 2493.69,729.73 2493.69,724.97 2498.46,724.97 "/>
    <polygon class="fil12" points="2531.83,710.68 2527.06,710.68 2527.06,705.92 2531.83,705.92 "/>
    <polygon class="fil15" points="2527.06,710.68 2522.29,710.68 2522.29,705.92 2527.06,705.92 "/>
    <polygon class="fil9" points="2536.58,715.45 2531.83,715.45 2531.83,710.68 2536.58,710.68 "/>
    <polygon class="fil15" points="2531.83,715.45 2527.06,715.45 2527.06,710.68 2531.83,710.68 "/>
    <polygon class="fil9" points="2527.06,705.92 2522.29,705.92 2522.29,701.15 2527.06,701.15 "/>
    <polygon class="fil15" points="2536.58,710.68 2531.83,710.68 2531.83,705.92 2536.58,705.92 "/>
    <polygon class="fil12" points="2541.35,791.69 2536.58,791.69 2536.58,786.92 2541.35,786.92 "/>
    <polygon class="fil15" points="2536.58,791.69 2531.83,791.69 2531.83,786.92 2536.58,786.92 "/>
    <polygon class="fil9" points="2536.58,748.8 2536.58,744.03 2541.35,744.03 2541.35,748.8 "/>
    <polygon class="fil12" points="2536.58,758.33 2531.83,758.33 2531.83,753.57 2536.58,753.57 "/>
    <polygon class="fil11" points="2465.11,658.26 2469.87,658.26 2469.87,663.03 2465.11,663.03 "/>
    <polygon class="fil11" points="2441.29,748.8 2441.29,744.03 2446.05,744.03 2446.05,748.8 "/>
    <polygon class="fil11" points="2536.58,748.8 2531.83,748.8 2531.83,744.03 2536.58,744.03 "/>
    <polygon class="fil15" points="2531.83,705.92 2527.06,705.92 2527.06,701.15 2531.83,701.15 "/>
    <polygon class="fil11" points="2531.83,696.38 2531.83,691.62 2536.58,691.62 2536.58,696.38 "/>
    <polygon class="fil9" points="2541.35,720.21 2536.58,720.21 2536.58,715.45 2541.35,715.45 "/>
    <polygon class="fil11" points="2536.58,720.21 2531.83,720.21 2531.83,715.45 2536.58,715.45 "/>
    <polygon class="fil15" points="2531.83,758.33 2536.58,758.33 2536.58,763.1 2531.83,763.1 "/>
    <polygon class="fil9" points="2503.23,729.73 2503.23,724.98 2507.99,724.98 2507.99,729.73 "/>
    <polygon class="fil11" points="2503.23,729.73 2498.46,729.73 2498.46,724.97 2503.23,724.98 "/>
    <polygon class="fil15" points="2493.69,729.73 2488.94,729.73 2488.94,724.97 2493.69,724.97 "/>
    <polygon class="fil11" points="2493.69,715.45 2488.94,715.45 2488.94,710.68 2493.69,710.68 "/>
    <polygon class="fil11" points="2469.87,720.21 2465.11,720.21 2465.11,715.45 2469.87,715.45 "/>
    <polygon class="fil15" points="2493.69,720.21 2488.94,720.21 2488.94,715.45 2493.69,715.45 "/>
    <polygon class="fil15" points="2469.87,724.97 2465.11,724.97 2465.11,720.21 2469.87,720.21 "/>
    <polygon class="fil12" points="2493.69,724.97 2488.94,724.97 2488.94,720.21 2493.69,720.21 "/>
    <polygon class="fil27" points="2441.29,548.67 2436.53,548.68 2436.52,543.91 2441.3,543.92 "/>
    <polygon class="fil27" points="2517.5,548.68 2512.76,548.67 2512.74,543.92 2517.53,543.91 "/>
    <polygon class="fil12" points="2498.46,758.33 2493.69,758.33 2493.69,753.57 2498.46,753.57 "/>
    <polygon class="fil15" points="2498.46,724.97 2493.69,724.97 2493.69,720.21 2498.46,720.21 "/>
    <polygon class="fil15" points="2465.11,720.21 2460.34,720.21 2460.34,715.45 2465.11,715.45 "/>
    <polygon class="fil15" points="2460.34,772.62 2455.57,772.62 2455.57,767.87 2460.34,767.87 "/>
    <polygon class="fil15" points="2507.99,777.39 2512.76,777.39 2512.76,782.15 2507.99,782.15 "/>
    <polygon class="fil11" points="2436.52,682.1 2431.75,682.1 2431.77,677.31 2436.52,677.33 "/>
    <polygon class="fil12" points="2460.34,777.39 2455.57,777.39 2455.57,772.62 2460.34,772.62 "/>
    <polygon class="fil15" points="2522.29,791.69 2517.53,791.69 2517.53,786.92 2522.29,786.92 "/>
    <polygon class="fil15" points="2493.69,791.69 2488.94,791.69 2488.94,786.92 2493.69,786.92 "/>
    <polygon class="fil12" points="2512.76,777.39 2507.99,777.39 2507.99,772.62 2512.76,772.62 "/>
    <polygon class="fil15" points="2455.57,744.03 2455.57,739.27 2460.34,739.27 2460.34,744.03 "/>
    <polygon class="fil12" points="2517.53,744.03 2512.76,744.03 2512.76,739.27 2517.53,739.27 "/>
    <polygon class="fil15" points="2460.34,777.39 2460.34,772.62 2465.11,772.62 2465.11,777.39 "/>
    <polygon class="fil15" points="2455.57,777.39 2460.34,777.39 2460.34,782.15 2455.57,782.15 "/>
    <polygon class="fil15" points="2507.99,777.39 2503.23,777.39 2503.23,772.62 2507.99,772.62 "/>
    <polygon class="fil15" points="2512.76,744.03 2507.99,744.03 2507.99,739.27 2512.76,739.27 "/>
    <polygon class="fil15" points="2517.53,739.27 2512.76,739.27 2512.76,734.5 2517.53,734.5 "/>
    <polygon class="fil15" points="2517.53,744.03 2517.53,739.27 2522.29,739.27 2522.29,744.03 "/>
    <polygon class="fil15" points="2512.76,777.39 2512.76,772.62 2517.53,772.62 2517.53,777.39 "/>
    <polygon class="fil15" points="2512.76,744.03 2517.53,744.03 2517.53,748.8 2512.76,748.8 "/>
    <polygon class="fil15" points="2493.69,763.1 2493.69,758.33 2498.46,758.33 2498.46,763.1 "/>
    <polygon class="fil12" points="2460.34,739.27 2455.57,739.27 2455.57,734.5 2460.34,734.5 "/>
    <polygon class="fil15" points="2469.87,791.69 2465.11,791.69 2465.11,786.92 2469.87,786.92 "/>
    <polygon class="fil27" points="2441.29,562.96 2436.52,562.96 2436.52,558.21 2441.29,558.21 "/>
    <polygon class="fil27" points="2512.76,562.96 2512.76,558.21 2517.53,558.21 2517.53,562.96 "/>
    <polygon class="fil15" points="2527.06,763.1 2522.29,763.1 2522.29,758.33 2527.06,758.33 "/>
    <polygon class="fil15" points="2465.11,758.33 2460.34,758.33 2460.34,753.57 2465.11,753.57 "/>
    <polygon class="fil12" points="2465.11,791.69 2460.34,791.69 2460.34,786.92 2465.11,786.92 "/>
    <polygon class="fil12" points="2460.34,758.33 2465.11,758.33 2465.11,763.09 2460.34,763.09 "/>
    <polygon class="fil15" points="2469.87,748.8 2465.12,748.8 2465.11,744.03 2469.87,744.03 "/>
    <polygon class="fil12" points="2507.99,791.69 2503.23,791.69 2503.24,786.92 2507.99,786.92 "/>
    <polygon class="fil11" points="2412.71,663.02 2407.96,662.99 2407.95,658.25 2412.69,658.26 "/>
    <polygon class="fil11" points="2422.25,610.64 2422.26,605.88 2427,605.87 2426.99,610.61 "/>
    <polygon class="fil11" points="2427,672.54 2422.26,672.53 2422.25,667.77 2426.99,667.8 "/>
    <polygon class="fil11" points="2431.77,677.31 2427.03,677.29 2427,672.54 2431.75,672.56 "/>
    <polygon class="fil11" points="2431.77,596.34 2431.79,591.59 2436.53,591.57 2436.52,596.32 "/>
    <polygon class="fil11" points="2422.22,615.38 2417.49,615.34 2417.49,610.65 2422.25,610.64 "/>
    <polygon class="fil11" points="2398.4,629.68 2393.65,629.69 2393.67,624.95 2398.35,624.95 "/>
    <polygon class="fil25" points="2445.97,548.65 2441.29,548.67 2441.3,543.92 2445.97,543.92 "/>
    <polygon class="fil25" points="2512.76,548.67 2508.08,548.65 2508.08,543.92 2512.74,543.92 "/>
    <polygon class="fil25" points="2441.26,553.35 2436.53,553.35 2436.53,548.68 2441.29,548.67 "/>
    <polygon class="fil25" points="2517.51,553.35 2512.77,553.35 2512.76,548.67 2517.5,548.68 "/>
    <polygon class="fil11" points="2488.94,648.73 2484.17,648.73 2484.03,644.11 2488.87,644.26 "/>
    <polygon class="fil24" points="2498.41,520.03 2493.74,520.03 2493.74,515.36 2498.42,515.36 "/>
    <polygon class="fil24" points="2527.01,534.32 2522.34,534.32 2522.34,529.66 2527.01,529.66 "/>
    <polygon class="fil25" points="2479.32,567.71 2474.73,567.71 2474.73,562.98 2479.32,562.98 "/>
    <polygon class="fil11" points="2379.21,639.08 2379.4,634.48 2384.13,634.46 2384.1,638.89 "/>
    <polygon class="fil11" points="2584.38,734.37 2579.77,734.22 2579.61,729.6 2584.22,729.73 "/>
    <polygon class="fil11" points="2589.14,739.12 2584.53,738.99 2584.38,734.37 2588.99,734.5 "/>
    <path class="fil11" d="M2603.42 648.61c-2.1,-0.24 -3,-0.35 -4.99,0.22 0.57,-1.98 0.46,-2.88 0.22,-4.99l4.61 0.18 0.16 4.58z"/>
    <path class="fil11" d="M2608.18 653.38c-2.1,-0.24 -3,-0.35 -4.99,0.22 0.57,-1.98 0.46,-2.88 0.22,-4.99l4.61 0.18 0.16 4.58z"/>
   </g>
  </g>
 </g>
</svg>
