<?xml version="1.0" encoding="UTF-8"?>
<!DOCTYPE svg PUBLIC "-//W3C//DTD SVG 1.1//EN" "http://www.w3.org/Graphics/SVG/1.1/DTD/svg11.dtd">
<!-- Creator: CorelDRAW 2020 (64-Bit) -->
<svg xmlns="http://www.w3.org/2000/svg" xml:space="preserve" width="88.1036mm" height="49.6099mm" version="1.1" style="shape-rendering:geometricPrecision; text-rendering:geometricPrecision; image-rendering:optimizeQuality; fill-rule:evenodd; clip-rule:evenodd"
viewBox="0 0 421.17 237.16"
 xmlns:xlink="http://www.w3.org/1999/xlink"
 xmlns:xodm="http://www.corel.com/coreldraw/odm/2003">
 <defs>
  <style type="text/css">
   <![CDATA[
    .fil1 {fill:none}
    .fil4 {fill:#00B8FE}
    .fil5 {fill:#00F6FF}
    .fil6 {fill:#569DFC}
    .fil7 {fill:#94D9FD}
    .fil2 {fill:black;fill-rule:nonzero}
    .fil3 {fill:#343235;fill-rule:nonzero}
    .fil0 {fill:white;fill-opacity:0.000000}
   ]]>
  </style>
     <clipPath id="id0">
      <path d="M13.56 0c-7.49,0 -13.56,6.07 -13.56,13.56l0 36.75c0,7.5 6.07,13.56 13.56,13.56l180.52 0 16.62 16.62 16.61 -16.62 180.3 0c7.49,0 13.56,-6.07 13.56,-13.56l0 -36.75c0,-7.5 -6.07,-13.56 -13.56,-13.56l-394.05 0 0 0z"/>
     </clipPath>
     <clipPath id="id1">
      <path d="M13.56 0c-7.49,0 -13.56,6.07 -13.56,13.56l0 36.75c0,7.5 6.07,13.56 13.56,13.56l180.52 0 16.62 16.62 16.61 -16.62 180.3 0c7.49,0 13.56,-6.07 13.56,-13.56l0 -36.75c0,-7.5 -6.07,-13.56 -13.56,-13.56l-394.05 0 0 0z"/>
     </clipPath>
 </defs>
 <g id="Layer_x0020_1">
  <metadata id="CorelCorpID_0Corel-Layer"/>
  <g id="_2002206398672">
   <g id="_2329200824624">
    <g>
    </g>
    <g style="clip-path:url(#id0)">
     <g>
      <polygon class="fil0" points="-0,0 421.18,0 421.18,80.5 -0,80.5 "/>
     </g>
    </g>
    <path class="fil1" d="M13.56 0c-7.49,0 -13.56,6.07 -13.56,13.56l0 36.75c0,7.5 6.07,13.56 13.56,13.56l180.52 0 16.62 16.62 16.61 -16.62 180.3 0c7.49,0 13.56,-6.07 13.56,-13.56l0 -36.75c0,-7.5 -6.07,-13.56 -13.56,-13.56l-394.05 0 0 0z"/>
    <g>
    </g>
    <g style="clip-path:url(#id1)">
     <g id="_2002206389120">
      <path id="_1" class="fil2" d="M194.08 63.89l1.2 -1.2 -0.49 -0.49 -0.7 0 0 1.69 -0.01 -0zm16.62 16.62l-1.2 1.2 1.2 1.2 1.2 -1.2 -1.2 -1.2zm16.61 -16.62l0 -1.69 -0.7 0 -0.49 0.49 1.2 1.2 -0.01 0zm-225.63 -50.31c0,-6.56 5.31,-11.87 11.87,-11.87l0 -3.4c-8.43,0 -15.27,6.84 -15.27,15.27l3.4 0 0 -0zm0 36.75l0 -36.75 -3.4 0 0 36.75 3.4 0zm11.87 11.87c-6.56,0 -11.87,-5.31 -11.87,-11.87l-3.4 0c0,8.43 6.84,15.27 15.27,15.27l0 -3.4 -0 -0zm180.52 0l-180.52 0 0 3.4 180.52 0 0 -3.4zm17.82 17.12l-16.61 -16.62 -2.4 2.4 16.62 16.62 2.4 -2.4zm14.22 -16.62l-16.61 16.62 2.4 2.4 16.62 -16.62 -2.4 -2.4zm181.5 -0.49l-180.3 0 0 3.4 180.3 0 0 -3.4zm11.87 -11.87c0,6.56 -5.31,11.87 -11.87,11.87l0 3.4c8.43,0 15.27,-6.84 15.27,-15.27l-3.4 0 -0 0zm0 -36.75l0 36.75 3.4 0 0 -36.75 -3.4 0zm-11.87 -11.87c6.56,0 11.87,5.31 11.87,11.87l3.4 0c0,-8.43 -6.84,-15.27 -15.27,-15.27l0 3.4 0 0zm-394.05 0l394.05 0 0 -3.4 -394.05 0 0 3.4z"/>
     </g>
    </g>
    <path class="fil1" d="M13.56 0c-7.49,0 -13.56,6.07 -13.56,13.56l0 36.75c0,7.5 6.07,13.56 13.56,13.56l180.52 0 16.62 16.62 16.61 -16.62 180.3 0c7.49,0 13.56,-6.07 13.56,-13.56l0 -36.75c0,-7.5 -6.07,-13.56 -13.56,-13.56l-394.05 0 0 0z"/>
    <path class="fil1" d="M13.56 0c-7.49,0 -13.56,6.07 -13.56,13.56l0 36.75c0,7.5 6.07,13.56 13.56,13.56l180.52 0 16.62 16.62 16.61 -16.62 180.3 0c7.49,0 13.56,-6.07 13.56,-13.56l0 -36.75c0,-7.5 -6.07,-13.56 -13.56,-13.56l-394.05 0 0 0z"/>
    <g id="_2002206372752">
     <path class="fil3" d="M30.43 26.24c0.31,0 0.57,0.12 0.8,0.37 0.23,0.25 0.38,0.55 0.47,0.91l2.38 10.85 2.79 -12.13 3.66 0 2.79 12.13 2.17 -10.81c0.09,-0.39 0.25,-0.7 0.47,-0.95 0.23,-0.25 0.49,-0.37 0.8,-0.37l2.84 0 -4.17 18.1c-0.11,0.36 -0.28,0.66 -0.53,0.91 -0.24,0.25 -0.52,0.37 -0.83,0.37l-1.54 0c-0.31,0 -0.58,-0.12 -0.83,-0.37 -0.24,-0.25 -0.42,-0.55 -0.53,-0.91l-2.49 -10.89 -2.49 10.89c-0.11,0.36 -0.28,0.66 -0.53,0.91 -0.24,0.25 -0.52,0.37 -0.83,0.37l-1.54 0c-0.31,0 -0.58,-0.12 -0.83,-0.37 -0.24,-0.25 -0.42,-0.55 -0.53,-0.91l-4.17 -18.1 2.65 0zm20.53 1.94c0,-0.54 0.13,-1 0.39,-1.38 0.26,-0.37 0.58,-0.56 0.96,-0.56l10.97 0c0.36,0 0.67,0.19 0.93,0.56 0.26,0.37 0.39,0.83 0.39,1.38l0 8.26c0,0.52 -0.13,0.97 -0.39,1.36 -0.26,0.39 -0.58,0.58 -0.96,0.58l-8.8 0 0 2.4 10.16 0 0 4.84 -12.3 0c-0.38,0 -0.7,-0.19 -0.96,-0.56 -0.26,-0.37 -0.39,-0.83 -0.39,-1.38l0 -15.5zm3.49 2.91l0 2.44 6.66 0 0 -2.44 -6.66 0zm16.9 -12.09l0 21.78 1.22 0 0 4.84 -3.36 0c-0.38,0 -0.7,-0.19 -0.96,-0.56 -0.26,-0.37 -0.39,-0.82 -0.39,-1.34l0 -24.73 3.49 0zm4.47 9.19c0,-0.54 0.13,-1 0.39,-1.38 0.26,-0.37 0.58,-0.56 0.96,-0.56l10.94 0c0.38,0 0.7,0.19 0.96,0.56 0.26,0.37 0.39,0.83 0.39,1.38l0 4.11 -3.49 0 0 -1.2 -6.66 0 0 9.69 6.66 0 0 -1.2 3.49 0 0 4.11c0,0.54 -0.13,1 -0.39,1.38 -0.26,0.37 -0.58,0.56 -0.96,0.56l-10.94 0c-0.38,0 -0.7,-0.19 -0.96,-0.56 -0.26,-0.37 -0.39,-0.83 -0.39,-1.38l0 -15.5zm27.06 2.91l-6.66 0 0 9.69 6.66 0 0 -9.69zm3.49 12.6c0,0.54 -0.13,1 -0.39,1.38 -0.26,0.37 -0.58,0.56 -0.96,0.56l-10.94 0c-0.38,0 -0.7,-0.19 -0.96,-0.56 -0.26,-0.37 -0.39,-0.83 -0.39,-1.38l0 -15.46c0,-0.54 0.13,-1.01 0.39,-1.39 0.26,-0.39 0.58,-0.58 0.96,-0.58l10.94 0c0.38,0 0.7,0.19 0.96,0.58 0.26,0.39 0.39,0.84 0.39,1.36l0 15.5zm15.76 1.94l-3.49 0 0 -14.53 -4.17 0c-0.36,0 -0.68,0.19 -0.95,0.56 -0.27,0.37 -0.41,0.83 -0.41,1.38l0 12.6 -3.49 0 0 -19.38 3.49 0 0 1.94c0,-0.54 0.14,-1 0.41,-1.38 0.27,-0.37 0.59,-0.56 0.95,-0.56l6.07 0c0.38,0 0.7,0.19 0.96,0.58 0.26,0.39 0.39,0.84 0.39,1.36 0,-0.54 0.14,-1 0.41,-1.38 0.27,-0.37 0.6,-0.56 0.98,-0.56l6.53 0c0.36,0 0.68,0.19 0.95,0.56 0.27,0.37 0.41,0.83 0.41,1.38l0 17.44 -3.49 0 0 -14.53 -4.17 0c-0.38,0 -0.7,0.19 -0.96,0.56 -0.26,0.37 -0.39,0.83 -0.39,1.38l0 12.6zm12.27 -17.44c0,-0.54 0.13,-1 0.39,-1.38 0.26,-0.37 0.58,-0.56 0.96,-0.56l10.97 0c0.36,0 0.67,0.19 0.93,0.56 0.26,0.37 0.39,0.83 0.39,1.38l0 8.26c0,0.52 -0.13,0.97 -0.39,1.36 -0.26,0.39 -0.58,0.58 -0.96,0.58l-8.8 0 0 2.4 10.16 0 0 4.84 -12.3 0c-0.38,0 -0.7,-0.19 -0.96,-0.56 -0.26,-0.37 -0.39,-0.83 -0.39,-1.38l0 -15.5zm3.49 2.91l0 2.44 6.66 0 0 -2.44 -6.66 0zm31.07 -12.09l0 7.25 2.38 0 0 4.84 -2.38 0 0 9.69 2.38 0 0 4.84 -4.55 0c-0.36,0 -0.68,-0.19 -0.95,-0.56 -0.27,-0.37 -0.41,-0.82 -0.41,-1.34l0 -12.63 -1.68 0 0 -4.84 1.68 0 0 -7.25 3.52 0zm15.25 12.09l-6.66 0 0 9.69 6.66 0 0 -9.69zm3.49 12.6c0,0.54 -0.13,1 -0.39,1.38 -0.26,0.37 -0.58,0.56 -0.96,0.56l-10.94 0c-0.38,0 -0.7,-0.19 -0.96,-0.56 -0.26,-0.37 -0.39,-0.83 -0.39,-1.38l0 -15.46c0,-0.54 0.13,-1.01 0.39,-1.39 0.26,-0.39 0.58,-0.58 0.96,-0.58l10.94 0c0.38,0 0.7,0.19 0.96,0.58 0.26,0.39 0.39,0.84 0.39,1.36l0 15.5zm16.79 -24.22c0,-0.31 0.11,-0.47 0.33,-0.47l2.84 0c0.22,0 0.33,0.16 0.33,0.47l0 3.91c0,0.31 -0.11,0.47 -0.33,0.47l-2.84 0c-0.22,0 -0.33,-0.15 -0.33,-0.47l0 -3.91zm3.49 26.16l-3.49 0 0 -19.38 3.49 0 0 19.38zm6.74 0l-3.49 0 0 -19.38 3.49 0 0 1.94c0,-0.52 0.14,-0.97 0.41,-1.36 0.27,-0.39 0.59,-0.58 0.95,-0.58l6.31 0c0.38,0 0.7,0.19 0.96,0.58 0.26,0.39 0.39,0.84 0.39,1.36l0 17.44 -3.49 0 0 -14.53 -4.17 0c-0.36,0 -0.68,0.19 -0.95,0.56 -0.27,0.37 -0.41,0.83 -0.41,1.38l0 12.6zm16.44 -19.38l0 24.73c0,0.52 -0.13,0.96 -0.39,1.34 -0.26,0.37 -0.57,0.56 -0.93,0.56l-3.39 0 0 -4.84 1.22 0 0 -21.78 3.49 0zm-3.49 -6.78c0,-0.31 0.11,-0.47 0.33,-0.47l2.84 0c0.22,0 0.33,0.16 0.33,0.47l0 3.91c0,0.31 -0.11,0.47 -0.33,0.47l-2.84 0c-0.22,0 -0.33,-0.15 -0.33,-0.47l0 -3.91zm23.78 21.32l6.66 0 0 -9.69 -5.31 0c-0.36,0 -0.68,0.19 -0.95,0.58 -0.27,0.39 -0.41,0.84 -0.41,1.36l0 7.75zm0 4.84l-3.49 0 0 -26.63 3.49 0 0 9.22c0,-0.54 0.14,-1.01 0.41,-1.39 0.27,-0.39 0.59,-0.58 0.95,-0.58l7.45 0c0.38,0 0.7,0.19 0.96,0.58 0.26,0.39 0.39,0.84 0.39,1.36l0 15.5c0,0.54 -0.13,1 -0.39,1.38 -0.26,0.37 -0.58,0.56 -0.96,0.56l-7.45 0c-0.36,0 -0.68,-0.19 -0.95,-0.56 -0.27,-0.37 -0.41,-0.83 -0.41,-1.38l0 1.94zm14.74 0c-0.36,0 -0.67,-0.19 -0.93,-0.56 -0.26,-0.37 -0.39,-0.83 -0.39,-1.38l0 -8.22c0,-0.54 0.13,-1 0.39,-1.38 0.26,-0.37 0.58,-0.56 0.96,-0.56l8.8 0 0 -2.44 -6.66 0 0 1.2 -3.49 0 0 -4.11c0,-0.54 0.13,-1 0.39,-1.38 0.26,-0.37 0.58,-0.56 0.96,-0.56l10.94 0c0.38,0 0.7,0.19 0.96,0.56 0.26,0.37 0.39,0.83 0.39,1.38l0 17.44 -3.49 0 0 -1.94c0,0.54 -0.13,1 -0.39,1.38 -0.26,0.37 -0.58,0.56 -0.96,0.56l-7.48 0zm8.83 -4.84l0 -2.4 -6.66 0 0 2.4 6.66 0zm10.24 0l6.66 0 0 -9.69 -5.31 0c-0.36,0 -0.68,0.19 -0.95,0.58 -0.27,0.39 -0.41,0.84 -0.41,1.36l0 7.75zm0 4.84l-3.49 0 0 -26.63 3.49 0 0 9.22c0,-0.54 0.14,-1.01 0.41,-1.39 0.27,-0.39 0.59,-0.58 0.95,-0.58l7.45 0c0.38,0 0.7,0.19 0.96,0.58 0.26,0.39 0.39,0.84 0.39,1.36l0 15.5c0,0.54 -0.13,1 -0.39,1.38 -0.26,0.37 -0.58,0.56 -0.96,0.56l-7.45 0c-0.36,0 -0.68,-0.19 -0.95,-0.56 -0.27,-0.37 -0.41,-0.83 -0.41,-1.38l0 1.94zm18.34 -7.29l3.11 -12.09 3.71 0 -6.53 25.35c-0.13,0.39 -0.31,0.7 -0.54,0.93 -0.23,0.23 -0.51,0.35 -0.81,0.35l-2.71 0 0 -4.84 1.22 0 0.7 -2.75 -4.98 -19.03 3.66 0 3.17 12.09zm23.08 7.29c-0.38,0 -0.7,-0.19 -0.96,-0.56 -0.26,-0.37 -0.39,-0.83 -0.39,-1.38l0 -4.11 3.49 0 0 1.2 6.66 0 0 -2.4 -8.8 0c-0.38,0 -0.7,-0.19 -0.96,-0.58 -0.26,-0.39 -0.39,-0.84 -0.39,-1.36l0 -8.26c0,-0.52 0.13,-0.97 0.39,-1.36 0.26,-0.39 0.58,-0.58 0.96,-0.58l2.14 0 8.8 0c0.38,0 0.7,0.19 0.96,0.58 0.26,0.39 0.39,0.84 0.39,1.36l0 4.15 -3.49 0 0 -1.24 -6.66 0 0 2.44 8.8 0c0.38,0 0.7,0.19 0.96,0.56 0.26,0.37 0.39,0.82 0.39,1.34l0 8.29c0,0.52 -0.13,0.96 -0.39,1.34 -0.26,0.37 -0.58,0.56 -0.96,0.56l-10.94 0zm19.04 0l-3.49 0 0 -26.63 3.49 0 0 9.19c0,-0.52 0.14,-0.97 0.41,-1.36 0.27,-0.39 0.59,-0.58 0.95,-0.58l6.31 0c0.38,0 0.7,0.19 0.96,0.58 0.26,0.39 0.39,0.84 0.39,1.36l0 17.44 -3.49 0 0 -14.53 -4.17 0c-0.36,0 -0.68,0.19 -0.95,0.56 -0.27,0.37 -0.41,0.83 -0.41,1.38l0 12.6zm13.6 0c-0.36,0 -0.67,-0.19 -0.93,-0.56 -0.26,-0.37 -0.39,-0.83 -0.39,-1.38l0 -8.22c0,-0.54 0.13,-1 0.39,-1.38 0.26,-0.37 0.58,-0.56 0.96,-0.56l8.8 0 0 -2.44 -6.66 0 0 1.2 -3.49 0 0 -4.11c0,-0.54 0.13,-1 0.39,-1.38 0.26,-0.37 0.58,-0.56 0.96,-0.56l10.94 0c0.38,0 0.7,0.19 0.96,0.56 0.26,0.37 0.39,0.83 0.39,1.38l0 17.44 -3.49 0 0 -1.94c0,0.54 -0.13,1 -0.39,1.38 -0.26,0.37 -0.58,0.56 -0.96,0.56l-7.48 0zm8.83 -4.84l0 -2.4 -6.66 0 0 2.4 6.66 0zm10.24 4.84l-3.49 0 0 -19.38 3.49 0 0 1.94c0,-0.54 0.14,-1 0.41,-1.38 0.27,-0.37 0.59,-0.56 0.95,-0.56l3.95 0c0.38,0 0.7,0.19 0.96,0.56 0.26,0.37 0.39,0.83 0.39,1.38l0 4.11 -3.49 0 0 -1.2 -1.84 0c-0.36,0 -0.67,0.19 -0.93,0.56 -0.26,0.37 -0.39,0.83 -0.39,1.38l0 12.6zm12.87 0l-3.49 0 0 -26.63 3.49 0 0 13.29 2.68 -5.31c0.29,-0.49 0.66,-0.74 1.11,-0.74l3.47 0 -3.2 6.05 3.6 0c0.38,0 0.7,0.19 0.96,0.58 0.26,0.39 0.39,0.84 0.39,1.36l0 11.39 -3.49 0 0 -8.49 -4.17 0c-0.36,0 -0.68,0.19 -0.95,0.58 -0.27,0.39 -0.41,0.85 -0.41,1.39l0 6.51z"/>
    </g>
    <g id="_2002206371120">
     <path class="fil4" d="M124.37 208.19l0.08 -9.71 4.68 0 -0.06 9.6 -4.71 0.11 0 -0zm154.82 -38.89l0.06 -24.11 4.74 -0.03 0.03 24.05 -4.84 0.1 0.01 -0.01zm-91.9 -43.47l4.8 0.05 -0.04 4.74 -4.75 0.02 -0.01 -4.8 0 -0.01zm33.88 -19.29l-0.07 4.68 -9.52 0.03 0.02 -4.68 9.56 -0.02 0 -0.01zm4.92 -4.96l0.02 -4.8 9.55 0.02 -0.03 4.75 -9.55 0.03zm29.08 -14.52l0 -4.8 9.53 0.03 -0.04 4.72 -9.5 0.05 0.01 0.01zm9.53 -4.98c-1.68,-0.31 -8.36,-0.42 -9.79,0.14l-0.03 4.84 0.28 0.01 -0.11 4.92 -9.82 -0.02 0.05 4.74 -9.64 -0.1c-1.67,-0.31 -8.32,-0.41 -9.78,0.11l-0.08 4.88 0.3 -0.02 -0.13 4.9 -4.79 0.06 0 -0.32 -9.75 0.09 -0.09 4.68c-0.81,0 -1.6,0 -2.4,-0.01l-1.7 0.07c-0.55,0.12 -0.5,0.14 -0.69,0.26l4.89 0.02 0 4.74 -4.82 0.02 -0.11 4.81 -9.53 0.09 -0.08 4.72 -4.8 -0.06 -4.94 -0.11 -0.03 5.07 -0.04 4.84 -4.51 -0.07c0.07,1.53 0.39,3.62 -0.25,5.01l-4.75 0.08 -0.03 4.63 -4.75 0.01 0.06 -4.65 0.07 -0.29c-0.79,0.95 -0.54,3.54 -0.34,4.94l0.01 4.81c-1.58,0.04 -3.2,-0.14 -4.7,0.23l-0.06 4.57 -4.78 -0.05c-1.39,-0.27 -3.99,-0.49 -4.94,0.29l0.28 -0.07 4.67 -0.04 -4.65 4.77 -0.13 4.74c-1.34,0.64 -3.46,0.36 -4.96,0.27l0.06 9.4 -4.85 0.11 0.06 4.71c-1,0.64 -3.57,0.34 -4.79,0.35 -0.01,0.9 0.28,3.85 -0.29,4.44 -0.32,0.48 -3.18,0.26 -4.45,0.32l-0.35 4.75 -4.7 -0.04 -0.02 9.61 -4.75 0.06 0 -9.74c-0.05,0.07 -0.08,0.1 -0.1,0.22 -0.43,4.39 -0.12,4.85 -0.24,9.26 -1.51,0.04 -3.27,-0.25 -4.65,0.28l-0.04 9.55c-1.37,0.01 -3.72,-0.32 -4.69,0.27l4.88 -0.05 -0.1 9.5 -4.82 0.1 -0.01 4.6 0.02 0.32 0.01 4.6c2.16,0.26 17.69,0.34 19.33,-0.04l0.05 -4.59 19.3 -0.07 0.04 4.67 19.32 0.11 0.07 -4.74 19.43 -0.05 0 4.74 19.21 0.07 0.1 -4.84 19.17 0.02 0.21 4.72c2.24,0.25 17.66,0.35 19.3,-0.05l0.05 -4.6 19.38 -0.06 -0.02 -53.17 4.78 -0.15 -0.01 0.26 4.88 -0.11c0.54,-1.24 0.55,-22.11 0.18,-24.28l-0.09 -24.2 4.79 0.04 0.07 -24.26 4.8 -0.03 -0.02 -19.36 -14.55 -0.01 -0.01 4.81 -14.49 -0.08 -0.04 0.03z"/>
     <polygon class="fil5" points="274.44,222.63 274.41,227.33 279.27,227.42 279.2,169.57 279.21,169.3 274.43,169.46 "/>
     <polygon class="fil5" points="279.24,77.37 293.79,77.37 293.8,96.73 298.65,96.71 298.64,72.61 279.25,72.52 "/>
     <polygon class="fil5" points="288.94,121.02 293.71,120.95 293.8,96.73 289,96.75 "/>
     <polygon class="fil5" points="279.21,169.3 284.04,169.21 284.01,145.16 279.26,145.19 "/>
     <polygon class="fil5" points="284.24,145.18 288.94,145.16 288.94,121.02 284.15,120.97 "/>
     <polygon class="fil5" points="264.73,82.08 279.22,82.18 279.24,77.37 264.73,77.36 "/>
     <polygon class="fil5" points="196.99,121.01 206.5,120.91 206.62,116.1 197.04,116.09 "/>
     <path class="fil5" d="M163.05 154.72l4.78 0.05 0.06 -4.57c1.5,-0.37 3.12,-0.2 4.7,-0.23l-0.01 -4.81 -4.69 0 -0.03 4.68 -4.81 0.16 0 4.74 -0 -0.01z"/>
     <polygon class="fil5" points="148.52,174.21 153.36,174.1 153.31,164.7 148.53,164.63 "/>
     <polygon class="fil5" points="226.11,101.59 235.66,101.55 235.69,96.8 226.13,96.78 "/>
     <polygon class="fil5" points="235.68,96.61 245.32,96.72 245.27,91.97 235.68,91.88 "/>
     <polygon class="fil5" points="255.2,87.07 264.7,87.02 264.73,82.3 255.2,82.27 "/>
     <polygon class="fil5" points="221.19,106.54 211.63,106.57 211.61,111.25 221.13,111.22 "/>
     <polygon class="fil5" points="254.92,87.06 245.78,87.06 245.64,91.63 254.85,91.66 "/>
     <polygon class="fil5" points="206.62,116.1 211.44,116.09 211.43,111.34 206.55,111.32 "/>
     <polygon class="fil5" points="187.32,130.63 192.07,130.61 192.1,125.87 187.31,125.83 "/>
     <polygon class="fil5" points="192.1,125.67 196.9,125.72 196.99,121.01 192.08,121.04 "/>
     <polygon class="fil5" points="158.4,159.68 163.03,159.67 163.05,154.91 158.38,154.94 "/>
     <polygon class="fil5" points="148.57,178.92 148.52,174.21 143.92,174.21 143.85,178.96 "/>
     <polygon class="fil5" points="177.57,140.51 172.84,140.5 172.79,145.15 177.54,145.15 "/>
     <polygon class="fil5" points="182.58,135.41 187.09,135.47 187.13,130.64 182.52,130.64 "/>
     <polygon class="fil5" points="133.99,188.73 138.69,188.77 138.72,184.08 133.99,184.14 "/>
     <polygon class="fil5" points="153.34,164.42 157.98,164.42 158.08,159.69 153.47,159.69 "/>
     <polygon class="fil5" points="177.57,140.18 182.26,140.11 182.29,135.45 177.58,135.58 "/>
     <polygon class="fil5" points="138.83,183.71 143.49,183.71 143.49,179.05 138.82,179.04 "/>
     <polygon class="fil5" points="221.18,106.22 225.77,106.21 225.82,101.6 221.16,101.57 "/>
     <path class="fil5" d="M245.27 91.97l9.82 0.02 0.11 -4.92 -0.28 -0.01 -0.07 4.6 -9.21 -0.03 0.14 -4.57c-0.76,0.37 -0.3,-0.37 -0.51,0.85 -0.02,0.09 0.01,1.27 0.02,1.46 0.01,0.87 -0.01,1.74 -0.02,2.6l-0.01 -0.01z"/>
     <path class="fil5" d="M177.57 140.18l-4.66 0.03 -0.07 0.29 4.73 0.01 4.75 -0.08c0.64,-1.4 0.32,-3.49 0.25,-5.01l-0.29 0.05 -0.03 4.65 -4.69 0.07 -0 0z"/>
     <path class="fil5" d="M143.49 179.05l0 4.66c0.58,-0.59 0.29,-3.53 0.29,-4.44 1.22,-0.02 3.8,0.29 4.79,-0.35l-4.73 0.04 0.07 -4.74c-0.38,0.43 -0.3,-0.65 -0.36,0.87l-0.07 3.96 0 0.01z"/>
     <path class="fil5" d="M158.08 159.69l-0.1 4.73 -4.62 0.01 -0.04 0.28c1.51,0.09 3.62,0.37 4.96,-0.27l0.13 -4.74 -0.02 -4.74 -0.28 0.07 -0.03 4.67 0 0z"/>
     <path class="fil5" d="M138.69 188.77l0.35 -4.75c1.27,-0.06 4.13,0.18 4.45,-0.32l-4.66 0c-2.21,0.22 -3.94,-0.23 -4.84,0.43l4.73 -0.06 -0.03 4.7 0 0z"/>
     <polygon class="fil5" points="221.18,106.22 221.19,106.54 225.98,106.48 226.11,101.59 225.82,101.6 225.77,106.21 "/>
     <path class="fil5" d="M148.53 164.63l4.78 0.07 0.04 -0.28 0.12 -4.74c-0.25,0.4 -0.2,-0.08 -0.31,0.85 -0.03,0.23 0,0.89 0,1.17 0.01,0.87 0.01,1.74 0,2.6l-4.04 0.05c-0.59,0.12 -0.28,0.07 -0.6,0.27l0 0.01z"/>
     <g>
      <polygon class="fil5" points="119.45,217.79 124.27,217.69 124.37,208.19 119.5,208.23 "/>
      <polygon class="fil5" points="133.99,188.73 129.21,188.66 129.22,198.4 133.97,198.34 "/>
      <polygon class="fil5" points="124.37,208.19 129.08,208.08 129.14,198.47 124.46,198.47 "/>
      <polygon class="fil5" points="119.45,222.39 119.45,217.79 114.83,217.79 114.82,222.39 "/>
      <path class="fil5" d="M114.57 222.65l4.9 0.06 -0.02 -0.32 -4.63 0 0.01 -4.6c-0.42,0.33 -0.19,-0.34 -0.32,0.86 -0.04,0.3 0.01,1.12 0.01,1.46 0.01,0.87 -0.01,1.67 0.05,2.54l0 0.01z"/>
      <g>
       <path class="fil6" d="M90.42 227.49l0 9.67 232.42 0 0 -9.65 -9.66 -0.02 -0.09 -4.87 -19.3 0.01c-0.07,6.14 2.27,4.82 -9.59,4.84 -3,0.01 -6.82,0.21 -9.76,-0.06l-0.05 -4.79 -19.31 0 -0.13 4.73c-1.67,0.35 -17.81,0.29 -18.97,-0.07 -0.6,-1.03 -0.24,-3.14 -0.33,-4.63l-19.35 0.07 -0.15 4.8 -19.18 -0.03 -0.1 -4.86 -19.29 0.01 -0.12 4.84 -19.24 -0.07 -0.07 -4.79 -19.3 0 -0.09 4.76c-2.55,0.44 -9.32,0.07 -12.32,0.07 -6.93,-0.01 -7.17,0.79 -7.14,-1.9 0.02,-1.02 0.07,-1.84 -0.04,-2.91l-19.14 -0.04 -0.07 4.83 -9.65 0.05 0 0z"/>
       <path class="fil7" d="M119.47 213.02l-4.9 -0.06 -14.44 -0.06 -0.13 4.47c-1.43,0.92 -7.43,0.35 -9.59,0.35l0 9.76 9.65 -0.05 0.07 -4.83 19.14 0.04c0.1,1.07 0.06,1.9 0.04,2.91 -0.04,2.69 0.2,1.89 7.14,1.9 3,0 9.77,0.36 12.32,-0.07l0.09 -4.76 19.3 0 0.07 4.79 19.24 0.07 0.12 -4.84 19.29 -0.01 0.1 4.86 19.18 0.03 0.15 -4.8 19.35 -0.07c0.08,1.5 -0.27,3.6 0.33,4.63 1.16,0.37 17.3,0.43 18.97,0.07l0.13 -4.73 19.31 0 0.05 4.79c2.94,0.27 6.76,0.07 9.76,0.06 11.86,-0.02 9.52,1.3 9.59,-4.84l19.3 -0.01 0.09 4.87 9.66 0.02 0 -9.77c-1.95,0 -8.26,0.3 -9.67,-0.26l-0.11 -4.47c-3.15,-0.14 -6.5,-0.05 -9.68,-0.05 -11.07,0.01 -9.33,-0.91 -9.48,4.55 -1.49,0.47 -12.27,0.26 -14.62,0.23l-4.86 -0.08 0.04 -4.71 -19.38 0.06 -0.05 4.6c-1.65,0.41 -17.06,0.3 -19.3,0.05l-0.21 -4.72 -19.17 -0.02 -0.1 4.84 -19.21 -0.07 0 -4.74 -19.43 0.05 -0.07 4.74 -19.32 -0.11 -0.04 -4.67 -19.3 0.07 -0.05 4.59c-1.64,0.38 -17.17,0.31 -19.33,0.04l-0.01 -4.6 0.01 -0.01z"/>
      </g>
     </g>
    </g>
   </g>
  </g>
 </g>
</svg>
