<?xml version="1.0" encoding="UTF-8"?>
<!DOCTYPE svg PUBLIC "-//W3C//DTD SVG 1.1//EN" "http://www.w3.org/Graphics/SVG/1.1/DTD/svg11.dtd">
<!-- Creator: CorelDRAW -->
<svg xmlns="http://www.w3.org/2000/svg" xml:space="preserve" width="499.122mm" height="195.696mm" version="1.1" style="shape-rendering:geometricPrecision; text-rendering:geometricPrecision; image-rendering:optimizeQuality; fill-rule:evenodd; clip-rule:evenodd"
viewBox="0 0 52688.33 20658.08"
 xmlns:xlink="http://www.w3.org/1999/xlink"
 xmlns:xodm="http://www.corel.com/coreldraw/odm/2003">
 <defs>
  <style type="text/css">
   <![CDATA[
    .str0 {stroke:black;stroke-width:21.11;stroke-miterlimit:22.9256}
    .fil0 {fill:black}
   ]]>
  </style>
 </defs>
 <g id="Layer_x0020_1">
  <metadata id="CorelCorpID_0Corel-Layer"/>
  <g id="_2329608097168">
   <path class="fil0 str0" d="M2803.55 10.56l-2792.99 0 0 2793 0 2792.99 0 2793 0 2792.99 2792.99 0 2793 0 2792.99 0 0 -2792.99 0 -2793 0 -2792.99 -2792.99 0 -2793 0 0 -2793zm2793 5585.99l0 2793 -2793 0 0 -2793 2793 0z"/>
   <g>
    <path class="fil0 str0" d="M9717.82 8389.55l5628.47 0 0 -2793 2750.51 0 0 5585.99 -2439.97 0 -310.54 0 -5628.47 0 0 -2792.99zm0 -5585.99l5585.98 0 0 2792.99 -5585.98 0 0 -2792.99z"/>
   </g>
   <path class="fil0 str0" d="M22005.88 10.56l-2792.99 0 0 2793 0 2792.99 0 2793 0 2792.99 2792.99 0 2793 0 2792.99 0 0 -2792.99 0 -2793 0 -2792.99 -2792.99 0 -2793 0 0 -2793zm2793 5585.99l0 2793 -2793 0 0 -2793 2793 0z"/>
   <polygon class="fil0 str0" points="31381.03,5596.56 34174.02,5596.56 34174.02,2803.56 36967.02,2803.56 36967.02,11182.54 34174.02,11182.54 34174.02,8389.56 31381.03,8389.56 31381.03,5596.56 28588.04,5596.56 28588.04,2803.56 31381.03,2803.56 "/>
   <polygon class="fil0" points="9717.82,17865.08 12510.81,17865.08 12510.81,15072.09 12510.81,12279.09 15303.81,12279.09 18096.8,12279.09 18096.8,15072.09 15303.81,15072.09 15303.81,17865.08 15303.81,20658.08 9717.82,20658.08 "/>
   <polygon class="fil0" points="19212.89,20658.08 19212.89,12279.1 22005.89,12279.1 22005.89,15072.09 24798.87,15072.09 24798.87,12279.1 27591.87,12279.1 27591.87,20658.08 24798.87,20658.08 24798.87,17865.09 22005.89,17865.09 22005.89,20658.08 "/>
   <g>
    <path class="fil0" d="M28588.04 12279.1l5585.98 0 0 2792.99 -5585.98 0 0 -2792.99zm5628.47 2792.99l2750.51 0 0 5585.99 -2439.97 0 -310.54 0 -5628.47 0 0 -2792.99 5628.47 0 0 -2793z"/>
   </g>
   <polygon class="fil0" points="37806.37,12279.1 40599.37,12279.1 43392.36,12279.1 43392.36,15072.1 40599.37,15072.1 40599.37,20658.08 37806.37,20658.08 37806.37,15072.1 "/>
   <polygon class="fil0" points="49895.34,17865.08 52688.33,17865.08 52688.33,20658.08 49895.34,20658.08 49895.34,17865.08 47102.35,17865.08 47102.35,20658.07 44309.35,20658.07 44309.35,17865.08 44309.35,15072.08 44309.35,12279.09 47102.35,12279.09 47102.35,15072.08 49895.34,15072.08 49895.34,12279.09 52688.33,12279.09 52688.33,15072.09 49895.34,15072.09 "/>
  </g>
 </g>
</svg>
