<?xml version="1.0" encoding="UTF-8"?>
<!DOCTYPE svg PUBLIC "-//W3C//DTD SVG 1.1//EN" "http://www.w3.org/Graphics/SVG/1.1/DTD/svg11.dtd">
<!-- Creator: CorelDRAW -->
<svg xmlns="http://www.w3.org/2000/svg" xml:space="preserve" width="20.7676mm" height="14.7115mm" version="1.1" style="shape-rendering:geometricPrecision; text-rendering:geometricPrecision; image-rendering:optimizeQuality; fill-rule:evenodd; clip-rule:evenodd"
viewBox="0 0 27.98 19.82"
 xmlns:xlink="http://www.w3.org/1999/xlink"
 xmlns:xodm="http://www.corel.com/coreldraw/odm/2003">
 <defs>
  <style type="text/css">
   <![CDATA[
    .fil0 {fill:#00B8FE}
    .fil1 {fill:#00F6FF}
    .fil2 {fill:#569DFC}
    .fil3 {fill:#94D9FD}
   ]]>
  </style>
 </defs>
 <g id="Layer_x0020_1">
  <metadata id="CorelCorpID_0Corel-Layer"/>
  <g id="_2329608091936">
   <path class="fil0" d="M4.09 16.33l0.01 -1.17 0.56 0 -0.01 1.16 -0.57 0.01zm18.64 -4.68l0.01 -2.9 0.57 -0 0 2.89 -0.58 0.01zm-11.06 -5.23l0.58 0.01 -0 0.57 -0.57 0 -0 -0.58zm4.08 -2.32l-0.01 0.56 -1.15 0 0 -0.56 1.15 -0zm0.59 -0.6l0 -0.58 1.15 0 -0 0.57 -1.15 0zm3.5 -1.75l0 -0.58 1.15 0 -0 0.57 -1.14 0.01zm1.15 -0.6c-0.2,-0.04 -1.01,-0.05 -1.18,0.02l-0 0.58 0.03 0 -0.01 0.59 -1.18 -0 0.01 0.57 -1.16 -0.01c-0.2,-0.04 -1,-0.05 -1.18,0.01l-0.01 0.59 0.04 -0 -0.02 0.59 -0.58 0.01 -0 -0.04 -1.17 0.01 -0.01 0.56c-0.1,0 -0.19,-0 -0.29,-0l-0.2 0.01c-0.07,0.01 -0.06,0.02 -0.08,0.03l0.59 0 0 0.57 -0.58 0 -0.01 0.58 -1.15 0.01 -0.01 0.57 -0.58 -0.01 -0.59 -0.01 -0 0.61 -0 0.58 -0.54 -0.01c0.01,0.18 0.05,0.44 -0.03,0.6l-0.57 0.01 -0 0.56 -0.57 0 0.01 -0.56 0.01 -0.03c-0.09,0.11 -0.06,0.43 -0.04,0.59l0 0.58c-0.19,0 -0.39,-0.02 -0.57,0.03l-0.01 0.55 -0.58 -0.01c-0.17,-0.03 -0.48,-0.06 -0.6,0.03l0.03 -0.01 0.56 -0 -0.56 0.57 -0.02 0.57c-0.16,0.08 -0.42,0.04 -0.6,0.03l0.01 1.13 -0.58 0.01 0.01 0.57c-0.12,0.08 -0.43,0.04 -0.58,0.04 -0,0.11 0.03,0.46 -0.04,0.53 -0.04,0.06 -0.38,0.03 -0.54,0.04l-0.04 0.57 -0.57 -0 -0 1.16 -0.57 0.01 -0 -1.17c-0.01,0.01 -0.01,0.01 -0.01,0.03 -0.05,0.53 -0.01,0.58 -0.03,1.11 -0.18,0 -0.39,-0.03 -0.56,0.03l-0 1.15c-0.16,0 -0.45,-0.04 -0.56,0.03l0.59 -0.01 -0.01 1.14 -0.58 0.01 -0 0.55 0 0.04 0 0.55c0.26,0.03 2.13,0.04 2.33,-0l0.01 -0.55 2.32 -0.01 0 0.56 2.33 0.01 0.01 -0.57 2.34 -0.01 -0 0.57 2.31 0.01 0.01 -0.58 2.31 0 0.03 0.57c0.27,0.03 2.13,0.04 2.32,-0.01l0.01 -0.55 2.33 -0.01 -0 -6.4 0.58 -0.02 -0 0.03 0.59 -0.01c0.07,-0.15 0.07,-2.66 0.02,-2.92l-0.01 -2.91 0.58 0 0.01 -2.92 0.58 -0 -0 -2.33 -1.75 -0 -0 0.58 -1.74 -0.01z"/>
   <polygon class="fil1" points="22.15,18.07 22.15,18.64 22.73,18.65 22.73,11.68 22.73,11.65 22.15,11.67 "/>
   <polygon class="fil1" points="22.73,0.58 24.48,0.58 24.48,2.92 25.07,2.91 25.07,0.01 22.73,0 "/>
   <polygon class="fil1" points="23.9,5.84 24.47,5.83 24.48,2.92 23.91,2.92 "/>
   <polygon class="fil1" points="22.73,11.65 23.31,11.64 23.31,8.75 22.73,8.75 "/>
   <polygon class="fil1" points="23.33,8.75 23.9,8.75 23.9,5.84 23.32,5.83 "/>
   <polygon class="fil1" points="20.98,1.15 22.73,1.16 22.73,0.58 20.98,0.58 "/>
   <polygon class="fil1" points="12.83,5.84 13.98,5.83 13.99,5.25 12.84,5.25 "/>
   <path class="fil1" d="M8.74 9.9l0.58 0.01 0.01 -0.55c0.18,-0.04 0.38,-0.02 0.57,-0.03l-0 -0.58 -0.56 0 -0 0.56 -0.58 0.02 0 0.57z"/>
   <polygon class="fil1" points="6.99,12.24 7.58,12.23 7.57,11.1 7,11.09 "/>
   <polygon class="fil1" points="16.34,3.5 17.48,3.5 17.49,2.92 16.34,2.92 "/>
   <polygon class="fil1" points="17.49,2.9 18.65,2.91 18.64,2.34 17.49,2.33 "/>
   <polygon class="fil1" points="19.84,1.75 20.98,1.75 20.99,1.18 19.84,1.17 "/>
   <polygon class="fil1" points="15.74,4.1 14.59,4.1 14.59,4.66 15.74,4.66 "/>
   <polygon class="fil1" points="19.8,1.75 18.7,1.75 18.69,2.3 19.8,2.31 "/>
   <polygon class="fil1" points="13.99,5.25 14.57,5.24 14.57,4.67 13.98,4.67 "/>
   <polygon class="fil1" points="11.67,7 12.24,6.99 12.24,6.42 11.66,6.42 "/>
   <polygon class="fil1" points="12.24,6.4 12.82,6.41 12.83,5.84 12.24,5.84 "/>
   <polygon class="fil1" points="8.18,10.49 8.74,10.49 8.74,9.92 8.18,9.92 "/>
   <polygon class="fil1" points="7,12.81 6.99,12.24 6.44,12.24 6.43,12.81 "/>
   <polygon class="fil1" points="10.49,8.19 9.92,8.18 9.92,8.74 10.49,8.74 "/>
   <polygon class="fil1" points="11.09,7.57 11.64,7.58 11.64,7 11.09,7 "/>
   <polygon class="fil1" points="5.25,13.99 5.81,14 5.81,13.43 5.25,13.44 "/>
   <polygon class="fil1" points="7.58,11.06 8.13,11.06 8.15,10.49 7.59,10.49 "/>
   <polygon class="fil1" points="10.49,8.15 11.06,8.14 11.06,7.58 10.49,7.59 "/>
   <polygon class="fil1" points="5.83,13.39 6.39,13.39 6.39,12.82 5.83,12.82 "/>
   <polygon class="fil1" points="15.74,4.06 16.29,4.06 16.3,3.5 15.74,3.5 "/>
   <path class="fil1" d="M18.64 2.34l1.18 0 0.01 -0.59 -0.03 -0 -0.01 0.55 -1.11 -0 0.02 -0.55c-0.09,0.04 -0.04,-0.04 -0.06,0.1 -0,0.01 0,0.15 0,0.18 0,0.1 -0,0.21 -0,0.31z"/>
   <path class="fil1" d="M10.49 8.15l-0.56 0 -0.01 0.03 0.57 0 0.57 -0.01c0.08,-0.17 0.04,-0.42 0.03,-0.6l-0.03 0.01 -0 0.56 -0.56 0.01z"/>
   <path class="fil1" d="M6.39 12.82l-0 0.56c0.07,-0.07 0.03,-0.42 0.04,-0.53 0.15,-0 0.46,0.03 0.58,-0.04l-0.57 0 0.01 -0.57c-0.05,0.05 -0.04,-0.08 -0.04,0.1l-0.01 0.48z"/>
   <path class="fil1" d="M8.15 10.49l-0.01 0.57 -0.56 0 -0 0.03c0.18,0.01 0.44,0.04 0.6,-0.03l0.02 -0.57 -0 -0.57 -0.03 0.01 -0 0.56z"/>
   <path class="fil1" d="M5.81 14l0.04 -0.57c0.15,-0.01 0.5,0.02 0.54,-0.04l-0.56 0c-0.27,0.03 -0.47,-0.03 -0.58,0.05l0.57 -0.01 -0 0.57z"/>
   <polygon class="fil1" points="15.74,4.06 15.74,4.1 16.32,4.09 16.34,3.5 16.3,3.5 16.29,4.06 "/>
   <path class="fil1" d="M7 11.09l0.58 0.01 0 -0.03 0.01 -0.57c-0.03,0.05 -0.02,-0.01 -0.04,0.1 -0,0.03 -0,0.11 -0,0.14 0,0.1 0,0.21 -0,0.31l-0.49 0.01c-0.07,0.01 -0.03,0.01 -0.07,0.03z"/>
   <g>
    <polygon class="fil1" points="3.5,17.49 4.08,17.48 4.09,16.33 3.5,16.34 "/>
    <polygon class="fil1" points="5.25,13.99 4.67,13.98 4.67,15.15 5.24,15.15 "/>
    <polygon class="fil1" points="4.09,16.33 4.66,16.32 4.66,15.16 4.1,15.16 "/>
    <polygon class="fil1" points="3.5,18.04 3.5,17.49 2.94,17.49 2.94,18.04 "/>
    <path class="fil1" d="M2.91 18.07l0.59 0.01 -0 -0.04 -0.56 0 0 -0.55c-0.05,0.04 -0.02,-0.04 -0.04,0.1 -0,0.04 0,0.13 0,0.18 0,0.1 -0,0.2 0.01,0.31z"/>
    <g>
     <path class="fil2" d="M-0 18.66l0 1.16 27.98 0 0 -1.16 -1.16 -0 -0.01 -0.59 -2.32 0c-0.01,0.74 0.27,0.58 -1.15,0.58 -0.36,0 -0.82,0.03 -1.17,-0.01l-0.01 -0.58 -2.33 -0 -0.02 0.57c-0.2,0.04 -2.14,0.04 -2.28,-0.01 -0.07,-0.12 -0.03,-0.38 -0.04,-0.56l-2.33 0.01 -0.02 0.58 -2.31 -0 -0.01 -0.58 -2.32 0 -0.01 0.58 -2.32 -0.01 -0.01 -0.58 -2.32 -0 -0.01 0.57c-0.31,0.05 -1.12,0.01 -1.48,0.01 -0.83,-0 -0.86,0.1 -0.86,-0.23 0,-0.12 0.01,-0.22 -0,-0.35l-2.3 -0 -0.01 0.58 -1.16 0.01z"/>
     <path class="fil3" d="M3.5 16.92l-0.59 -0.01 -1.74 -0.01 -0.02 0.54c-0.17,0.11 -0.89,0.04 -1.15,0.04l0 1.18 1.16 -0.01 0.01 -0.58 2.3 0c0.01,0.13 0.01,0.23 0,0.35 -0,0.32 0.03,0.23 0.86,0.23 0.36,0 1.18,0.04 1.48,-0.01l0.01 -0.57 2.32 0 0.01 0.58 2.32 0.01 0.01 -0.58 2.32 -0 0.01 0.58 2.31 0 0.02 -0.58 2.33 -0.01c0.01,0.18 -0.03,0.43 0.04,0.56 0.14,0.04 2.08,0.05 2.28,0.01l0.02 -0.57 2.33 0 0.01 0.58c0.35,0.03 0.81,0.01 1.17,0.01 1.43,-0 1.15,0.16 1.15,-0.58l2.32 -0 0.01 0.59 1.16 0 0 -1.18c-0.23,-0 -0.99,0.04 -1.16,-0.03l-0.01 -0.54c-0.38,-0.02 -0.78,-0.01 -1.17,-0.01 -1.33,0 -1.12,-0.11 -1.14,0.55 -0.18,0.06 -1.48,0.03 -1.76,0.03l-0.58 -0.01 0 -0.57 -2.33 0.01 -0.01 0.55c-0.2,0.05 -2.05,0.04 -2.32,0.01l-0.03 -0.57 -2.31 -0 -0.01 0.58 -2.31 -0.01 0 -0.57 -2.34 0.01 -0.01 0.57 -2.33 -0.01 -0 -0.56 -2.32 0.01 -0.01 0.55c-0.2,0.05 -2.07,0.04 -2.33,0l-0 -0.55z"/>
    </g>
   </g>
  </g>
 </g>
</svg>
