<?xml version="1.0" encoding="UTF-8"?>
<!DOCTYPE svg PUBLIC "-//W3C//DTD SVG 1.1//EN" "http://www.w3.org/Graphics/SVG/1.1/DTD/svg11.dtd">
<!-- Creator: CorelDRAW -->
<svg xmlns="http://www.w3.org/2000/svg" xml:space="preserve" width="20.7676mm" height="14.7115mm" version="1.1" style="shape-rendering:geometricPrecision; text-rendering:geometricPrecision; image-rendering:optimizeQuality; fill-rule:evenodd; clip-rule:evenodd"
viewBox="0 0 27.98 19.82"
 xmlns:xlink="http://www.w3.org/1999/xlink"
 xmlns:xodm="http://www.corel.com/coreldraw/odm/2003">
 <defs>
  <style type="text/css">
   <![CDATA[
    .fil0 {fill:#00B8FE}
    .fil1 {fill:#00F6FF}
    .fil2 {fill:#569DFC}
    .fil3 {fill:#94D9FD}
   ]]>
  </style>
 </defs>
 <g id="Layer_x0020_1">
  <metadata id="CorelCorpID_0Corel-Layer"/>
  <g id="_2329033618208">
   <path class="fil0" d="M23.89 16.33l-0.01 -1.17 -0.56 0 0.01 1.16 0.57 0.01zm-18.64 -4.68l-0.01 -2.9 -0.57 -0 -0 2.89 0.58 0.01zm11.06 -5.23l-0.58 0.01 0 0.57 0.57 0 0 -0.58zm-4.08 -2.32l0.01 0.56 1.15 0 -0 -0.56 -1.15 -0zm-0.59 -0.6l-0 -0.58 -1.15 0 0 0.57 1.15 0zm-3.5 -1.75l-0 -0.58 -1.15 0 0 0.57 1.14 0.01zm-1.15 -0.6c0.2,-0.04 1.01,-0.05 1.18,0.02l0 0.58 -0.03 0 0.01 0.59 1.18 -0 -0.01 0.57 1.16 -0.01c0.2,-0.04 1,-0.05 1.18,0.01l0.01 0.59 -0.04 -0 0.02 0.59 0.58 0.01 0 -0.04 1.17 0.01 0.01 0.56c0.1,0 0.19,-0 0.29,-0l0.2 0.01c0.07,0.01 0.06,0.02 0.08,0.03l-0.59 0 -0 0.57 0.58 0 0.01 0.58 1.15 0.01 0.01 0.57 0.58 -0.01 0.59 -0.01 0 0.61 0 0.58 0.54 -0.01c-0.01,0.18 -0.05,0.44 0.03,0.6l0.57 0.01 0 0.56 0.57 0 -0.01 -0.56 -0.01 -0.03c0.09,0.11 0.06,0.43 0.04,0.59l-0 0.58c0.19,0 0.39,-0.02 0.57,0.03l0.01 0.55 0.58 -0.01c0.17,-0.03 0.48,-0.06 0.6,0.03l-0.03 -0.01 -0.56 -0 0.56 0.57 0.02 0.57c0.16,0.08 0.42,0.04 0.6,0.03l-0.01 1.13 0.58 0.01 -0.01 0.57c0.12,0.08 0.43,0.04 0.58,0.04 0,0.11 -0.03,0.46 0.04,0.53 0.04,0.06 0.38,0.03 0.54,0.04l0.04 0.57 0.57 -0 0 1.16 0.57 0.01 0 -1.17c0.01,0.01 0.01,0.01 0.01,0.03 0.05,0.53 0.01,0.58 0.03,1.11 0.18,0 0.39,-0.03 0.56,0.03l0 1.15c0.16,0 0.45,-0.04 0.56,0.03l-0.59 -0.01 0.01 1.14 0.58 0.01 0 0.55 -0 0.04 -0 0.55c-0.26,0.03 -2.13,0.04 -2.33,-0l-0.01 -0.55 -2.32 -0.01 -0 0.56 -2.33 0.01 -0.01 -0.57 -2.34 -0.01 0 0.57 -2.31 0.01 -0.01 -0.58 -2.31 0 -0.03 0.57c-0.27,0.03 -2.13,0.04 -2.32,-0.01l-0.01 -0.55 -2.33 -0.01 0 -6.4 -0.58 -0.02 0 0.03 -0.59 -0.01c-0.07,-0.15 -0.07,-2.66 -0.02,-2.92l0.01 -2.91 -0.58 0 -0.01 -2.92 -0.58 -0 0 -2.33 1.75 -0 0 0.58 1.74 -0.01z"/>
   <polygon class="fil1" points="5.83,18.07 5.83,18.64 5.24,18.65 5.25,11.68 5.25,11.65 5.83,11.67 "/>
   <polygon class="fil1" points="5.25,0.58 3.5,0.58 3.5,2.92 2.91,2.91 2.91,0.01 5.25,0 "/>
   <polygon class="fil1" points="4.08,5.84 3.51,5.83 3.5,2.92 4.07,2.92 "/>
   <polygon class="fil1" points="5.25,11.65 4.67,11.64 4.67,8.75 5.25,8.75 "/>
   <polygon class="fil1" points="4.65,8.75 4.08,8.75 4.08,5.84 4.66,5.83 "/>
   <polygon class="fil1" points="7,1.15 5.25,1.16 5.25,0.58 7,0.58 "/>
   <polygon class="fil1" points="15.15,5.84 14,5.83 13.99,5.25 15.14,5.25 "/>
   <path class="fil1" d="M19.24 9.9l-0.58 0.01 -0.01 -0.55c-0.18,-0.04 -0.38,-0.02 -0.57,-0.03l0 -0.58 0.56 0 0 0.56 0.58 0.02 0 0.57z"/>
   <polygon class="fil1" points="20.99,12.24 20.4,12.23 20.41,11.1 20.98,11.09 "/>
   <polygon class="fil1" points="11.64,3.5 10.49,3.5 10.49,2.92 11.64,2.92 "/>
   <polygon class="fil1" points="10.49,2.9 9.33,2.91 9.34,2.34 10.49,2.33 "/>
   <polygon class="fil1" points="8.14,1.75 7,1.75 6.99,1.18 8.14,1.17 "/>
   <polygon class="fil1" points="12.24,4.1 13.39,4.1 13.39,4.66 12.24,4.66 "/>
   <polygon class="fil1" points="8.18,1.75 9.28,1.75 9.29,2.3 8.18,2.31 "/>
   <polygon class="fil1" points="13.99,5.25 13.41,5.24 13.41,4.67 14,4.67 "/>
   <polygon class="fil1" points="16.31,7 15.74,6.99 15.74,6.42 16.32,6.42 "/>
   <polygon class="fil1" points="15.74,6.4 15.16,6.41 15.15,5.84 15.74,5.84 "/>
   <polygon class="fil1" points="19.8,10.49 19.24,10.49 19.24,9.92 19.8,9.92 "/>
   <polygon class="fil1" points="20.98,12.81 20.99,12.24 21.54,12.24 21.55,12.81 "/>
   <polygon class="fil1" points="17.49,8.19 18.06,8.18 18.06,8.74 17.49,8.74 "/>
   <polygon class="fil1" points="16.89,7.57 16.34,7.58 16.34,7 16.89,7 "/>
   <polygon class="fil1" points="22.73,13.99 22.17,14 22.16,13.43 22.73,13.44 "/>
   <polygon class="fil1" points="20.4,11.06 19.85,11.06 19.83,10.49 20.39,10.49 "/>
   <polygon class="fil1" points="17.49,8.15 16.92,8.14 16.92,7.58 17.49,7.59 "/>
   <polygon class="fil1" points="22.15,13.39 21.59,13.39 21.59,12.82 22.15,12.82 "/>
   <polygon class="fil1" points="12.24,4.06 11.69,4.06 11.68,3.5 12.24,3.5 "/>
   <path class="fil1" d="M9.34 2.34l-1.18 0 -0.01 -0.59 0.03 -0 0.01 0.55 1.11 -0 -0.02 -0.55c0.09,0.04 0.04,-0.04 0.06,0.1 0,0.01 -0,0.15 -0,0.18 -0,0.1 0,0.21 0,0.31z"/>
   <path class="fil1" d="M17.49 8.15l0.56 0 0.01 0.03 -0.57 0 -0.57 -0.01c-0.08,-0.17 -0.04,-0.42 -0.03,-0.6l0.03 0.01 0 0.56 0.56 0.01z"/>
   <path class="fil1" d="M21.59 12.82l0 0.56c-0.07,-0.07 -0.03,-0.42 -0.04,-0.53 -0.15,-0 -0.46,0.03 -0.58,-0.04l0.57 0 -0.01 -0.57c0.05,0.05 0.04,-0.08 0.04,0.1l0.01 0.48z"/>
   <path class="fil1" d="M19.83 10.49l0.01 0.57 0.56 0 0 0.03c-0.18,0.01 -0.44,0.04 -0.6,-0.03l-0.02 -0.57 0 -0.57 0.03 0.01 0 0.56z"/>
   <path class="fil1" d="M22.17 14l-0.04 -0.57c-0.15,-0.01 -0.5,0.02 -0.54,-0.04l0.56 0c0.27,0.03 0.47,-0.03 0.58,0.05l-0.57 -0.01 0 0.57z"/>
   <polygon class="fil1" points="12.24,4.06 12.24,4.1 11.66,4.09 11.64,3.5 11.68,3.5 11.69,4.06 "/>
   <path class="fil1" d="M20.98 11.09l-0.58 0.01 -0 -0.03 -0.01 -0.57c0.03,0.05 0.02,-0.01 0.04,0.1 0,0.03 0,0.11 0,0.14 -0,0.1 -0,0.21 0,0.31l0.49 0.01c0.07,0.01 0.03,0.01 0.07,0.03z"/>
   <g>
    <polygon class="fil1" points="24.48,17.49 23.9,17.48 23.89,16.33 24.48,16.34 "/>
    <polygon class="fil1" points="22.73,13.99 23.31,13.98 23.31,15.15 22.74,15.15 "/>
    <polygon class="fil1" points="23.89,16.33 23.32,16.32 23.32,15.16 23.88,15.16 "/>
    <polygon class="fil1" points="24.48,18.04 24.48,17.49 25.04,17.49 25.04,18.04 "/>
    <path class="fil1" d="M25.07 18.07l-0.59 0.01 0 -0.04 0.56 0 -0 -0.55c0.05,0.04 0.02,-0.04 0.04,0.1 0,0.04 -0,0.13 -0,0.18 -0,0.1 0,0.2 -0.01,0.31z"/>
    <g>
     <path class="fil2" d="M27.98 18.66l0 1.16 -27.98 0 0 -1.16 1.16 -0 0.01 -0.59 2.32 0c0.01,0.74 -0.27,0.58 1.15,0.58 0.36,0 0.82,0.03 1.17,-0.01l0.01 -0.58 2.33 -0 0.02 0.57c0.2,0.04 2.14,0.04 2.28,-0.01 0.07,-0.12 0.03,-0.38 0.04,-0.56l2.33 0.01 0.02 0.58 2.31 -0 0.01 -0.58 2.32 0 0.01 0.58 2.32 -0.01 0.01 -0.58 2.32 -0 0.01 0.57c0.31,0.05 1.12,0.01 1.48,0.01 0.83,-0 0.86,0.1 0.86,-0.23 -0,-0.12 -0.01,-0.22 0,-0.35l2.3 -0 0.01 0.58 1.16 0.01z"/>
     <path class="fil3" d="M24.48 16.92l0.59 -0.01 1.74 -0.01 0.02 0.54c0.17,0.11 0.89,0.04 1.15,0.04l0 1.18 -1.16 -0.01 -0.01 -0.58 -2.3 0c-0.01,0.13 -0.01,0.23 -0,0.35 0,0.32 -0.03,0.23 -0.86,0.23 -0.36,0 -1.18,0.04 -1.48,-0.01l-0.01 -0.57 -2.32 0 -0.01 0.58 -2.32 0.01 -0.01 -0.58 -2.32 -0 -0.01 0.58 -2.31 0 -0.02 -0.58 -2.33 -0.01c-0.01,0.18 0.03,0.43 -0.04,0.56 -0.14,0.04 -2.08,0.05 -2.28,0.01l-0.02 -0.57 -2.33 0 -0.01 0.58c-0.35,0.03 -0.81,0.01 -1.17,0.01 -1.43,-0 -1.15,0.16 -1.15,-0.58l-2.32 -0 -0.01 0.59 -1.16 0 0 -1.18c0.23,-0 0.99,0.04 1.16,-0.03l0.01 -0.54c0.38,-0.02 0.78,-0.01 1.17,-0.01 1.33,0 1.12,-0.11 1.14,0.55 0.18,0.06 1.48,0.03 1.76,0.03l0.58 -0.01 -0 -0.57 2.33 0.01 0.01 0.55c0.2,0.05 2.05,0.04 2.32,0.01l0.03 -0.57 2.31 -0 0.01 0.58 2.31 -0.01 -0 -0.57 2.34 0.01 0.01 0.57 2.33 -0.01 0 -0.56 2.32 0.01 0.01 0.55c0.2,0.05 2.07,0.04 2.33,0l0 -0.55z"/>
    </g>
   </g>
  </g>
 </g>
</svg>
